%TF.GenerationSoftware,KiCad,Pcbnew,8.0.0-rc2*%
%TF.CreationDate,2025-04-02T21:45:00+07:00*%
%TF.ProjectId,ruler,72756c65-722e-46b6-9963-61645f706362,rev?*%
%TF.SameCoordinates,Original*%
%TF.FileFunction,Copper,L1,Top*%
%TF.FilePolarity,Positive*%
%FSLAX46Y46*%
G04 Gerber Fmt 4.6, Leading zero omitted, Abs format (unit mm)*
G04 Created by KiCad (PCBNEW 8.0.0-rc2) date 2025-04-02 21:45:00*
%MOMM*%
%LPD*%
G01*
G04 APERTURE LIST*
G04 Aperture macros list*
%AMRoundRect*
0 Rectangle with rounded corners*
0 $1 Rounding radius*
0 $2 $3 $4 $5 $6 $7 $8 $9 X,Y pos of 4 corners*
0 Add a 4 corners polygon primitive as box body*
4,1,4,$2,$3,$4,$5,$6,$7,$8,$9,$2,$3,0*
0 Add four circle primitives for the rounded corners*
1,1,$1+$1,$2,$3*
1,1,$1+$1,$4,$5*
1,1,$1+$1,$6,$7*
1,1,$1+$1,$8,$9*
0 Add four rect primitives between the rounded corners*
20,1,$1+$1,$2,$3,$4,$5,0*
20,1,$1+$1,$4,$5,$6,$7,0*
20,1,$1+$1,$6,$7,$8,$9,0*
20,1,$1+$1,$8,$9,$2,$3,0*%
%AMFreePoly0*
4,1,9,3.862500,-0.866500,0.737500,-0.866500,0.737500,-0.450000,-0.737500,-0.450000,-0.737500,0.450000,0.737500,0.450000,0.737500,0.866500,3.862500,0.866500,3.862500,-0.866500,3.862500,-0.866500,$1*%
%AMFreePoly1*
4,1,6,1.000000,0.000000,0.500000,-0.750000,-0.500000,-0.750000,-0.500000,0.750000,0.500000,0.750000,1.000000,0.000000,1.000000,0.000000,$1*%
%AMFreePoly2*
4,1,6,0.500000,-0.750000,-0.650000,-0.750000,-0.150000,0.000000,-0.650000,0.750000,0.500000,0.750000,0.500000,-0.750000,0.500000,-0.750000,$1*%
%AMFreePoly3*
4,1,7,0.700000,0.000000,1.200000,-0.750000,-1.200000,-0.750000,-0.700000,0.000000,-1.200000,0.750000,1.200000,0.750000,0.700000,0.000000,0.700000,0.000000,$1*%
%AMFreePoly4*
4,1,19,0.379643,0.132453,0.384467,0.128033,0.490533,0.021967,0.512215,-0.024529,0.512500,-0.031066,0.512500,-0.075000,0.494953,-0.123209,0.450524,-0.148861,0.437500,-0.150000,-0.437500,-0.150000,-0.485709,-0.132453,-0.511361,-0.088024,-0.512500,-0.075000,-0.512500,0.075000,-0.494953,0.123209,-0.450524,0.148861,-0.437500,0.150000,0.331434,0.150000,0.379643,0.132453,0.379643,0.132453,
$1*%
%AMFreePoly5*
4,1,19,0.485709,0.132453,0.511361,0.088024,0.512500,0.075000,0.512500,0.031066,0.494953,-0.017143,0.490533,-0.021967,0.384467,-0.128033,0.337971,-0.149715,0.331434,-0.150000,-0.437500,-0.150000,-0.485709,-0.132453,-0.511361,-0.088024,-0.512500,-0.075000,-0.512500,0.075000,-0.494953,0.123209,-0.450524,0.148861,-0.437500,0.150000,0.437500,0.150000,0.485709,0.132453,0.485709,0.132453,
$1*%
%AMFreePoly6*
4,1,19,0.123209,0.494953,0.148861,0.450524,0.150000,0.437500,0.150000,-0.437500,0.132453,-0.485709,0.088024,-0.511361,0.075000,-0.512500,-0.075000,-0.512500,-0.123209,-0.494953,-0.148861,-0.450524,-0.150000,-0.437500,-0.150000,0.331434,-0.132453,0.379643,-0.128033,0.384467,-0.021967,0.490533,0.024529,0.512215,0.031066,0.512500,0.075000,0.512500,0.123209,0.494953,0.123209,0.494953,
$1*%
%AMFreePoly7*
4,1,19,0.017143,0.494953,0.021967,0.490533,0.128033,0.384467,0.149715,0.337971,0.150000,0.331434,0.150000,-0.437500,0.132453,-0.485709,0.088024,-0.511361,0.075000,-0.512500,-0.075000,-0.512500,-0.123209,-0.494953,-0.148861,-0.450524,-0.150000,-0.437500,-0.150000,0.437500,-0.132453,0.485709,-0.088024,0.511361,-0.075000,0.512500,-0.031066,0.512500,0.017143,0.494953,0.017143,0.494953,
$1*%
%AMFreePoly8*
4,1,19,0.485709,0.132453,0.511361,0.088024,0.512500,0.075000,0.512500,-0.075000,0.494953,-0.123209,0.450524,-0.148861,0.437500,-0.150000,-0.331434,-0.150000,-0.379643,-0.132453,-0.384467,-0.128033,-0.490533,-0.021967,-0.512215,0.024529,-0.512500,0.031066,-0.512500,0.075000,-0.494953,0.123209,-0.450524,0.148861,-0.437500,0.150000,0.437500,0.150000,0.485709,0.132453,0.485709,0.132453,
$1*%
%AMFreePoly9*
4,1,19,0.485709,0.132453,0.511361,0.088024,0.512500,0.075000,0.512500,-0.075000,0.494953,-0.123209,0.450524,-0.148861,0.437500,-0.150000,-0.437500,-0.150000,-0.485709,-0.132453,-0.511361,-0.088024,-0.512500,-0.075000,-0.512500,-0.031066,-0.494953,0.017143,-0.490533,0.021967,-0.384467,0.128033,-0.337971,0.149715,-0.331434,0.150000,0.437500,0.150000,0.485709,0.132453,0.485709,0.132453,
$1*%
%AMFreePoly10*
4,1,19,0.123209,0.494953,0.148861,0.450524,0.150000,0.437500,0.150000,-0.331434,0.132453,-0.379643,0.128033,-0.384467,0.021967,-0.490533,-0.024529,-0.512215,-0.031066,-0.512500,-0.075000,-0.512500,-0.123209,-0.494953,-0.148861,-0.450524,-0.150000,-0.437500,-0.150000,0.437500,-0.132453,0.485709,-0.088024,0.511361,-0.075000,0.512500,0.075000,0.512500,0.123209,0.494953,0.123209,0.494953,
$1*%
%AMFreePoly11*
4,1,19,0.123209,0.494953,0.148861,0.450524,0.150000,0.437500,0.150000,-0.437500,0.132453,-0.485709,0.088024,-0.511361,0.075000,-0.512500,0.031066,-0.512500,-0.017143,-0.494953,-0.021967,-0.490533,-0.128033,-0.384467,-0.149715,-0.337971,-0.150000,-0.331434,-0.150000,0.437500,-0.132453,0.485709,-0.088024,0.511361,-0.075000,0.512500,0.075000,0.512500,0.123209,0.494953,0.123209,0.494953,
$1*%
%AMFreePoly12*
4,1,18,-0.410000,0.265000,0.000000,0.675000,0.328000,0.675000,0.359380,0.668758,0.385983,0.650983,0.403758,0.624380,0.410000,0.593000,0.410000,-0.593000,0.403758,-0.624380,0.385983,-0.650983,0.359380,-0.668758,0.328000,-0.675000,-0.328000,-0.675000,-0.359380,-0.668758,-0.385983,-0.650983,-0.403758,-0.624380,-0.410000,-0.593000,-0.410000,0.265000,-0.410000,0.265000,$1*%
G04 Aperture macros list end*
%TA.AperFunction,EtchedComponent*%
%ADD10C,0.000000*%
%TD*%
%TA.AperFunction,SMDPad,CuDef*%
%ADD11RoundRect,0.200000X0.000000X1.050000X0.000000X1.050000X0.000000X-1.050000X0.000000X-1.050000X0*%
%TD*%
%TA.AperFunction,SMDPad,CuDef*%
%ADD12RoundRect,0.200000X0.000000X1.800000X0.000000X1.800000X0.000000X-1.800000X0.000000X-1.800000X0*%
%TD*%
%TA.AperFunction,SMDPad,CuDef*%
%ADD13R,0.200000X1.000000*%
%TD*%
%TA.AperFunction,SMDPad,CuDef*%
%ADD14RoundRect,0.200000X-5.000000X0.000000X-5.000000X0.000000X5.000000X0.000000X5.000000X0.000000X0*%
%TD*%
%TA.AperFunction,SMDPad,CuDef*%
%ADD15RoundRect,0.200000X0.000000X-1.050000X0.000000X-1.050000X0.000000X1.050000X0.000000X1.050000X0*%
%TD*%
%TA.AperFunction,SMDPad,CuDef*%
%ADD16RoundRect,0.200000X0.000000X-1.800000X0.000000X-1.800000X0.000000X1.800000X0.000000X1.800000X0*%
%TD*%
%TA.AperFunction,SMDPad,CuDef*%
%ADD17RoundRect,0.200000X5.000000X0.000000X5.000000X0.000000X-5.000000X0.000000X-5.000000X0.000000X0*%
%TD*%
%TA.AperFunction,SMDPad,CuDef*%
%ADD18R,0.300000X0.800000*%
%TD*%
%TA.AperFunction,SMDPad,CuDef*%
%ADD19RoundRect,0.140000X-0.140000X-0.170000X0.140000X-0.170000X0.140000X0.170000X-0.140000X0.170000X0*%
%TD*%
%TA.AperFunction,SMDPad,CuDef*%
%ADD20R,2.000000X2.000000*%
%TD*%
%TA.AperFunction,SMDPad,CuDef*%
%ADD21R,1.500000X1.500000*%
%TD*%
%TA.AperFunction,SMDPad,CuDef*%
%ADD22RoundRect,0.250000X-0.362500X-1.075000X0.362500X-1.075000X0.362500X1.075000X-0.362500X1.075000X0*%
%TD*%
%TA.AperFunction,SMDPad,CuDef*%
%ADD23C,0.750000*%
%TD*%
%TA.AperFunction,ComponentPad*%
%ADD24C,12.800000*%
%TD*%
%TA.AperFunction,SMDPad,CuDef*%
%ADD25C,0.500000*%
%TD*%
%TA.AperFunction,SMDPad,CuDef*%
%ADD26RoundRect,0.225000X-0.225000X-0.375000X0.225000X-0.375000X0.225000X0.375000X-0.225000X0.375000X0*%
%TD*%
%TA.AperFunction,SMDPad,CuDef*%
%ADD27RoundRect,0.250000X-0.450000X-0.800000X0.450000X-0.800000X0.450000X0.800000X-0.450000X0.800000X0*%
%TD*%
%TA.AperFunction,SMDPad,CuDef*%
%ADD28R,1.000000X1.500000*%
%TD*%
%TA.AperFunction,SMDPad,CuDef*%
%ADD29RoundRect,0.100000X0.100000X-0.637500X0.100000X0.637500X-0.100000X0.637500X-0.100000X-0.637500X0*%
%TD*%
%TA.AperFunction,SMDPad,CuDef*%
%ADD30RoundRect,0.150000X0.150000X0.200000X-0.150000X0.200000X-0.150000X-0.200000X0.150000X-0.200000X0*%
%TD*%
%TA.AperFunction,ComponentPad*%
%ADD31C,3.300000*%
%TD*%
%TA.AperFunction,SMDPad,CuDef*%
%ADD32R,1.650000X2.500000*%
%TD*%
%TA.AperFunction,SMDPad,CuDef*%
%ADD33RoundRect,0.250000X-1.025000X-1.000000X1.025000X-1.000000X1.025000X1.000000X-1.025000X1.000000X0*%
%TD*%
%TA.AperFunction,SMDPad,CuDef*%
%ADD34RoundRect,0.225000X-0.425000X-0.225000X0.425000X-0.225000X0.425000X0.225000X-0.425000X0.225000X0*%
%TD*%
%TA.AperFunction,SMDPad,CuDef*%
%ADD35FreePoly0,0.000000*%
%TD*%
%TA.AperFunction,SMDPad,CuDef*%
%ADD36RoundRect,0.250000X0.300000X-2.050000X0.300000X2.050000X-0.300000X2.050000X-0.300000X-2.050000X0*%
%TD*%
%TA.AperFunction,SMDPad,CuDef*%
%ADD37RoundRect,0.250000X2.375000X-2.025000X2.375000X2.025000X-2.375000X2.025000X-2.375000X-2.025000X0*%
%TD*%
%TA.AperFunction,SMDPad,CuDef*%
%ADD38RoundRect,0.250002X5.149998X-4.449998X5.149998X4.449998X-5.149998X4.449998X-5.149998X-4.449998X0*%
%TD*%
%TA.AperFunction,ComponentPad*%
%ADD39C,5.400000*%
%TD*%
%TA.AperFunction,SMDPad,CuDef*%
%ADD40RoundRect,0.112500X-0.187500X-0.112500X0.187500X-0.112500X0.187500X0.112500X-0.187500X0.112500X0*%
%TD*%
%TA.AperFunction,SMDPad,CuDef*%
%ADD41RoundRect,0.100000X-0.130000X-0.100000X0.130000X-0.100000X0.130000X0.100000X-0.130000X0.100000X0*%
%TD*%
%TA.AperFunction,SMDPad,CuDef*%
%ADD42RoundRect,0.125000X0.125000X-0.762500X0.125000X0.762500X-0.125000X0.762500X-0.125000X-0.762500X0*%
%TD*%
%TA.AperFunction,SMDPad,CuDef*%
%ADD43RoundRect,0.075000X-0.675000X-0.075000X0.675000X-0.075000X0.675000X0.075000X-0.675000X0.075000X0*%
%TD*%
%TA.AperFunction,SMDPad,CuDef*%
%ADD44RoundRect,0.075000X-0.075000X-0.675000X0.075000X-0.675000X0.075000X0.675000X-0.075000X0.675000X0*%
%TD*%
%TA.AperFunction,SMDPad,CuDef*%
%ADD45R,3.000000X3.000000*%
%TD*%
%TA.AperFunction,SMDPad,CuDef*%
%ADD46RoundRect,0.250000X-0.325000X-0.650000X0.325000X-0.650000X0.325000X0.650000X-0.325000X0.650000X0*%
%TD*%
%TA.AperFunction,SMDPad,CuDef*%
%ADD47R,1.200000X2.600000*%
%TD*%
%TA.AperFunction,SMDPad,CuDef*%
%ADD48RoundRect,0.260000X-1.065000X-1.040000X1.065000X-1.040000X1.065000X1.040000X-1.065000X1.040000X0*%
%TD*%
%TA.AperFunction,ComponentPad*%
%ADD49C,2.400000*%
%TD*%
%TA.AperFunction,SMDPad,CuDef*%
%ADD50C,1.500000*%
%TD*%
%TA.AperFunction,SMDPad,CuDef*%
%ADD51FreePoly1,0.000000*%
%TD*%
%TA.AperFunction,SMDPad,CuDef*%
%ADD52FreePoly2,0.000000*%
%TD*%
%TA.AperFunction,ComponentPad*%
%ADD53C,8.600000*%
%TD*%
%TA.AperFunction,SMDPad,CuDef*%
%ADD54RoundRect,0.105000X-0.245000X-0.245000X0.245000X-0.245000X0.245000X0.245000X-0.245000X0.245000X0*%
%TD*%
%TA.AperFunction,SMDPad,CuDef*%
%ADD55RoundRect,0.062500X0.117500X0.062500X-0.117500X0.062500X-0.117500X-0.062500X0.117500X-0.062500X0*%
%TD*%
%TA.AperFunction,SMDPad,CuDef*%
%ADD56RoundRect,0.050000X-0.150000X-0.300000X0.150000X-0.300000X0.150000X0.300000X-0.150000X0.300000X0*%
%TD*%
%TA.AperFunction,SMDPad,CuDef*%
%ADD57RoundRect,0.375000X-0.625000X-0.375000X0.625000X-0.375000X0.625000X0.375000X-0.625000X0.375000X0*%
%TD*%
%TA.AperFunction,SMDPad,CuDef*%
%ADD58RoundRect,0.500000X-0.500000X-1.400000X0.500000X-1.400000X0.500000X1.400000X-0.500000X1.400000X0*%
%TD*%
%TA.AperFunction,SMDPad,CuDef*%
%ADD59RoundRect,0.250000X-0.325000X-1.100000X0.325000X-1.100000X0.325000X1.100000X-0.325000X1.100000X0*%
%TD*%
%TA.AperFunction,ComponentPad*%
%ADD60C,10.600000*%
%TD*%
%TA.AperFunction,SMDPad,CuDef*%
%ADD61RoundRect,0.250000X0.350000X-0.850000X0.350000X0.850000X-0.350000X0.850000X-0.350000X-0.850000X0*%
%TD*%
%TA.AperFunction,SMDPad,CuDef*%
%ADD62RoundRect,0.250000X1.125000X-1.275000X1.125000X1.275000X-1.125000X1.275000X-1.125000X-1.275000X0*%
%TD*%
%TA.AperFunction,SMDPad,CuDef*%
%ADD63RoundRect,0.249997X2.650003X-2.950003X2.650003X2.950003X-2.650003X2.950003X-2.650003X-2.950003X0*%
%TD*%
%TA.AperFunction,SMDPad,CuDef*%
%ADD64RoundRect,0.225000X-0.225000X-0.250000X0.225000X-0.250000X0.225000X0.250000X-0.225000X0.250000X0*%
%TD*%
%TA.AperFunction,SMDPad,CuDef*%
%ADD65RoundRect,0.200000X-0.200000X-0.300000X0.200000X-0.300000X0.200000X0.300000X-0.200000X0.300000X0*%
%TD*%
%TA.AperFunction,SMDPad,CuDef*%
%ADD66FreePoly1,180.000000*%
%TD*%
%TA.AperFunction,SMDPad,CuDef*%
%ADD67FreePoly3,180.000000*%
%TD*%
%TA.AperFunction,ComponentPad*%
%ADD68C,6.400000*%
%TD*%
%TA.AperFunction,SMDPad,CuDef*%
%ADD69R,1.000000X1.000000*%
%TD*%
%TA.AperFunction,ComponentPad*%
%ADD70C,4.400000*%
%TD*%
%TA.AperFunction,SMDPad,CuDef*%
%ADD71RoundRect,0.250000X-0.250000X-0.475000X0.250000X-0.475000X0.250000X0.475000X-0.250000X0.475000X0*%
%TD*%
%TA.AperFunction,SMDPad,CuDef*%
%ADD72R,2.500000X2.500000*%
%TD*%
%TA.AperFunction,SMDPad,CuDef*%
%ADD73FreePoly4,0.000000*%
%TD*%
%TA.AperFunction,SMDPad,CuDef*%
%ADD74RoundRect,0.075000X-0.437500X-0.075000X0.437500X-0.075000X0.437500X0.075000X-0.437500X0.075000X0*%
%TD*%
%TA.AperFunction,SMDPad,CuDef*%
%ADD75FreePoly5,0.000000*%
%TD*%
%TA.AperFunction,SMDPad,CuDef*%
%ADD76FreePoly6,0.000000*%
%TD*%
%TA.AperFunction,SMDPad,CuDef*%
%ADD77RoundRect,0.075000X-0.075000X-0.437500X0.075000X-0.437500X0.075000X0.437500X-0.075000X0.437500X0*%
%TD*%
%TA.AperFunction,SMDPad,CuDef*%
%ADD78FreePoly7,0.000000*%
%TD*%
%TA.AperFunction,SMDPad,CuDef*%
%ADD79FreePoly8,0.000000*%
%TD*%
%TA.AperFunction,SMDPad,CuDef*%
%ADD80FreePoly9,0.000000*%
%TD*%
%TA.AperFunction,SMDPad,CuDef*%
%ADD81FreePoly10,0.000000*%
%TD*%
%TA.AperFunction,SMDPad,CuDef*%
%ADD82FreePoly11,0.000000*%
%TD*%
%TA.AperFunction,HeatsinkPad*%
%ADD83R,3.200000X3.200000*%
%TD*%
%TA.AperFunction,SMDPad,CuDef*%
%ADD84R,4.000000X4.000000*%
%TD*%
%TA.AperFunction,SMDPad,CuDef*%
%ADD85RoundRect,0.150000X-0.587500X-0.150000X0.587500X-0.150000X0.587500X0.150000X-0.587500X0.150000X0*%
%TD*%
%TA.AperFunction,SMDPad,CuDef*%
%ADD86RoundRect,0.082000X0.593000X-0.328000X0.593000X0.328000X-0.593000X0.328000X-0.593000X-0.328000X0*%
%TD*%
%TA.AperFunction,SMDPad,CuDef*%
%ADD87FreePoly12,90.000000*%
%TD*%
%TA.AperFunction,SMDPad,CuDef*%
%ADD88RoundRect,0.070000X-0.330000X0.280000X-0.330000X-0.280000X0.330000X-0.280000X0.330000X0.280000X0*%
%TD*%
%TA.AperFunction,SMDPad,CuDef*%
%ADD89C,1.000000*%
%TD*%
%ADD90C,0.350000*%
G04 APERTURE END LIST*
D10*
%TA.AperFunction,EtchedComponent*%
%TO.C,REF\u002A\u002A*%
G36*
X209250000Y-91150000D02*
G01*
X208750000Y-91150000D01*
X208750000Y-90550000D01*
X209250000Y-90550000D01*
X209250000Y-91150000D01*
G37*
%TD.AperFunction*%
%TA.AperFunction,EtchedComponent*%
G36*
X204550000Y-86700000D02*
G01*
X204050000Y-86700000D01*
X204050000Y-86300000D01*
X204550000Y-86300000D01*
X204550000Y-86700000D01*
G37*
%TD.AperFunction*%
%TA.AperFunction,EtchedComponent*%
G36*
X204550000Y-87500000D02*
G01*
X204050000Y-87500000D01*
X204050000Y-87100000D01*
X204550000Y-87100000D01*
X204550000Y-87500000D01*
G37*
%TD.AperFunction*%
%TA.AperFunction,EtchedComponent*%
G36*
X204550000Y-91150000D02*
G01*
X204050000Y-91150000D01*
X204050000Y-90550000D01*
X204550000Y-90550000D01*
X204550000Y-91150000D01*
G37*
%TD.AperFunction*%
%TA.AperFunction,EtchedComponent*%
G36*
X209250000Y-86700000D02*
G01*
X208750000Y-86700000D01*
X208750000Y-86300000D01*
X209250000Y-86300000D01*
X209250000Y-86700000D01*
G37*
%TD.AperFunction*%
%TA.AperFunction,EtchedComponent*%
G36*
X209250000Y-87500000D02*
G01*
X208750000Y-87500000D01*
X208750000Y-87100000D01*
X209250000Y-87100000D01*
X209250000Y-87500000D01*
G37*
%TD.AperFunction*%
%TD*%
D11*
%TO.P,REF\u002A\u002A25,*%
%TO.N,*%
X48000000Y-107750000D03*
D12*
%TO.P,REF\u002A\u002A25,1*%
%TO.N,N/C*%
X53000000Y-107200000D03*
D13*
X52000000Y-108500000D03*
X51000000Y-108500000D03*
X50000000Y-108500000D03*
X49000000Y-108500000D03*
D14*
X48000000Y-109000000D03*
D13*
X47000000Y-108500000D03*
X46000000Y-108500000D03*
X45000000Y-108500000D03*
X44000000Y-108500000D03*
%TD*%
D15*
%TO.P,REF\u002A\u002A18,*%
%TO.N,*%
X208000000Y-80250000D03*
D16*
%TO.P,REF\u002A\u002A18,1*%
%TO.N,N/C*%
X203000000Y-80800000D03*
D13*
X204000000Y-79500000D03*
X205000000Y-79500000D03*
X206000000Y-79500000D03*
X207000000Y-79500000D03*
D17*
X208000000Y-79000000D03*
D13*
X209000000Y-79500000D03*
X210000000Y-79500000D03*
X211000000Y-79500000D03*
X212000000Y-79500000D03*
%TD*%
D18*
%TO.P,VSSOP,1*%
%TO.N,N/C*%
X63117500Y-89817500D03*
%TO.P,VSSOP,2*%
X62617500Y-89817500D03*
%TO.P,VSSOP,3*%
X62117500Y-89817500D03*
%TO.P,VSSOP,4*%
X61617500Y-89817500D03*
%TO.P,VSSOP,5*%
X61617500Y-92917500D03*
%TO.P,VSSOP,6*%
X62117500Y-92917500D03*
%TO.P,VSSOP,7*%
X62617500Y-92917500D03*
%TO.P,VSSOP,8*%
X63117500Y-92917500D03*
%TD*%
D11*
%TO.P,REF\u002A\u002A6,*%
%TO.N,*%
X238000000Y-107750000D03*
D12*
%TO.P,REF\u002A\u002A6,1*%
%TO.N,N/C*%
X243000000Y-107200000D03*
D13*
X242000000Y-108500000D03*
X241000000Y-108500000D03*
X240000000Y-108500000D03*
X239000000Y-108500000D03*
D14*
X238000000Y-109000000D03*
D13*
X237000000Y-108500000D03*
X236000000Y-108500000D03*
X235000000Y-108500000D03*
X234000000Y-108500000D03*
%TD*%
D15*
%TO.P,REF\u002A\u002A23,*%
%TO.N,*%
X258000000Y-80250000D03*
D16*
%TO.P,REF\u002A\u002A23,1*%
%TO.N,N/C*%
X253000000Y-80800000D03*
D13*
X254000000Y-79500000D03*
X255000000Y-79500000D03*
X256000000Y-79500000D03*
X257000000Y-79500000D03*
D17*
X258000000Y-79000000D03*
D13*
X259000000Y-79500000D03*
X260000000Y-79500000D03*
X261000000Y-79500000D03*
X262000000Y-79500000D03*
%TD*%
D15*
%TO.P,REF\u002A\u002A21,*%
%TO.N,*%
X238000000Y-80250000D03*
D16*
%TO.P,REF\u002A\u002A21,1*%
%TO.N,N/C*%
X233000000Y-80800000D03*
D13*
X234000000Y-79500000D03*
X235000000Y-79500000D03*
X236000000Y-79500000D03*
X237000000Y-79500000D03*
D17*
X238000000Y-79000000D03*
D13*
X239000000Y-79500000D03*
X240000000Y-79500000D03*
X241000000Y-79500000D03*
X242000000Y-79500000D03*
%TD*%
D11*
%TO.P,REF\u002A\u002A14,*%
%TO.N,*%
X158000000Y-107750000D03*
D12*
%TO.P,REF\u002A\u002A14,1*%
%TO.N,N/C*%
X163000000Y-107200000D03*
D13*
X162000000Y-108500000D03*
X161000000Y-108500000D03*
X160000000Y-108500000D03*
X159000000Y-108500000D03*
D14*
X158000000Y-109000000D03*
D13*
X157000000Y-108500000D03*
X156000000Y-108500000D03*
X155000000Y-108500000D03*
X154000000Y-108500000D03*
%TD*%
D19*
%TO.P,0402|1005,1*%
%TO.N,N/C*%
X28280000Y-88350000D03*
%TO.P,0402|1005,2*%
X29240000Y-88350000D03*
%TD*%
D20*
%TO.P,2mm,1*%
%TO.N,N/C*%
X67100000Y-90000000D03*
%TD*%
D11*
%TO.P,REF\u002A\u002A7,*%
%TO.N,*%
X228000000Y-107750000D03*
D12*
%TO.P,REF\u002A\u002A7,1*%
%TO.N,N/C*%
X233000000Y-107200000D03*
D13*
X232000000Y-108500000D03*
X231000000Y-108500000D03*
X230000000Y-108500000D03*
X229000000Y-108500000D03*
D14*
X228000000Y-109000000D03*
D13*
X227000000Y-108500000D03*
X226000000Y-108500000D03*
X225000000Y-108500000D03*
X224000000Y-108500000D03*
%TD*%
D21*
%TO.P,1.5mm,1*%
%TO.N,N/C*%
X67100000Y-87250000D03*
%TD*%
D15*
%TO.P,REF\u002A\u002A13,*%
%TO.N,*%
X158000000Y-80250000D03*
D16*
%TO.P,REF\u002A\u002A13,1*%
%TO.N,N/C*%
X153000000Y-80800000D03*
D13*
X154000000Y-79500000D03*
X155000000Y-79500000D03*
X156000000Y-79500000D03*
X157000000Y-79500000D03*
D17*
X158000000Y-79000000D03*
D13*
X159000000Y-79500000D03*
X160000000Y-79500000D03*
X161000000Y-79500000D03*
X162000000Y-79500000D03*
%TD*%
D15*
%TO.P,REF\u002A\u002A14,*%
%TO.N,*%
X168000000Y-80250000D03*
D16*
%TO.P,REF\u002A\u002A14,1*%
%TO.N,N/C*%
X163000000Y-80800000D03*
D13*
X164000000Y-79500000D03*
X165000000Y-79500000D03*
X166000000Y-79500000D03*
X167000000Y-79500000D03*
D17*
X168000000Y-79000000D03*
D13*
X169000000Y-79500000D03*
X170000000Y-79500000D03*
X171000000Y-79500000D03*
X172000000Y-79500000D03*
%TD*%
D15*
%TO.P,REF\u002A\u002A4,*%
%TO.N,*%
X68000000Y-80250000D03*
D16*
%TO.P,REF\u002A\u002A4,1*%
%TO.N,N/C*%
X63000000Y-80800000D03*
D13*
X64000000Y-79500000D03*
X65000000Y-79500000D03*
X66000000Y-79500000D03*
X67000000Y-79500000D03*
D17*
X68000000Y-79000000D03*
D13*
X69000000Y-79500000D03*
X70000000Y-79500000D03*
X71000000Y-79500000D03*
X72000000Y-79500000D03*
%TD*%
D15*
%TO.P,REF\u002A\u002A2,*%
%TO.N,*%
X48000000Y-80250000D03*
D16*
%TO.P,REF\u002A\u002A2,1*%
%TO.N,N/C*%
X43000000Y-80800000D03*
D13*
X44000000Y-79500000D03*
X45000000Y-79500000D03*
X46000000Y-79500000D03*
X47000000Y-79500000D03*
D17*
X48000000Y-79000000D03*
D13*
X49000000Y-79500000D03*
X50000000Y-79500000D03*
X51000000Y-79500000D03*
X52000000Y-79500000D03*
%TD*%
D22*
%TO.P,2010|5025,1*%
%TO.N,N/C*%
X28720000Y-102350000D03*
%TO.P,2010|5025,2*%
X33345000Y-102350000D03*
%TD*%
D15*
%TO.P,REF\u002A\u002A1,*%
%TO.N,*%
X38000000Y-80250000D03*
D16*
%TO.P,REF\u002A\u002A1,1*%
%TO.N,N/C*%
X33000000Y-80800000D03*
D13*
X34000000Y-79500000D03*
X35000000Y-79500000D03*
X36000000Y-79500000D03*
X37000000Y-79500000D03*
D17*
X38000000Y-79000000D03*
D13*
X39000000Y-79500000D03*
X40000000Y-79500000D03*
X41000000Y-79500000D03*
X42000000Y-79500000D03*
%TD*%
D23*
%TO.P,REF\u002A\u002A,*%
%TO.N,*%
X203000000Y-101250000D03*
%TD*%
D24*
%TO.P,M6,1*%
%TO.N,N/C*%
X94400000Y-94700000D03*
%TD*%
D11*
%TO.P,REF\u002A\u002A10,*%
%TO.N,*%
X198000000Y-107750000D03*
D12*
%TO.P,REF\u002A\u002A10,1*%
%TO.N,N/C*%
X203000000Y-107200000D03*
D13*
X202000000Y-108500000D03*
X201000000Y-108500000D03*
X200000000Y-108500000D03*
X199000000Y-108500000D03*
D14*
X198000000Y-109000000D03*
D13*
X197000000Y-108500000D03*
X196000000Y-108500000D03*
X195000000Y-108500000D03*
X194000000Y-108500000D03*
%TD*%
D25*
%TO.P,REF\u002A\u002A,*%
%TO.N,*%
X206500000Y-101500000D03*
%TD*%
D19*
%TO.P,REF\u002A\u002A,1*%
%TO.N,N/C*%
X30452500Y-88350000D03*
%TO.P,REF\u002A\u002A,2*%
X31412500Y-88350000D03*
%TD*%
D11*
%TO.P,REF\u002A\u002A22,*%
%TO.N,*%
X78000000Y-107750000D03*
D12*
%TO.P,REF\u002A\u002A22,1*%
%TO.N,N/C*%
X83000000Y-107200000D03*
D13*
X82000000Y-108500000D03*
X81000000Y-108500000D03*
X80000000Y-108500000D03*
X79000000Y-108500000D03*
D14*
X78000000Y-109000000D03*
D13*
X77000000Y-108500000D03*
X76000000Y-108500000D03*
X75000000Y-108500000D03*
X74000000Y-108500000D03*
%TD*%
D26*
%TO.P,SOD-123,1*%
%TO.N,N/C*%
X148850000Y-98000000D03*
%TO.P,SOD-123,2*%
X152150000Y-98000000D03*
%TD*%
D15*
%TO.P,REF\u002A\u002A7,*%
%TO.N,*%
X98000000Y-80250000D03*
D16*
%TO.P,REF\u002A\u002A7,1*%
%TO.N,N/C*%
X93000000Y-80800000D03*
D13*
X94000000Y-79500000D03*
X95000000Y-79500000D03*
X96000000Y-79500000D03*
X97000000Y-79500000D03*
D17*
X98000000Y-79000000D03*
D13*
X99000000Y-79500000D03*
X100000000Y-79500000D03*
X101000000Y-79500000D03*
X102000000Y-79500000D03*
%TD*%
D27*
%TO.P,SOD-128,1*%
%TO.N,N/C*%
X148300000Y-101500000D03*
%TO.P,SOD-128,2*%
X152700000Y-101500000D03*
%TD*%
D11*
%TO.P,REF\u002A\u002A9,*%
%TO.N,*%
X208000000Y-107750000D03*
D12*
%TO.P,REF\u002A\u002A9,1*%
%TO.N,N/C*%
X213000000Y-107200000D03*
D13*
X212000000Y-108500000D03*
X211000000Y-108500000D03*
X210000000Y-108500000D03*
X209000000Y-108500000D03*
D14*
X208000000Y-109000000D03*
D13*
X207000000Y-108500000D03*
X206000000Y-108500000D03*
X205000000Y-108500000D03*
X204000000Y-108500000D03*
%TD*%
D28*
%TO.P,REF\u002A\u002A,1*%
%TO.N,N/C*%
X209650000Y-90850000D03*
%TO.P,REF\u002A\u002A,2*%
X208350000Y-90850000D03*
%TO.P,REF\u002A\u002A,3*%
X207050000Y-90850000D03*
%TD*%
D29*
%TO.P,TSSOP,1*%
%TO.N,N/C*%
X55725000Y-92612500D03*
%TO.P,TSSOP,2*%
X56375000Y-92612500D03*
%TO.P,TSSOP,3*%
X57025000Y-92612500D03*
%TO.P,TSSOP,4*%
X57675000Y-92612500D03*
%TO.P,TSSOP,5*%
X58325000Y-92612500D03*
%TO.P,TSSOP,6*%
X58975000Y-92612500D03*
%TO.P,TSSOP,7*%
X59625000Y-92612500D03*
%TO.P,TSSOP,8*%
X60275000Y-92612500D03*
%TO.P,TSSOP,9*%
X60275000Y-86887500D03*
%TO.P,TSSOP,10*%
X59625000Y-86887500D03*
%TO.P,TSSOP,11*%
X58975000Y-86887500D03*
%TO.P,TSSOP,12*%
X58325000Y-86887500D03*
%TO.P,TSSOP,13*%
X57675000Y-86887500D03*
%TO.P,TSSOP,14*%
X57025000Y-86887500D03*
%TO.P,TSSOP,15*%
X56375000Y-86887500D03*
%TO.P,TSSOP,16*%
X55725000Y-86887500D03*
%TD*%
D15*
%TO.P,REF\u002A\u002A9,*%
%TO.N,*%
X118000000Y-80250000D03*
D16*
%TO.P,REF\u002A\u002A9,1*%
%TO.N,N/C*%
X113000000Y-80800000D03*
D13*
X114000000Y-79500000D03*
X115000000Y-79500000D03*
X116000000Y-79500000D03*
X117000000Y-79500000D03*
D17*
X118000000Y-79000000D03*
D13*
X119000000Y-79500000D03*
X120000000Y-79500000D03*
X121000000Y-79500000D03*
X122000000Y-79500000D03*
%TD*%
D30*
%TO.P,SOD-523,1*%
%TO.N,N/C*%
X149800000Y-89750000D03*
%TO.P,SOD-523,2*%
X151200000Y-89750000D03*
%TD*%
D31*
%TO.P,REF\u002A\u002A,1*%
%TO.N,N/C*%
X261200000Y-91500000D03*
D32*
X263025000Y-91500000D03*
D33*
X264750000Y-91500000D03*
%TO.P,REF\u002A\u002A,2*%
X251300000Y-88960000D03*
D32*
X253050000Y-88960000D03*
D31*
X254850000Y-88960000D03*
%TD*%
D11*
%TO.P,REF\u002A\u002A8,*%
%TO.N,*%
X218000000Y-107750000D03*
D12*
%TO.P,REF\u002A\u002A8,1*%
%TO.N,N/C*%
X223000000Y-107200000D03*
D13*
X222000000Y-108500000D03*
X221000000Y-108500000D03*
X220000000Y-108500000D03*
X219000000Y-108500000D03*
D14*
X218000000Y-109000000D03*
D13*
X217000000Y-108500000D03*
X216000000Y-108500000D03*
X215000000Y-108500000D03*
X214000000Y-108500000D03*
%TD*%
D15*
%TO.P,REF\u002A\u002A11,*%
%TO.N,*%
X138000000Y-80250000D03*
D16*
%TO.P,REF\u002A\u002A11,1*%
%TO.N,N/C*%
X133000000Y-80800000D03*
D13*
X134000000Y-79500000D03*
X135000000Y-79500000D03*
X136000000Y-79500000D03*
X137000000Y-79500000D03*
D17*
X138000000Y-79000000D03*
D13*
X139000000Y-79500000D03*
X140000000Y-79500000D03*
X141000000Y-79500000D03*
X142000000Y-79500000D03*
%TD*%
D34*
%TO.P,SOT-89,1*%
%TO.N,N/C*%
X165850000Y-90000000D03*
D35*
%TO.P,SOT-89,2*%
X165937500Y-91500000D03*
D34*
%TO.P,SOT-89,3*%
X165850000Y-93000000D03*
%TD*%
D36*
%TO.P,D2PAK,1*%
%TO.N,N/C*%
X182135000Y-100075000D03*
D37*
%TO.P,D2PAK,2*%
X181900000Y-93350000D03*
X187450000Y-93350000D03*
D38*
X184675000Y-90925000D03*
D37*
X181900000Y-88500000D03*
X187450000Y-88500000D03*
D36*
%TO.P,D2PAK,3*%
X187215000Y-100075000D03*
%TD*%
D15*
%TO.P,REF\u002A\u002A27,*%
%TO.N,*%
X308000000Y-80250000D03*
D16*
%TO.P,REF\u002A\u002A27,1*%
%TO.N,N/C*%
X303000000Y-80800000D03*
D13*
X304000000Y-79500000D03*
X305000000Y-79500000D03*
X306000000Y-79500000D03*
X307000000Y-79500000D03*
D17*
X308000000Y-79000000D03*
D13*
X309000000Y-79500000D03*
X310000000Y-79500000D03*
X311000000Y-79500000D03*
X312000000Y-79500000D03*
%TD*%
D39*
%TO.P,M2.5,1*%
%TO.N,N/C*%
X135450000Y-93050000D03*
%TD*%
D40*
%TO.P,SOD-323,1*%
%TO.N,N/C*%
X149450000Y-92250000D03*
%TO.P,SOD-323,2*%
X151550000Y-92250000D03*
%TD*%
D11*
%TO.P,REF\u002A\u002A13,*%
%TO.N,*%
X168000000Y-107750000D03*
D12*
%TO.P,REF\u002A\u002A13,1*%
%TO.N,N/C*%
X173000000Y-107200000D03*
D13*
X172000000Y-108500000D03*
X171000000Y-108500000D03*
X170000000Y-108500000D03*
X169000000Y-108500000D03*
D14*
X168000000Y-109000000D03*
D13*
X167000000Y-108500000D03*
X166000000Y-108500000D03*
X165000000Y-108500000D03*
X164000000Y-108500000D03*
%TD*%
D28*
%TO.P,REF\u002A\u002A,1*%
%TO.N,N/C*%
X203650000Y-86900000D03*
%TO.P,REF\u002A\u002A,2*%
X204950000Y-86900000D03*
%TD*%
D15*
%TO.P,REF\u002A\u002A19,*%
%TO.N,*%
X218000000Y-80250000D03*
D16*
%TO.P,REF\u002A\u002A19,1*%
%TO.N,N/C*%
X213000000Y-80800000D03*
D13*
X214000000Y-79500000D03*
X215000000Y-79500000D03*
X216000000Y-79500000D03*
X217000000Y-79500000D03*
D17*
X218000000Y-79000000D03*
D13*
X219000000Y-79500000D03*
X220000000Y-79500000D03*
X221000000Y-79500000D03*
X222000000Y-79500000D03*
%TD*%
D41*
%TO.P,0201|0603,1*%
%TO.N,N/C*%
X28240000Y-86350000D03*
%TO.P,0201|0603,2*%
X28880000Y-86350000D03*
%TD*%
D42*
%TO.P,SSOP,1*%
%TO.N,N/C*%
X49225000Y-92412500D03*
%TO.P,SSOP,2*%
X49875000Y-92412500D03*
%TO.P,SSOP,3*%
X50525000Y-92412500D03*
%TO.P,SSOP,4*%
X51175000Y-92412500D03*
%TO.P,SSOP,5*%
X51825000Y-92412500D03*
%TO.P,SSOP,6*%
X52475000Y-92412500D03*
%TO.P,SSOP,7*%
X53125000Y-92412500D03*
%TO.P,SSOP,8*%
X53775000Y-92412500D03*
%TO.P,SSOP,9*%
X53775000Y-85587500D03*
%TO.P,SSOP,10*%
X53125000Y-85587500D03*
%TO.P,SSOP,11*%
X52475000Y-85587500D03*
%TO.P,SSOP,12*%
X51825000Y-85587500D03*
%TO.P,SSOP,13*%
X51175000Y-85587500D03*
%TO.P,SSOP,14*%
X50525000Y-85587500D03*
%TO.P,SSOP,15*%
X49875000Y-85587500D03*
%TO.P,SSOP,16*%
X49225000Y-85587500D03*
%TD*%
D43*
%TO.P,QFP,1*%
%TO.N,N/C*%
X49325000Y-96750000D03*
%TO.P,QFP,2*%
X49325000Y-97250000D03*
%TO.P,QFP,3*%
X49325000Y-97750000D03*
%TO.P,QFP,4*%
X49325000Y-98250000D03*
%TO.P,QFP,5*%
X49325000Y-98750000D03*
%TO.P,QFP,6*%
X49325000Y-99250000D03*
%TO.P,QFP,7*%
X49325000Y-99750000D03*
%TO.P,QFP,8*%
X49325000Y-100250000D03*
D44*
%TO.P,QFP,9*%
X50750000Y-101675000D03*
%TO.P,QFP,10*%
X51250000Y-101675000D03*
%TO.P,QFP,11*%
X51750000Y-101675000D03*
%TO.P,QFP,12*%
X52250000Y-101675000D03*
%TO.P,QFP,13*%
X52750000Y-101675000D03*
%TO.P,QFP,14*%
X53250000Y-101675000D03*
%TO.P,QFP,15*%
X53750000Y-101675000D03*
%TO.P,QFP,16*%
X54250000Y-101675000D03*
D43*
%TO.P,QFP,17*%
X55675000Y-100250000D03*
%TO.P,QFP,18*%
X55675000Y-99750000D03*
%TO.P,QFP,19*%
X55675000Y-99250000D03*
%TO.P,QFP,20*%
X55675000Y-98750000D03*
%TO.P,QFP,21*%
X55675000Y-98250000D03*
%TO.P,QFP,22*%
X55675000Y-97750000D03*
%TO.P,QFP,23*%
X55675000Y-97250000D03*
%TO.P,QFP,24*%
X55675000Y-96750000D03*
D44*
%TO.P,QFP,25*%
X54250000Y-95325000D03*
%TO.P,QFP,26*%
X53750000Y-95325000D03*
%TO.P,QFP,27*%
X53250000Y-95325000D03*
%TO.P,QFP,28*%
X52750000Y-95325000D03*
%TO.P,QFP,29*%
X52250000Y-95325000D03*
%TO.P,QFP,30*%
X51750000Y-95325000D03*
%TO.P,QFP,31*%
X51250000Y-95325000D03*
%TO.P,QFP,32*%
X50750000Y-95325000D03*
%TD*%
D11*
%TO.P,REF\u002A\u002A16,*%
%TO.N,*%
X138000000Y-107750000D03*
D12*
%TO.P,REF\u002A\u002A16,1*%
%TO.N,N/C*%
X143000000Y-107200000D03*
D13*
X142000000Y-108500000D03*
X141000000Y-108500000D03*
X140000000Y-108500000D03*
X139000000Y-108500000D03*
D14*
X138000000Y-109000000D03*
D13*
X137000000Y-108500000D03*
X136000000Y-108500000D03*
X135000000Y-108500000D03*
X134000000Y-108500000D03*
%TD*%
D45*
%TO.P,3mm,1*%
%TO.N,N/C*%
X67100000Y-97000000D03*
%TD*%
D46*
%TO.P,1206|3216,1*%
%TO.N,N/C*%
X28675000Y-95750000D03*
%TO.P,1206|3216,2*%
X31625000Y-95750000D03*
%TD*%
D11*
%TO.P,REF\u002A\u002A15,*%
%TO.N,*%
X148000000Y-107750000D03*
D12*
%TO.P,REF\u002A\u002A15,1*%
%TO.N,N/C*%
X153000000Y-107200000D03*
D13*
X152000000Y-108500000D03*
X151000000Y-108500000D03*
X150000000Y-108500000D03*
X149000000Y-108500000D03*
D14*
X148000000Y-109000000D03*
D13*
X147000000Y-108500000D03*
X146000000Y-108500000D03*
X145000000Y-108500000D03*
X144000000Y-108500000D03*
%TD*%
D28*
%TO.P,REF\u002A\u002A,1*%
%TO.N,N/C*%
X203650000Y-90850000D03*
%TO.P,REF\u002A\u002A,2*%
X204950000Y-90850000D03*
%TD*%
D31*
%TO.P,REF\u002A\u002A,1*%
%TO.N,N/C*%
X242725000Y-97775000D03*
D47*
X244275000Y-97775000D03*
D48*
X245970000Y-97775000D03*
%TO.P,REF\u002A\u002A,2*%
X234480000Y-99975000D03*
D47*
X236175000Y-99975000D03*
D31*
X237725000Y-99975000D03*
D49*
%TO.P,REF\u002A\u002A,MP*%
X232725000Y-88875000D03*
%TD*%
D50*
%TO.P,REF\u002A\u002A,*%
%TO.N,*%
X195000000Y-100250000D03*
%TD*%
D51*
%TO.P,REF\u002A\u002A,1*%
%TO.N,N/C*%
X211775000Y-94500000D03*
D52*
%TO.P,REF\u002A\u002A,2*%
X213225000Y-94500000D03*
%TD*%
D11*
%TO.P,REF\u002A\u002A19,*%
%TO.N,*%
X108000000Y-107750000D03*
D12*
%TO.P,REF\u002A\u002A19,1*%
%TO.N,N/C*%
X113000000Y-107200000D03*
D13*
X112000000Y-108500000D03*
X111000000Y-108500000D03*
X110000000Y-108500000D03*
X109000000Y-108500000D03*
D14*
X108000000Y-109000000D03*
D13*
X107000000Y-108500000D03*
X106000000Y-108500000D03*
X105000000Y-108500000D03*
X104000000Y-108500000D03*
%TD*%
D15*
%TO.P,REF\u002A\u002A20,*%
%TO.N,*%
X228000000Y-80250000D03*
D16*
%TO.P,REF\u002A\u002A20,1*%
%TO.N,N/C*%
X223000000Y-80800000D03*
D13*
X224000000Y-79500000D03*
X225000000Y-79500000D03*
X226000000Y-79500000D03*
X227000000Y-79500000D03*
D17*
X228000000Y-79000000D03*
D13*
X229000000Y-79500000D03*
X230000000Y-79500000D03*
X231000000Y-79500000D03*
X232000000Y-79500000D03*
%TD*%
D53*
%TO.P,M4,1*%
%TO.N,N/C*%
X119450000Y-93600000D03*
%TD*%
D15*
%TO.P,REF\u002A\u002A15,*%
%TO.N,*%
X178000000Y-80250000D03*
D16*
%TO.P,REF\u002A\u002A15,1*%
%TO.N,N/C*%
X173000000Y-80800000D03*
D13*
X174000000Y-79500000D03*
X175000000Y-79500000D03*
X176000000Y-79500000D03*
X177000000Y-79500000D03*
D17*
X178000000Y-79000000D03*
D13*
X179000000Y-79500000D03*
X180000000Y-79500000D03*
X181000000Y-79500000D03*
X182000000Y-79500000D03*
%TD*%
D54*
%TO.P,REF\u002A\u002A,1*%
%TO.N,N/C*%
X225170000Y-93700000D03*
%TO.P,REF\u002A\u002A,2*%
X225170000Y-94800000D03*
%TO.P,REF\u002A\u002A,3*%
X227000000Y-94800000D03*
%TO.P,REF\u002A\u002A,4*%
X227000000Y-93700000D03*
%TD*%
D55*
%TO.P,SOD-923,1*%
%TO.N,N/C*%
X150080000Y-85250000D03*
%TO.P,SOD-923,2*%
X150920000Y-85250000D03*
%TD*%
D11*
%TO.P,REF\u002A\u002A17,*%
%TO.N,*%
X128000000Y-107750000D03*
D12*
%TO.P,REF\u002A\u002A17,1*%
%TO.N,N/C*%
X133000000Y-107200000D03*
D13*
X132000000Y-108500000D03*
X131000000Y-108500000D03*
X130000000Y-108500000D03*
X129000000Y-108500000D03*
D14*
X128000000Y-109000000D03*
D13*
X127000000Y-108500000D03*
X126000000Y-108500000D03*
X125000000Y-108500000D03*
X124000000Y-108500000D03*
%TD*%
D15*
%TO.P,REF\u002A\u002A17,*%
%TO.N,*%
X198000000Y-80250000D03*
D16*
%TO.P,REF\u002A\u002A17,1*%
%TO.N,N/C*%
X193000000Y-80800000D03*
D13*
X194000000Y-79500000D03*
X195000000Y-79500000D03*
X196000000Y-79500000D03*
X197000000Y-79500000D03*
D17*
X198000000Y-79000000D03*
D13*
X199000000Y-79500000D03*
X200000000Y-79500000D03*
X201000000Y-79500000D03*
X202000000Y-79500000D03*
%TD*%
D15*
%TO.P,REF\u002A\u002A5,*%
%TO.N,*%
X78000000Y-80250000D03*
D16*
%TO.P,REF\u002A\u002A5,1*%
%TO.N,N/C*%
X73000000Y-80800000D03*
D13*
X74000000Y-79500000D03*
X75000000Y-79500000D03*
X76000000Y-79500000D03*
X77000000Y-79500000D03*
D17*
X78000000Y-79000000D03*
D13*
X79000000Y-79500000D03*
X80000000Y-79500000D03*
X81000000Y-79500000D03*
X82000000Y-79500000D03*
%TD*%
D15*
%TO.P,REF\u002A\u002A,*%
%TO.N,*%
X18000000Y-80250000D03*
D16*
%TO.P,REF\u002A\u002A,1*%
%TO.N,N/C*%
X13000000Y-80800000D03*
D13*
X14000000Y-79500000D03*
X15000000Y-79500000D03*
X16000000Y-79500000D03*
X17000000Y-79500000D03*
D17*
X18000000Y-79000000D03*
D13*
X19000000Y-79500000D03*
X20000000Y-79500000D03*
X21000000Y-79500000D03*
X22000000Y-79500000D03*
%TD*%
D15*
%TO.P,REF\u002A\u002A12,*%
%TO.N,*%
X148000000Y-80250000D03*
D16*
%TO.P,REF\u002A\u002A12,1*%
%TO.N,N/C*%
X143000000Y-80800000D03*
D13*
X144000000Y-79500000D03*
X145000000Y-79500000D03*
X146000000Y-79500000D03*
X147000000Y-79500000D03*
D17*
X148000000Y-79000000D03*
D13*
X149000000Y-79500000D03*
X150000000Y-79500000D03*
X151000000Y-79500000D03*
X152000000Y-79500000D03*
%TD*%
D15*
%TO.P,REF\u002A\u002A27,*%
%TO.N,*%
X298000000Y-80250000D03*
D16*
%TO.P,REF\u002A\u002A27,1*%
%TO.N,N/C*%
X293000000Y-80800000D03*
D13*
X294000000Y-79500000D03*
X295000000Y-79500000D03*
X296000000Y-79500000D03*
X297000000Y-79500000D03*
D17*
X298000000Y-79000000D03*
D13*
X299000000Y-79500000D03*
X300000000Y-79500000D03*
X301000000Y-79500000D03*
X302000000Y-79500000D03*
%TD*%
D15*
%TO.P,REF\u002A\u002A25,*%
%TO.N,*%
X278000000Y-80250000D03*
D16*
%TO.P,REF\u002A\u002A25,1*%
%TO.N,N/C*%
X273000000Y-80800000D03*
D13*
X274000000Y-79500000D03*
X275000000Y-79500000D03*
X276000000Y-79500000D03*
X277000000Y-79500000D03*
D17*
X278000000Y-79000000D03*
D13*
X279000000Y-79500000D03*
X280000000Y-79500000D03*
X281000000Y-79500000D03*
X282000000Y-79500000D03*
%TD*%
D11*
%TO.P,REF\u002A\u002A1,*%
%TO.N,*%
X288000000Y-107750000D03*
D12*
%TO.P,REF\u002A\u002A1,1*%
%TO.N,N/C*%
X293000000Y-107200000D03*
D13*
X292000000Y-108500000D03*
X291000000Y-108500000D03*
X290000000Y-108500000D03*
X289000000Y-108500000D03*
D14*
X288000000Y-109000000D03*
D13*
X287000000Y-108500000D03*
X286000000Y-108500000D03*
X285000000Y-108500000D03*
X284000000Y-108500000D03*
%TD*%
D11*
%TO.P,REF\u002A\u002A12,*%
%TO.N,*%
X178000000Y-107750000D03*
D12*
%TO.P,REF\u002A\u002A12,1*%
%TO.N,N/C*%
X183000000Y-107200000D03*
D13*
X182000000Y-108500000D03*
X181000000Y-108500000D03*
X180000000Y-108500000D03*
X179000000Y-108500000D03*
D14*
X178000000Y-109000000D03*
D13*
X177000000Y-108500000D03*
X176000000Y-108500000D03*
X175000000Y-108500000D03*
X174000000Y-108500000D03*
%TD*%
D15*
%TO.P,REF\u002A\u002A3,*%
%TO.N,*%
X58000000Y-80250000D03*
D16*
%TO.P,REF\u002A\u002A3,1*%
%TO.N,N/C*%
X53000000Y-80800000D03*
D13*
X54000000Y-79500000D03*
X55000000Y-79500000D03*
X56000000Y-79500000D03*
X57000000Y-79500000D03*
D17*
X58000000Y-79000000D03*
D13*
X59000000Y-79500000D03*
X60000000Y-79500000D03*
X61000000Y-79500000D03*
X62000000Y-79500000D03*
%TD*%
D15*
%TO.P,REF\u002A\u002A6,*%
%TO.N,*%
X88000000Y-80250000D03*
D16*
%TO.P,REF\u002A\u002A6,1*%
%TO.N,N/C*%
X83000000Y-80800000D03*
D13*
X84000000Y-79500000D03*
X85000000Y-79500000D03*
X86000000Y-79500000D03*
X87000000Y-79500000D03*
D17*
X88000000Y-79000000D03*
D13*
X89000000Y-79500000D03*
X90000000Y-79500000D03*
X91000000Y-79500000D03*
X92000000Y-79500000D03*
%TD*%
D56*
%TO.P,SOD-822,1*%
%TO.N,N/C*%
X150150000Y-87500000D03*
%TO.P,SOD-822,2*%
X150850000Y-87500000D03*
%TD*%
D57*
%TO.P,SOT-223,1*%
%TO.N,N/C*%
X166250000Y-96300000D03*
%TO.P,SOT-223,2*%
X166250000Y-98600000D03*
%TO.P,SOT-223,3*%
X166250000Y-100900000D03*
D58*
%TO.P,SOT-223,4*%
X172550000Y-98600000D03*
%TD*%
D41*
%TO.P,REF\u002A\u002A,1*%
%TO.N,N/C*%
X33567500Y-86350000D03*
%TO.P,REF\u002A\u002A,2*%
X34207500Y-86350000D03*
%TD*%
D59*
%TO.P,1210|3225,1*%
%TO.N,N/C*%
X28675000Y-98850000D03*
%TO.P,1210|3225,2*%
X31625000Y-98850000D03*
%TD*%
D15*
%TO.P,REF\u002A\u002A22,*%
%TO.N,*%
X248000000Y-80250000D03*
D16*
%TO.P,REF\u002A\u002A22,1*%
%TO.N,N/C*%
X243000000Y-80800000D03*
D13*
X244000000Y-79500000D03*
X245000000Y-79500000D03*
X246000000Y-79500000D03*
X247000000Y-79500000D03*
D17*
X248000000Y-79000000D03*
D13*
X249000000Y-79500000D03*
X250000000Y-79500000D03*
X251000000Y-79500000D03*
X252000000Y-79500000D03*
%TD*%
D60*
%TO.P,M5,1*%
%TO.N,N/C*%
X108450000Y-93900000D03*
%TD*%
D11*
%TO.P,REF\u002A\u002A2,*%
%TO.N,*%
X278000000Y-107750000D03*
D12*
%TO.P,REF\u002A\u002A2,1*%
%TO.N,N/C*%
X283000000Y-107200000D03*
D13*
X282000000Y-108500000D03*
X281000000Y-108500000D03*
X280000000Y-108500000D03*
X279000000Y-108500000D03*
D14*
X278000000Y-109000000D03*
D13*
X277000000Y-108500000D03*
X276000000Y-108500000D03*
X275000000Y-108500000D03*
X274000000Y-108500000D03*
%TD*%
D28*
%TO.P,REF\u002A\u002A,1*%
%TO.N,N/C*%
X209650000Y-94500000D03*
%TO.P,REF\u002A\u002A,2*%
X208350000Y-94500000D03*
%TO.P,REF\u002A\u002A,3*%
X207050000Y-94500000D03*
%TD*%
D15*
%TO.P,REF\u002A\u002A26,*%
%TO.N,*%
X288000000Y-80250000D03*
D16*
%TO.P,REF\u002A\u002A26,1*%
%TO.N,N/C*%
X283000000Y-80800000D03*
D13*
X284000000Y-79500000D03*
X285000000Y-79500000D03*
X286000000Y-79500000D03*
X287000000Y-79500000D03*
D17*
X288000000Y-79000000D03*
D13*
X289000000Y-79500000D03*
X290000000Y-79500000D03*
X291000000Y-79500000D03*
X292000000Y-79500000D03*
%TD*%
D19*
%TO.P,REF\u002A\u002A,1*%
%TO.N,N/C*%
X32652500Y-88350000D03*
%TO.P,REF\u002A\u002A,2*%
X33612500Y-88350000D03*
%TD*%
D11*
%TO.P,REF\u002A\u002A5,*%
%TO.N,*%
X248000000Y-107750000D03*
D12*
%TO.P,REF\u002A\u002A5,1*%
%TO.N,N/C*%
X253000000Y-107200000D03*
D13*
X252000000Y-108500000D03*
X251000000Y-108500000D03*
X250000000Y-108500000D03*
X249000000Y-108500000D03*
D14*
X248000000Y-109000000D03*
D13*
X247000000Y-108500000D03*
X246000000Y-108500000D03*
X245000000Y-108500000D03*
X244000000Y-108500000D03*
%TD*%
D11*
%TO.P,REF\u002A\u002A23,*%
%TO.N,*%
X68000000Y-107750000D03*
D12*
%TO.P,REF\u002A\u002A23,1*%
%TO.N,N/C*%
X73000000Y-107200000D03*
D13*
X72000000Y-108500000D03*
X71000000Y-108500000D03*
X70000000Y-108500000D03*
X69000000Y-108500000D03*
D14*
X68000000Y-109000000D03*
D13*
X67000000Y-108500000D03*
X66000000Y-108500000D03*
X65000000Y-108500000D03*
X64000000Y-108500000D03*
%TD*%
D15*
%TO.P,REF\u002A\u002A24,*%
%TO.N,*%
X268000000Y-80250000D03*
D16*
%TO.P,REF\u002A\u002A24,1*%
%TO.N,N/C*%
X263000000Y-80800000D03*
D13*
X264000000Y-79500000D03*
X265000000Y-79500000D03*
X266000000Y-79500000D03*
X267000000Y-79500000D03*
D17*
X268000000Y-79000000D03*
D13*
X269000000Y-79500000D03*
X270000000Y-79500000D03*
X271000000Y-79500000D03*
X272000000Y-79500000D03*
%TD*%
D15*
%TO.P,REF\u002A\u002A16,*%
%TO.N,*%
X188000000Y-80250000D03*
D16*
%TO.P,REF\u002A\u002A16,1*%
%TO.N,N/C*%
X183000000Y-80800000D03*
D13*
X184000000Y-79500000D03*
X185000000Y-79500000D03*
X186000000Y-79500000D03*
X187000000Y-79500000D03*
D17*
X188000000Y-79000000D03*
D13*
X189000000Y-79500000D03*
X190000000Y-79500000D03*
X191000000Y-79500000D03*
X192000000Y-79500000D03*
%TD*%
D61*
%TO.P,DPAK,1*%
%TO.N,N/C*%
X192245000Y-95740000D03*
D62*
%TO.P,DPAK,2*%
X193000000Y-91115000D03*
X196050000Y-91115000D03*
D63*
X194525000Y-89440000D03*
D62*
X193000000Y-87765000D03*
X196050000Y-87765000D03*
D61*
%TO.P,DPAK,3*%
X196805000Y-95740000D03*
%TD*%
D15*
%TO.P,REF\u002A\u002A,*%
%TO.N,*%
X28000000Y-80250000D03*
D16*
%TO.P,REF\u002A\u002A,1*%
%TO.N,N/C*%
X23000000Y-80800000D03*
D13*
X24000000Y-79500000D03*
X25000000Y-79500000D03*
X26000000Y-79500000D03*
X27000000Y-79500000D03*
D17*
X28000000Y-79000000D03*
D13*
X29000000Y-79500000D03*
X30000000Y-79500000D03*
X31000000Y-79500000D03*
X32000000Y-79500000D03*
%TD*%
D64*
%TO.P,0603|1608,1*%
%TO.N,N/C*%
X28550000Y-90750000D03*
%TO.P,0603|1608,2*%
X30100000Y-90750000D03*
%TD*%
D65*
%TO.P,SOD-110,1*%
%TO.N,N/C*%
X149550000Y-95000000D03*
%TO.P,SOD-110,2*%
X151450000Y-95000000D03*
%TD*%
D41*
%TO.P,REF\u002A\u002A,1*%
%TO.N,N/C*%
X30012500Y-86350000D03*
%TO.P,REF\u002A\u002A,2*%
X30652500Y-86350000D03*
%TD*%
D11*
%TO.P,REF\u002A\u002A3,*%
%TO.N,*%
X268000000Y-107750000D03*
D12*
%TO.P,REF\u002A\u002A3,1*%
%TO.N,N/C*%
X273000000Y-107200000D03*
D13*
X272000000Y-108500000D03*
X271000000Y-108500000D03*
X270000000Y-108500000D03*
X269000000Y-108500000D03*
D14*
X268000000Y-109000000D03*
D13*
X267000000Y-108500000D03*
X266000000Y-108500000D03*
X265000000Y-108500000D03*
X264000000Y-108500000D03*
%TD*%
D11*
%TO.P,REF\u002A\u002A,*%
%TO.N,*%
X298000000Y-107750000D03*
D12*
%TO.P,REF\u002A\u002A,1*%
%TO.N,N/C*%
X303000000Y-107200000D03*
D13*
X302000000Y-108500000D03*
X301000000Y-108500000D03*
X300000000Y-108500000D03*
X299000000Y-108500000D03*
D14*
X298000000Y-109000000D03*
D13*
X297000000Y-108500000D03*
X296000000Y-108500000D03*
X295000000Y-108500000D03*
X294000000Y-108500000D03*
%TD*%
D11*
%TO.P,REF\u002A\u002A27,*%
%TO.N,*%
X18000000Y-107750000D03*
D12*
%TO.P,REF\u002A\u002A27,1*%
%TO.N,N/C*%
X23000000Y-107200000D03*
D13*
X22000000Y-108500000D03*
X21000000Y-108500000D03*
X20000000Y-108500000D03*
X19000000Y-108500000D03*
D14*
X18000000Y-109000000D03*
D13*
X17000000Y-108500000D03*
X16000000Y-108500000D03*
X15000000Y-108500000D03*
X14000000Y-108500000D03*
%TD*%
D66*
%TO.P,REF\u002A\u002A,1*%
%TO.N,N/C*%
X207500000Y-98000000D03*
D67*
%TO.P,REF\u002A\u002A,2*%
X205500000Y-98000000D03*
D51*
%TO.P,REF\u002A\u002A,3*%
X203500000Y-98000000D03*
%TD*%
D11*
%TO.P,REF\u002A\u002A4,*%
%TO.N,*%
X258000000Y-107750000D03*
D12*
%TO.P,REF\u002A\u002A4,1*%
%TO.N,N/C*%
X263000000Y-107200000D03*
D13*
X262000000Y-108500000D03*
X261000000Y-108500000D03*
X260000000Y-108500000D03*
X259000000Y-108500000D03*
D14*
X258000000Y-109000000D03*
D13*
X257000000Y-108500000D03*
X256000000Y-108500000D03*
X255000000Y-108500000D03*
X254000000Y-108500000D03*
%TD*%
D28*
%TO.P,REF\u002A\u002A,1*%
%TO.N,N/C*%
X203600000Y-94500000D03*
%TO.P,REF\u002A\u002A,2*%
X204900000Y-94500000D03*
%TD*%
D68*
%TO.P,M3,1*%
%TO.N,N/C*%
X128450000Y-93150000D03*
%TD*%
D69*
%TO.P,1mm,1*%
%TO.N,N/C*%
X67100000Y-85000000D03*
%TD*%
D11*
%TO.P,REF\u002A\u002A20,*%
%TO.N,*%
X98000000Y-107750000D03*
D12*
%TO.P,REF\u002A\u002A20,1*%
%TO.N,N/C*%
X103000000Y-107200000D03*
D13*
X102000000Y-108500000D03*
X101000000Y-108500000D03*
X100000000Y-108500000D03*
X99000000Y-108500000D03*
D14*
X98000000Y-109000000D03*
D13*
X97000000Y-108500000D03*
X96000000Y-108500000D03*
X95000000Y-108500000D03*
X94000000Y-108500000D03*
%TD*%
D70*
%TO.P,M2,1*%
%TO.N,N/C*%
X141850000Y-93150000D03*
%TD*%
D28*
%TO.P,REF\u002A\u002A,1*%
%TO.N,N/C*%
X209650000Y-86900000D03*
%TO.P,REF\u002A\u002A,2*%
X208350000Y-86900000D03*
%TO.P,REF\u002A\u002A,3*%
X207050000Y-86900000D03*
%TD*%
D41*
%TO.P,REF\u002A\u002A,1*%
%TO.N,N/C*%
X31832500Y-86350000D03*
%TO.P,REF\u002A\u002A,2*%
X32472500Y-86350000D03*
%TD*%
D71*
%TO.P,0805|2012,1*%
%TO.N,N/C*%
X28600000Y-93250000D03*
%TO.P,0805|2012,2*%
X30500000Y-93250000D03*
%TD*%
D11*
%TO.P,REF\u002A\u002A,*%
%TO.N,*%
X308000000Y-107750000D03*
D12*
%TO.P,REF\u002A\u002A,1*%
%TO.N,N/C*%
X313000000Y-107200000D03*
D13*
X312000000Y-108500000D03*
X311000000Y-108500000D03*
X310000000Y-108500000D03*
X309000000Y-108500000D03*
D14*
X308000000Y-109000000D03*
D13*
X307000000Y-108500000D03*
X306000000Y-108500000D03*
X305000000Y-108500000D03*
X304000000Y-108500000D03*
%TD*%
D11*
%TO.P,REF\u002A\u002A26,*%
%TO.N,*%
X38000000Y-107750000D03*
D12*
%TO.P,REF\u002A\u002A26,1*%
%TO.N,N/C*%
X43000000Y-107200000D03*
D13*
X42000000Y-108500000D03*
X41000000Y-108500000D03*
X40000000Y-108500000D03*
X39000000Y-108500000D03*
D14*
X38000000Y-109000000D03*
D13*
X37000000Y-108500000D03*
X36000000Y-108500000D03*
X35000000Y-108500000D03*
X34000000Y-108500000D03*
%TD*%
D11*
%TO.P,REF\u002A\u002A27,*%
%TO.N,*%
X28000000Y-107750000D03*
D12*
%TO.P,REF\u002A\u002A27,1*%
%TO.N,N/C*%
X33000000Y-107200000D03*
D13*
X32000000Y-108500000D03*
X31000000Y-108500000D03*
X30000000Y-108500000D03*
X29000000Y-108500000D03*
D14*
X28000000Y-109000000D03*
D13*
X27000000Y-108500000D03*
X26000000Y-108500000D03*
X25000000Y-108500000D03*
X24000000Y-108500000D03*
%TD*%
D64*
%TO.P,REF\u002A\u002A,1*%
%TO.N,N/C*%
X31932500Y-90750000D03*
%TO.P,REF\u002A\u002A,2*%
X33482500Y-90750000D03*
%TD*%
D72*
%TO.P,2.5mm,1*%
%TO.N,N/C*%
X67100000Y-93250000D03*
%TD*%
D15*
%TO.P,REF\u002A\u002A10,*%
%TO.N,*%
X128000000Y-80250000D03*
D16*
%TO.P,REF\u002A\u002A10,1*%
%TO.N,N/C*%
X123000000Y-80800000D03*
D13*
X124000000Y-79500000D03*
X125000000Y-79500000D03*
X126000000Y-79500000D03*
X127000000Y-79500000D03*
D17*
X128000000Y-79000000D03*
D13*
X129000000Y-79500000D03*
X130000000Y-79500000D03*
X131000000Y-79500000D03*
X132000000Y-79500000D03*
%TD*%
D73*
%TO.P,QFN,1*%
%TO.N,N/C*%
X58262500Y-96750000D03*
D74*
%TO.P,QFN,2*%
X58262500Y-97400000D03*
%TO.P,QFN,3*%
X58262500Y-98050000D03*
%TO.P,QFN,4*%
X58262500Y-98700000D03*
%TO.P,QFN,5*%
X58262500Y-99350000D03*
D75*
%TO.P,QFN,6*%
X58262500Y-100000000D03*
D76*
%TO.P,QFN,7*%
X59000000Y-100737500D03*
D77*
%TO.P,QFN,8*%
X59650000Y-100737500D03*
%TO.P,QFN,9*%
X60300000Y-100737500D03*
%TO.P,QFN,10*%
X60950000Y-100737500D03*
%TO.P,QFN,11*%
X61600000Y-100737500D03*
D78*
%TO.P,QFN,12*%
X62250000Y-100737500D03*
D79*
%TO.P,QFN,13*%
X62987500Y-100000000D03*
D74*
%TO.P,QFN,14*%
X62987500Y-99350000D03*
%TO.P,QFN,15*%
X62987500Y-98700000D03*
%TO.P,QFN,16*%
X62987500Y-98050000D03*
%TO.P,QFN,17*%
X62987500Y-97400000D03*
D80*
%TO.P,QFN,18*%
X62987500Y-96750000D03*
D81*
%TO.P,QFN,19*%
X62250000Y-96012500D03*
D77*
%TO.P,QFN,20*%
X61600000Y-96012500D03*
%TO.P,QFN,21*%
X60950000Y-96012500D03*
%TO.P,QFN,22*%
X60300000Y-96012500D03*
%TO.P,QFN,23*%
X59650000Y-96012500D03*
D82*
%TO.P,QFN,24*%
X59000000Y-96012500D03*
D83*
%TO.P,QFN,25*%
X60625000Y-98375000D03*
%TD*%
D84*
%TO.P,4mm,1*%
%TO.N,N/C*%
X67100000Y-101500000D03*
%TD*%
D11*
%TO.P,REF\u002A\u002A18,*%
%TO.N,*%
X118000000Y-107750000D03*
D12*
%TO.P,REF\u002A\u002A18,1*%
%TO.N,N/C*%
X123000000Y-107200000D03*
D13*
X122000000Y-108500000D03*
X121000000Y-108500000D03*
X120000000Y-108500000D03*
X119000000Y-108500000D03*
D14*
X118000000Y-109000000D03*
D13*
X117000000Y-108500000D03*
X116000000Y-108500000D03*
X115000000Y-108500000D03*
X114000000Y-108500000D03*
%TD*%
D11*
%TO.P,REF\u002A\u002A11,*%
%TO.N,*%
X188000000Y-107750000D03*
D12*
%TO.P,REF\u002A\u002A11,1*%
%TO.N,N/C*%
X193000000Y-107200000D03*
D13*
X192000000Y-108500000D03*
X191000000Y-108500000D03*
X190000000Y-108500000D03*
X189000000Y-108500000D03*
D14*
X188000000Y-109000000D03*
D13*
X187000000Y-108500000D03*
X186000000Y-108500000D03*
X185000000Y-108500000D03*
X184000000Y-108500000D03*
%TD*%
D15*
%TO.P,REF\u002A\u002A8,*%
%TO.N,*%
X108000000Y-80250000D03*
D16*
%TO.P,REF\u002A\u002A8,1*%
%TO.N,N/C*%
X103000000Y-80800000D03*
D13*
X104000000Y-79500000D03*
X105000000Y-79500000D03*
X106000000Y-79500000D03*
X107000000Y-79500000D03*
D17*
X108000000Y-79000000D03*
D13*
X109000000Y-79500000D03*
X110000000Y-79500000D03*
X111000000Y-79500000D03*
X112000000Y-79500000D03*
%TD*%
D85*
%TO.P,SOT-23,1*%
%TO.N,N/C*%
X165925000Y-85750000D03*
%TO.P,SOT-23,2*%
X165925000Y-87650000D03*
%TO.P,SOT-23,3*%
X167800000Y-86700000D03*
%TD*%
D11*
%TO.P,REF\u002A\u002A24,*%
%TO.N,*%
X58000000Y-107750000D03*
D12*
%TO.P,REF\u002A\u002A24,1*%
%TO.N,N/C*%
X63000000Y-107200000D03*
D13*
X62000000Y-108500000D03*
X61000000Y-108500000D03*
X60000000Y-108500000D03*
X59000000Y-108500000D03*
D14*
X58000000Y-109000000D03*
D13*
X57000000Y-108500000D03*
X56000000Y-108500000D03*
X55000000Y-108500000D03*
X54000000Y-108500000D03*
%TD*%
D86*
%TO.P,REF\u002A\u002A,1*%
%TO.N,N/C*%
X226225000Y-85750000D03*
%TO.P,REF\u002A\u002A,2*%
X226225000Y-87250000D03*
%TO.P,REF\u002A\u002A,3*%
X220775000Y-85750000D03*
D87*
%TO.P,REF\u002A\u002A,4*%
X220775000Y-87250000D03*
%TD*%
D11*
%TO.P,REF\u002A\u002A21,*%
%TO.N,*%
X88000000Y-107750000D03*
D12*
%TO.P,REF\u002A\u002A21,1*%
%TO.N,N/C*%
X93000000Y-107200000D03*
D13*
X92000000Y-108500000D03*
X91000000Y-108500000D03*
X90000000Y-108500000D03*
X89000000Y-108500000D03*
D14*
X88000000Y-109000000D03*
D13*
X87000000Y-108500000D03*
X86000000Y-108500000D03*
X85000000Y-108500000D03*
X84000000Y-108500000D03*
%TD*%
D88*
%TO.P,REF\u002A\u002A,1*%
%TO.N,N/C*%
X223650000Y-90500000D03*
%TO.P,REF\u002A\u002A,2*%
X223650000Y-91600000D03*
%TO.P,REF\u002A\u002A,3*%
X226750000Y-91600000D03*
%TO.P,REF\u002A\u002A,4*%
X226750000Y-90500000D03*
%TD*%
D89*
%TO.P,REF\u002A\u002A,*%
%TO.N,*%
X199500000Y-101000000D03*
%TD*%
%TA.AperFunction,Conductor*%
%TO.N,GND*%
G36*
X25096632Y-92253368D02*
G01*
X25100000Y-92261500D01*
X25100000Y-92538500D01*
X25096632Y-92546632D01*
X25088500Y-92550000D01*
X17111500Y-92550000D01*
X17103368Y-92546632D01*
X17100000Y-92538500D01*
X17100000Y-92261500D01*
X17103368Y-92253368D01*
X17111500Y-92250000D01*
X25088500Y-92250000D01*
X25096632Y-92253368D01*
G37*
%TD.AperFunction*%
%TD*%
%TA.AperFunction,Conductor*%
%TO.N,GND*%
G36*
X25096632Y-100953368D02*
G01*
X25100000Y-100961500D01*
X25100000Y-101838500D01*
X25096632Y-101846632D01*
X25088500Y-101850000D01*
X17111500Y-101850000D01*
X17103368Y-101846632D01*
X17100000Y-101838500D01*
X17100000Y-100961500D01*
X17103368Y-100953368D01*
X17111500Y-100950000D01*
X25088500Y-100950000D01*
X25096632Y-100953368D01*
G37*
%TD.AperFunction*%
%TD*%
%TA.AperFunction,Conductor*%
%TO.N,GND*%
G36*
X25096632Y-102503368D02*
G01*
X25100000Y-102511500D01*
X25100000Y-103488500D01*
X25096632Y-103496632D01*
X25088500Y-103500000D01*
X17111500Y-103500000D01*
X17103368Y-103496632D01*
X17100000Y-103488500D01*
X17100000Y-102511500D01*
X17103368Y-102503368D01*
X17111500Y-102500000D01*
X25088500Y-102500000D01*
X25096632Y-102503368D01*
G37*
%TD.AperFunction*%
%TD*%
%TA.AperFunction,Conductor*%
%TO.N,GND*%
G36*
X25096632Y-95153368D02*
G01*
X25100000Y-95161500D01*
X25100000Y-95638500D01*
X25096632Y-95646632D01*
X25088500Y-95650000D01*
X17111500Y-95650000D01*
X17103368Y-95646632D01*
X17100000Y-95638500D01*
X17100000Y-95161500D01*
X17103368Y-95153368D01*
X17111500Y-95150000D01*
X25088500Y-95150000D01*
X25096632Y-95153368D01*
G37*
%TD.AperFunction*%
%TD*%
%TA.AperFunction,Conductor*%
%TO.N,GND*%
G36*
X25096632Y-90803368D02*
G01*
X25100000Y-90811500D01*
X25100000Y-90988500D01*
X25096632Y-90996632D01*
X25088500Y-91000000D01*
X17111500Y-91000000D01*
X17103368Y-90996632D01*
X17100000Y-90988500D01*
X17100000Y-90811500D01*
X17103368Y-90803368D01*
X17111500Y-90800000D01*
X25088500Y-90800000D01*
X25096632Y-90803368D01*
G37*
%TD.AperFunction*%
%TD*%
%TA.AperFunction,Conductor*%
%TO.N,GND*%
G36*
X25096632Y-98053368D02*
G01*
X25100000Y-98061500D01*
X25100000Y-98738500D01*
X25096632Y-98746632D01*
X25088500Y-98750000D01*
X17111500Y-98750000D01*
X17103368Y-98746632D01*
X17100000Y-98738500D01*
X17100000Y-98061500D01*
X17103368Y-98053368D01*
X17111500Y-98050000D01*
X25088500Y-98050000D01*
X25096632Y-98053368D01*
G37*
%TD.AperFunction*%
%TD*%
%TA.AperFunction,Conductor*%
%TO.N,GND*%
G36*
X25096632Y-96603368D02*
G01*
X25100000Y-96611500D01*
X25100000Y-97188500D01*
X25096632Y-97196632D01*
X25088500Y-97200000D01*
X17111500Y-97200000D01*
X17103368Y-97196632D01*
X17100000Y-97188500D01*
X17100000Y-96611500D01*
X17103368Y-96603368D01*
X17111500Y-96600000D01*
X25088500Y-96600000D01*
X25096632Y-96603368D01*
G37*
%TD.AperFunction*%
%TD*%
%TA.AperFunction,Conductor*%
%TO.N,GND*%
G36*
X25096632Y-89253368D02*
G01*
X25100000Y-89261500D01*
X25100000Y-89338500D01*
X25096632Y-89346632D01*
X25088500Y-89350000D01*
X17111500Y-89350000D01*
X17103368Y-89346632D01*
X17100000Y-89338500D01*
X17100000Y-89261500D01*
X17103368Y-89253368D01*
X17111500Y-89250000D01*
X25088500Y-89250000D01*
X25096632Y-89253368D01*
G37*
%TD.AperFunction*%
%TD*%
%TA.AperFunction,Conductor*%
%TO.N,GND*%
G36*
X25096632Y-93703368D02*
G01*
X25100000Y-93711500D01*
X25100000Y-94088500D01*
X25096632Y-94096632D01*
X25088500Y-94100000D01*
X17111500Y-94100000D01*
X17103368Y-94096632D01*
X17100000Y-94088500D01*
X17100000Y-93711500D01*
X17103368Y-93703368D01*
X17111500Y-93700000D01*
X25088500Y-93700000D01*
X25096632Y-93703368D01*
G37*
%TD.AperFunction*%
%TD*%
%TA.AperFunction,Conductor*%
%TO.N,GND*%
G36*
X25096632Y-99503368D02*
G01*
X25100000Y-99511500D01*
X25100000Y-100288500D01*
X25096632Y-100296632D01*
X25088500Y-100300000D01*
X17111500Y-100300000D01*
X17103368Y-100296632D01*
X17100000Y-100288500D01*
X17100000Y-99511500D01*
X17103368Y-99503368D01*
X17111500Y-99500000D01*
X25088500Y-99500000D01*
X25096632Y-99503368D01*
G37*
%TD.AperFunction*%
%TD*%
D90*
X94400000Y-94700000D03*
X252310000Y-94040000D03*
X257390000Y-94040000D03*
X262470000Y-94040000D03*
X261200000Y-91500000D03*
X254850000Y-88960000D03*
X135450000Y-93050000D03*
X237725000Y-94025000D03*
X242725000Y-97775000D03*
X237725000Y-99975000D03*
X232725000Y-88875000D03*
X119450000Y-93600000D03*
X108450000Y-93900000D03*
X128450000Y-93150000D03*
X141850000Y-93150000D03*
X225200000Y-91050000D03*
M02*
