%TF.GenerationSoftware,KiCad,Pcbnew,8.0.0-rc2*%
%TF.CreationDate,2025-04-02T21:45:00+07:00*%
%TF.ProjectId,ruler,72756c65-722e-46b6-9963-61645f706362,rev?*%
%TF.SameCoordinates,Original*%
%TF.FileFunction,Soldermask,Bot*%
%TF.FilePolarity,Negative*%
%FSLAX46Y46*%
G04 Gerber Fmt 4.6, Leading zero omitted, Abs format (unit mm)*
G04 Created by KiCad (PCBNEW 8.0.0-rc2) date 2025-04-02 21:45:00*
%MOMM*%
%LPD*%
G01*
G04 APERTURE LIST*
G04 Aperture macros list*
%AMRoundRect*
0 Rectangle with rounded corners*
0 $1 Rounding radius*
0 $2 $3 $4 $5 $6 $7 $8 $9 X,Y pos of 4 corners*
0 Add a 4 corners polygon primitive as box body*
4,1,4,$2,$3,$4,$5,$6,$7,$8,$9,$2,$3,0*
0 Add four circle primitives for the rounded corners*
1,1,$1+$1,$2,$3*
1,1,$1+$1,$4,$5*
1,1,$1+$1,$6,$7*
1,1,$1+$1,$8,$9*
0 Add four rect primitives between the rounded corners*
20,1,$1+$1,$2,$3,$4,$5,0*
20,1,$1+$1,$4,$5,$6,$7,0*
20,1,$1+$1,$6,$7,$8,$9,0*
20,1,$1+$1,$8,$9,$2,$3,0*%
G04 Aperture macros list end*
%ADD10C,0.100000*%
%ADD11C,0.200000*%
%ADD12C,0.000000*%
%ADD13C,12.800000*%
%ADD14C,1.750000*%
%ADD15C,3.987800*%
%ADD16C,3.300000*%
%ADD17C,5.400000*%
%ADD18C,5.000000*%
%ADD19C,8.600000*%
%ADD20C,10.600000*%
%ADD21C,6.400000*%
%ADD22C,4.400000*%
%ADD23C,2.100000*%
%ADD24RoundRect,0.200000X0.000000X1.050000X0.000000X1.050000X0.000000X-1.050000X0.000000X-1.050000X0*%
%ADD25RoundRect,0.200000X0.000000X1.800000X0.000000X1.800000X0.000000X-1.800000X0.000000X-1.800000X0*%
%ADD26R,0.200000X1.000000*%
%ADD27RoundRect,0.200000X5.000000X0.000000X5.000000X0.000000X-5.000000X0.000000X-5.000000X0.000000X0*%
%ADD28RoundRect,0.200000X0.000000X-1.050000X0.000000X-1.050000X0.000000X1.050000X0.000000X1.050000X0*%
%ADD29RoundRect,0.200000X0.000000X-1.800000X0.000000X-1.800000X0.000000X1.800000X0.000000X1.800000X0*%
%ADD30RoundRect,0.200000X-5.000000X0.000000X-5.000000X0.000000X5.000000X0.000000X5.000000X0.000000X0*%
G04 APERTURE END LIST*
D10*
X202000000Y-96500000D02*
X201000000Y-96500000D01*
X179000000Y-96000000D02*
X180000000Y-95000000D01*
X194000000Y-91000000D02*
X193000000Y-90000000D01*
X183000000Y-92500000D02*
X182000000Y-92500000D01*
X149500000Y-95000000D02*
X149500000Y-96000000D01*
X218000000Y-88000000D02*
X217000000Y-87000000D01*
X207000000Y-95000000D02*
X206000000Y-94000000D01*
X205000000Y-86500000D02*
X204000000Y-86500000D01*
X173000000Y-95000000D02*
X172000000Y-94000000D01*
X149000000Y-96000000D02*
X150000000Y-95000000D01*
X149000000Y-88000000D02*
X150000000Y-87000000D01*
X187000000Y-90000000D02*
X186000000Y-89000000D01*
X207000000Y-94500000D02*
X206000000Y-94500000D01*
X204500000Y-86000000D02*
X204500000Y-87000000D01*
X183000000Y-87500000D02*
X182000000Y-87500000D01*
X179000000Y-87000000D02*
X178000000Y-86000000D01*
X186000000Y-95000000D02*
X187000000Y-94000000D01*
X190000000Y-87000000D02*
X191000000Y-86000000D01*
X201000000Y-91500000D02*
X200000000Y-91500000D01*
X155000000Y-96500000D02*
X154000000Y-96500000D01*
X209500000Y-90000000D02*
X209500000Y-91000000D01*
X214000000Y-91000000D02*
X215000000Y-90000000D01*
X182500000Y-87000000D02*
X182500000Y-88000000D01*
X167000000Y-92000000D02*
X168000000Y-91000000D01*
X168000000Y-91500000D02*
X167000000Y-91500000D01*
X165000000Y-88500000D02*
X164000000Y-88500000D01*
X159000000Y-91500000D02*
X158000000Y-91500000D01*
X196500000Y-87000000D02*
X196500000Y-88000000D01*
X156500000Y-86000000D02*
X156500000Y-87000000D01*
X178000000Y-87000000D02*
X179000000Y-86000000D01*
X150000000Y-87500000D02*
X149000000Y-87500000D01*
X177500000Y-91000000D02*
X177500000Y-92000000D01*
X217500000Y-87000000D02*
X217500000Y-88000000D01*
X186500000Y-89000000D02*
X186500000Y-90000000D01*
X150000000Y-96000000D02*
X149000000Y-95000000D01*
X179000000Y-86500000D02*
X178000000Y-86500000D01*
X209000000Y-91000000D02*
X210000000Y-90000000D01*
X206500000Y-94000000D02*
X206500000Y-95000000D01*
X183000000Y-93000000D02*
X182000000Y-92000000D01*
X172000000Y-95000000D02*
X173000000Y-94000000D01*
X201500000Y-96000000D02*
X201500000Y-97000000D01*
X156000000Y-87000000D02*
X157000000Y-86000000D01*
X190500000Y-86000000D02*
X190500000Y-87000000D01*
X154500000Y-96000000D02*
X154500000Y-97000000D01*
X187000000Y-95000000D02*
X186000000Y-94000000D01*
X182000000Y-93000000D02*
X183000000Y-92000000D01*
D11*
X161525466Y-89915163D02*
G75*
G02*
X160150922Y-94699994I-9015566J63D01*
G01*
D10*
X154000000Y-97000000D02*
X155000000Y-96000000D01*
X213000000Y-96000000D02*
X212000000Y-95000000D01*
X167500000Y-91000000D02*
X167500000Y-92000000D01*
X200000000Y-92000000D02*
X201000000Y-91000000D01*
X191000000Y-87000000D02*
X190000000Y-86000000D01*
X149500000Y-87000000D02*
X149500000Y-88000000D01*
X155000000Y-97000000D02*
X154000000Y-96000000D01*
X158500000Y-91000000D02*
X158500000Y-92000000D01*
X202000000Y-97000000D02*
X201000000Y-96000000D01*
X206000000Y-95000000D02*
X207000000Y-94000000D01*
X180000000Y-96000000D02*
X179000000Y-95000000D01*
X218000000Y-87500000D02*
X217000000Y-87500000D01*
X197000000Y-87500000D02*
X196000000Y-87500000D01*
X182000000Y-88000000D02*
X183000000Y-87000000D01*
X154000000Y-91000000D02*
X153000000Y-90000000D01*
X200500000Y-91000000D02*
X200500000Y-92000000D01*
X194000000Y-90500000D02*
X193000000Y-90500000D01*
X173000000Y-87500000D02*
X172000000Y-87500000D01*
X173000000Y-88000000D02*
X172000000Y-87000000D01*
X178000000Y-92000000D02*
X177000000Y-91000000D01*
X178000000Y-91500000D02*
X177000000Y-91500000D01*
X154000000Y-90500000D02*
X153000000Y-90500000D01*
X182500000Y-92000000D02*
X182500000Y-93000000D01*
X164000000Y-89000000D02*
X165000000Y-88000000D01*
X150000000Y-95500000D02*
X149000000Y-95500000D01*
X180000000Y-95500000D02*
X179000000Y-95500000D01*
X183000000Y-88000000D02*
X182000000Y-87000000D01*
X187000000Y-89500000D02*
X186000000Y-89500000D01*
X214500000Y-90000000D02*
X214500000Y-91000000D01*
X153000000Y-91000000D02*
X154000000Y-90000000D01*
X193500000Y-90000000D02*
X193500000Y-91000000D01*
X195000000Y-94000000D02*
X196000000Y-93000000D01*
X187000000Y-94500000D02*
X186000000Y-94500000D01*
X215000000Y-91000000D02*
X214000000Y-90000000D01*
X159000000Y-92000000D02*
X158000000Y-91000000D01*
X196000000Y-94000000D02*
X195000000Y-93000000D01*
X213000000Y-95500000D02*
X212000000Y-95500000D01*
X179500000Y-95000000D02*
X179500000Y-96000000D01*
X158000000Y-92000000D02*
X159000000Y-91000000D01*
X173000000Y-94500000D02*
X172000000Y-94500000D01*
X172500000Y-87000000D02*
X172500000Y-88000000D01*
X204000000Y-87000000D02*
X205000000Y-86000000D01*
X201000000Y-97000000D02*
X202000000Y-96000000D01*
X197000000Y-88000000D02*
X196000000Y-87000000D01*
X164500000Y-88000000D02*
X164500000Y-89000000D01*
X212500000Y-95000000D02*
X212500000Y-96000000D01*
X157000000Y-87000000D02*
X156000000Y-86000000D01*
X205000000Y-87000000D02*
X204000000Y-86000000D01*
X212000000Y-96000000D02*
X213000000Y-95000000D01*
X215000000Y-90500000D02*
X214000000Y-90500000D01*
X186500000Y-94000000D02*
X186500000Y-95000000D01*
X196000000Y-93500000D02*
X195000000Y-93500000D01*
X157000000Y-86500000D02*
X156000000Y-86500000D01*
X195500000Y-93000000D02*
X195500000Y-94000000D01*
X178500000Y-86000000D02*
X178500000Y-87000000D01*
X201000000Y-92000000D02*
X200000000Y-91000000D01*
X186000000Y-90000000D02*
X187000000Y-89000000D01*
X196000000Y-88000000D02*
X197000000Y-87000000D01*
X210000000Y-91000000D02*
X209000000Y-90000000D01*
X191000000Y-86500000D02*
X190000000Y-86500000D01*
D11*
X191933942Y-94700000D02*
G75*
G02*
X190559401Y-89915163I7641058J4784900D01*
G01*
D10*
X150000000Y-88000000D02*
X149000000Y-87000000D01*
X210000000Y-90500000D02*
X209000000Y-90500000D01*
X172500000Y-94000000D02*
X172500000Y-95000000D01*
X153500000Y-90000000D02*
X153500000Y-91000000D01*
X165000000Y-89000000D02*
X164000000Y-88000000D01*
X168000000Y-92000000D02*
X167000000Y-91000000D01*
X177000000Y-92000000D02*
X178000000Y-91000000D01*
D11*
X162900000Y-94700000D02*
G75*
G02*
X161525465Y-89915163I7641100J4784900D01*
G01*
X219559895Y-89927788D02*
G75*
G02*
X218185357Y-94712622I-9015695J88D01*
G01*
X190559408Y-89915163D02*
G75*
G02*
X189184870Y-94699997I-9015608J63D01*
G01*
D10*
X217000000Y-88000000D02*
X218000000Y-87000000D01*
X172000000Y-88000000D02*
X173000000Y-87000000D01*
X193000000Y-91000000D02*
X194000000Y-90000000D01*
D12*
%TO.C,G\u002A\u002A\u002A*%
G36*
X81299731Y-88735300D02*
G01*
X81391870Y-88764875D01*
X81466128Y-88813258D01*
X81556638Y-88907668D01*
X81630232Y-89029779D01*
X81685113Y-89175581D01*
X81719483Y-89341065D01*
X81731543Y-89522224D01*
X81728191Y-89611880D01*
X81704173Y-89779392D01*
X81659414Y-89938650D01*
X81596743Y-90080683D01*
X81518987Y-90196518D01*
X81505760Y-90211781D01*
X81474931Y-90244145D01*
X81457988Y-90257038D01*
X81441854Y-90249772D01*
X81405256Y-90225574D01*
X81359420Y-90191747D01*
X81314326Y-90155979D01*
X81279952Y-90125956D01*
X81266276Y-90109365D01*
X81274909Y-90092331D01*
X81301798Y-90063069D01*
X81318418Y-90043783D01*
X81350081Y-89994400D01*
X81380731Y-89934486D01*
X81389884Y-89911997D01*
X81415024Y-89814597D01*
X81426887Y-89703016D01*
X81425435Y-89589483D01*
X81410629Y-89486227D01*
X81382428Y-89405479D01*
X81357547Y-89365253D01*
X81299947Y-89306940D01*
X81236020Y-89281057D01*
X81170122Y-89289971D01*
X81126996Y-89314527D01*
X81062432Y-89381720D01*
X81011712Y-89475810D01*
X80977599Y-89591044D01*
X80962856Y-89721668D01*
X80962789Y-89723802D01*
X80959384Y-89785468D01*
X80954223Y-89828146D01*
X80948398Y-89842709D01*
X80944593Y-89841007D01*
X80914082Y-89827181D01*
X80861276Y-89803166D01*
X80794777Y-89772874D01*
X80651801Y-89707698D01*
X80651780Y-89557981D01*
X80652523Y-89517970D01*
X80671032Y-89353261D01*
X80712299Y-89196397D01*
X80773498Y-89053055D01*
X80851803Y-88928912D01*
X80944390Y-88829644D01*
X81048433Y-88760929D01*
X81092780Y-88744331D01*
X81194498Y-88728389D01*
X81299731Y-88735300D01*
G37*
G36*
X79544103Y-88600232D02*
G01*
X79644178Y-88635463D01*
X79708112Y-88674724D01*
X79802198Y-88750527D01*
X79890545Y-88840190D01*
X79960730Y-88932074D01*
X79984833Y-88973132D01*
X80039711Y-89095026D01*
X80083615Y-89233330D01*
X80113844Y-89376388D01*
X80127698Y-89512544D01*
X80122475Y-89630142D01*
X80110305Y-89711299D01*
X79994632Y-89743371D01*
X79941098Y-89759327D01*
X79862699Y-89785775D01*
X79799817Y-89810355D01*
X79720675Y-89845266D01*
X79720675Y-89698038D01*
X79720668Y-89694719D01*
X79709346Y-89565565D01*
X79678608Y-89447223D01*
X79631607Y-89344098D01*
X79571497Y-89260594D01*
X79501430Y-89201116D01*
X79424559Y-89170069D01*
X79344036Y-89171857D01*
X79324046Y-89177724D01*
X79245846Y-89222757D01*
X79180557Y-89295258D01*
X79129376Y-89388760D01*
X79093498Y-89496796D01*
X79074121Y-89612899D01*
X79072439Y-89730602D01*
X79089651Y-89843438D01*
X79126952Y-89944941D01*
X79185538Y-90028643D01*
X79202371Y-90046856D01*
X79228550Y-90079267D01*
X79235238Y-90094750D01*
X79227152Y-90098695D01*
X79190606Y-90114374D01*
X79132115Y-90138557D01*
X79059605Y-90167940D01*
X79016462Y-90184801D01*
X78946484Y-90210035D01*
X78892679Y-90226738D01*
X78864119Y-90231938D01*
X78852072Y-90226588D01*
X78820245Y-90193432D01*
X78782221Y-90136809D01*
X78742431Y-90064428D01*
X78705302Y-89983997D01*
X78675264Y-89903226D01*
X78667215Y-89876109D01*
X78639686Y-89737744D01*
X78626776Y-89583778D01*
X78629186Y-89429755D01*
X78647619Y-89291222D01*
X78667848Y-89211410D01*
X78729285Y-89051139D01*
X78812840Y-88906391D01*
X78914504Y-88782469D01*
X79030267Y-88684679D01*
X79156120Y-88618328D01*
X79185159Y-88608529D01*
X79300970Y-88586287D01*
X79425159Y-88583681D01*
X79544103Y-88600232D01*
G37*
G36*
X78651182Y-91063799D02*
G01*
X78693153Y-91107311D01*
X78794251Y-91204788D01*
X78935459Y-91307705D01*
X79096749Y-91397685D01*
X79269061Y-91469037D01*
X79286004Y-91475567D01*
X79347156Y-91504074D01*
X79427859Y-91546183D01*
X79519592Y-91597346D01*
X79613834Y-91653017D01*
X79636908Y-91666976D01*
X79791239Y-91754630D01*
X79927132Y-91819835D01*
X80052120Y-91865403D01*
X80173737Y-91894145D01*
X80299515Y-91908870D01*
X80306765Y-91909336D01*
X80453852Y-91910630D01*
X80587271Y-91893377D01*
X80713676Y-91854951D01*
X80839722Y-91792730D01*
X80972062Y-91704089D01*
X81117351Y-91586405D01*
X81136303Y-91570269D01*
X81202565Y-91516534D01*
X81276025Y-91460051D01*
X81350616Y-91405129D01*
X81420267Y-91356075D01*
X81478910Y-91317197D01*
X81520476Y-91292802D01*
X81538896Y-91287199D01*
X81540433Y-91294173D01*
X81545847Y-91330696D01*
X81553826Y-91391191D01*
X81563259Y-91467449D01*
X81577700Y-91576111D01*
X81609294Y-91763958D01*
X81650460Y-91956702D01*
X81702238Y-92157363D01*
X81765669Y-92368959D01*
X81841795Y-92594509D01*
X81931655Y-92837033D01*
X82036292Y-93099550D01*
X82156745Y-93385078D01*
X82294055Y-93696636D01*
X82449264Y-94037243D01*
X82473768Y-94090401D01*
X82570030Y-94301996D01*
X82651532Y-94486521D01*
X82720228Y-94648833D01*
X82778072Y-94793795D01*
X82827018Y-94926264D01*
X82869021Y-95051102D01*
X82906034Y-95173167D01*
X82921379Y-95227908D01*
X82967341Y-95409447D01*
X83008137Y-95596854D01*
X83042344Y-95781924D01*
X83068539Y-95956450D01*
X83085300Y-96112228D01*
X83091203Y-96241051D01*
X83091216Y-96246683D01*
X83093884Y-96301743D01*
X83102393Y-96329129D01*
X83118476Y-96327518D01*
X83143871Y-96295583D01*
X83180312Y-96232001D01*
X83229535Y-96135445D01*
X83258591Y-96075126D01*
X83313592Y-95945391D01*
X83352431Y-95822667D01*
X83377542Y-95696029D01*
X83391362Y-95554554D01*
X83396325Y-95387317D01*
X83394483Y-95246806D01*
X83384807Y-95100445D01*
X83365686Y-94958266D01*
X83335650Y-94815160D01*
X83293229Y-94666017D01*
X83236952Y-94505728D01*
X83165349Y-94329183D01*
X83076950Y-94131274D01*
X82970284Y-93906891D01*
X82956134Y-93877763D01*
X82885309Y-93731525D01*
X82829374Y-93614817D01*
X82786980Y-93524346D01*
X82756780Y-93456824D01*
X82737427Y-93408958D01*
X82727572Y-93377458D01*
X82725870Y-93359032D01*
X82730971Y-93350390D01*
X82741528Y-93348240D01*
X82747170Y-93349909D01*
X82774375Y-93376043D01*
X82814101Y-93430684D01*
X82864198Y-93509707D01*
X82922518Y-93608988D01*
X82986914Y-93724401D01*
X83055236Y-93851821D01*
X83125337Y-93987124D01*
X83195067Y-94126184D01*
X83262279Y-94264876D01*
X83324824Y-94399074D01*
X83380554Y-94524655D01*
X83427320Y-94637493D01*
X83462974Y-94733462D01*
X83521195Y-94920472D01*
X83585075Y-95192167D01*
X83620598Y-95450792D01*
X83627376Y-95693133D01*
X83605024Y-95915975D01*
X83600701Y-95939871D01*
X83553777Y-96131295D01*
X83486374Y-96306278D01*
X83395765Y-96468465D01*
X83279221Y-96621497D01*
X83134015Y-96769018D01*
X82957418Y-96914671D01*
X82746701Y-97062099D01*
X82538670Y-97203565D01*
X82290247Y-97389744D01*
X82073248Y-97573886D01*
X81888513Y-97755076D01*
X81736884Y-97932395D01*
X81619203Y-98104927D01*
X81536312Y-98271756D01*
X81489052Y-98431965D01*
X81480707Y-98556294D01*
X81504762Y-98668406D01*
X81560482Y-98763048D01*
X81646454Y-98838542D01*
X81761270Y-98893208D01*
X81903517Y-98925366D01*
X81991418Y-98936867D01*
X81818798Y-99163925D01*
X81791861Y-99199523D01*
X81730030Y-99282488D01*
X81675697Y-99357056D01*
X81633944Y-99416197D01*
X81609856Y-99452879D01*
X81566748Y-99503398D01*
X81491186Y-99562461D01*
X81390438Y-99624756D01*
X81270221Y-99687690D01*
X81136255Y-99748669D01*
X80994259Y-99805100D01*
X80849950Y-99854389D01*
X80709049Y-99893943D01*
X80577273Y-99921168D01*
X80567742Y-99922710D01*
X80497401Y-99934388D01*
X80440886Y-99944268D01*
X80409678Y-99950351D01*
X80387525Y-99951972D01*
X80333088Y-99952910D01*
X80253752Y-99952904D01*
X80156059Y-99951959D01*
X80046555Y-99950079D01*
X80001802Y-99949044D01*
X79853329Y-99943474D01*
X79731250Y-99934710D01*
X79627036Y-99921998D01*
X79532160Y-99904584D01*
X79349910Y-99858757D01*
X79090313Y-99773672D01*
X78829243Y-99667149D01*
X78578562Y-99544155D01*
X78350131Y-99409655D01*
X78199309Y-99311679D01*
X78123468Y-99034762D01*
X78101505Y-98954205D01*
X78070055Y-98835532D01*
X78046365Y-98738102D01*
X78028856Y-98652635D01*
X78015948Y-98569849D01*
X78006061Y-98480460D01*
X77997617Y-98375187D01*
X77989035Y-98244747D01*
X77987389Y-98218901D01*
X77966686Y-97945572D01*
X77941619Y-97705950D01*
X77911347Y-97496933D01*
X77875029Y-97315419D01*
X77831824Y-97158303D01*
X77780890Y-97022485D01*
X77721385Y-96904862D01*
X77652469Y-96802331D01*
X77573300Y-96711789D01*
X77563433Y-96701984D01*
X77493326Y-96639558D01*
X77419421Y-96583565D01*
X77355834Y-96544843D01*
X77319420Y-96526603D01*
X77280001Y-96502459D01*
X77255950Y-96474660D01*
X77239193Y-96432368D01*
X77221651Y-96364741D01*
X77213043Y-96332470D01*
X77160351Y-96201976D01*
X77086052Y-96101271D01*
X76989896Y-96030258D01*
X76871635Y-95988841D01*
X76731020Y-95976924D01*
X76567800Y-95994412D01*
X76381728Y-96041208D01*
X76340807Y-96054644D01*
X76206405Y-96106472D01*
X76062804Y-96171344D01*
X75921301Y-96243603D01*
X75793193Y-96317594D01*
X75689778Y-96387660D01*
X75672429Y-96401066D01*
X75569857Y-96495310D01*
X75502007Y-96590530D01*
X75466799Y-96690485D01*
X75462152Y-96798935D01*
X75471581Y-96907034D01*
X75404153Y-96901354D01*
X75393945Y-96900427D01*
X75354624Y-96891932D01*
X75334193Y-96869321D01*
X75320793Y-96821188D01*
X75319377Y-96814186D01*
X75312926Y-96706739D01*
X75329167Y-96592570D01*
X75365520Y-96490755D01*
X75386171Y-96454669D01*
X75465527Y-96353502D01*
X75576566Y-96248988D01*
X75715739Y-96143909D01*
X75879497Y-96041048D01*
X76064289Y-95943185D01*
X76101111Y-95925070D01*
X76168959Y-95889498D01*
X76209549Y-95863301D01*
X76227893Y-95842871D01*
X76229002Y-95824600D01*
X76206471Y-95731505D01*
X76188687Y-95586699D01*
X76183231Y-95421371D01*
X76189746Y-95243627D01*
X76207877Y-95061570D01*
X76237269Y-94883305D01*
X76277567Y-94716935D01*
X76325486Y-94565868D01*
X76445029Y-94265863D01*
X76593120Y-93973246D01*
X76765651Y-93694974D01*
X76958514Y-93438003D01*
X77167603Y-93209292D01*
X77183542Y-93193695D01*
X77241861Y-93139031D01*
X77281218Y-93107915D01*
X77306511Y-93096984D01*
X77322641Y-93102876D01*
X77324604Y-93104929D01*
X77333474Y-93121613D01*
X77330554Y-93144072D01*
X77313092Y-93176573D01*
X77278340Y-93223383D01*
X77223548Y-93288768D01*
X77145965Y-93376993D01*
X77063969Y-93473465D01*
X76873811Y-93736204D01*
X76712206Y-94019961D01*
X76581594Y-94320107D01*
X76484414Y-94632014D01*
X76470676Y-94688382D01*
X76455059Y-94762890D01*
X76444689Y-94833748D01*
X76438540Y-94911176D01*
X76435589Y-95005391D01*
X76434810Y-95126613D01*
X76435034Y-95203167D01*
X76436856Y-95305624D01*
X76441252Y-95385422D01*
X76449104Y-95451645D01*
X76461290Y-95513381D01*
X76478691Y-95579714D01*
X76487201Y-95608601D01*
X76509377Y-95674556D01*
X76529298Y-95721920D01*
X76543471Y-95741948D01*
X76544995Y-95742355D01*
X76576274Y-95743663D01*
X76632286Y-95741324D01*
X76702024Y-95735768D01*
X76839751Y-95722507D01*
X76883461Y-95527372D01*
X76906818Y-95426339D01*
X76954239Y-95240487D01*
X77006843Y-95060539D01*
X77066698Y-94881131D01*
X77135868Y-94696900D01*
X77216420Y-94502482D01*
X77310419Y-94292514D01*
X77419931Y-94061632D01*
X77547022Y-93804472D01*
X77612347Y-93673721D01*
X77698253Y-93498981D01*
X77773681Y-93341037D01*
X77842485Y-93191254D01*
X77908519Y-93040992D01*
X77975635Y-92881614D01*
X78047689Y-92704480D01*
X78128532Y-92500953D01*
X78130113Y-92496941D01*
X78257158Y-92166076D01*
X78366490Y-91863429D01*
X78459415Y-91585249D01*
X78537240Y-91327786D01*
X78543039Y-91307434D01*
X78568701Y-91217756D01*
X78590777Y-91141208D01*
X78607075Y-91085358D01*
X78615407Y-91057771D01*
X78626312Y-91048766D01*
X78651182Y-91063799D01*
G37*
G36*
X80515465Y-89797835D02*
G01*
X80575082Y-89809063D01*
X80638947Y-89828295D01*
X80700459Y-89852101D01*
X80836417Y-89922505D01*
X80977513Y-90017035D01*
X81114907Y-90130084D01*
X81126543Y-90140493D01*
X81189432Y-90193988D01*
X81270831Y-90260228D01*
X81361497Y-90331784D01*
X81452185Y-90401223D01*
X81485625Y-90426491D01*
X81567938Y-90490464D01*
X81626387Y-90539926D01*
X81666090Y-90579836D01*
X81692165Y-90615156D01*
X81709730Y-90650846D01*
X81725575Y-90701037D01*
X81731103Y-90793634D01*
X81704833Y-90890528D01*
X81645731Y-90997319D01*
X81599351Y-91061333D01*
X81548779Y-91117740D01*
X81487015Y-91172640D01*
X81406862Y-91232426D01*
X81301124Y-91303492D01*
X81258654Y-91332561D01*
X81177098Y-91392844D01*
X81089057Y-91462041D01*
X81007391Y-91530227D01*
X80983361Y-91550905D01*
X80879991Y-91634477D01*
X80789676Y-91696358D01*
X80703394Y-91742196D01*
X80612121Y-91777636D01*
X80554178Y-91789849D01*
X80456300Y-91796682D01*
X80323485Y-91795908D01*
X80293056Y-91794880D01*
X80199634Y-91789321D01*
X80118946Y-91778694D01*
X80043684Y-91760435D01*
X79966539Y-91731978D01*
X79880202Y-91690757D01*
X79777363Y-91634207D01*
X79650713Y-91559762D01*
X79622488Y-91543103D01*
X79518848Y-91484819D01*
X79414339Y-91429871D01*
X79319739Y-91383785D01*
X79245828Y-91352091D01*
X79150395Y-91312358D01*
X78988494Y-91225504D01*
X78850366Y-91124645D01*
X78740443Y-91013262D01*
X78663160Y-90894832D01*
X78639021Y-90834103D01*
X78619783Y-90726370D01*
X78627789Y-90622034D01*
X78663040Y-90532091D01*
X78684370Y-90499800D01*
X78714396Y-90462881D01*
X78751185Y-90428979D01*
X78798792Y-90395905D01*
X78861275Y-90361473D01*
X78942688Y-90323494D01*
X79047088Y-90279782D01*
X79178531Y-90228148D01*
X79341072Y-90166405D01*
X79387035Y-90147753D01*
X79478547Y-90106040D01*
X79578137Y-90056406D01*
X79671140Y-90005980D01*
X79699671Y-89989823D01*
X79839590Y-89916025D01*
X79962430Y-89862761D01*
X80077692Y-89826965D01*
X80194877Y-89805571D01*
X80323485Y-89795515D01*
X80359373Y-89794237D01*
X80447696Y-89793322D01*
X80515465Y-89797835D01*
G37*
G36*
X84085375Y-96750033D02*
G01*
X84160471Y-96762312D01*
X84229278Y-96786724D01*
X84296223Y-96826454D01*
X84365730Y-96884687D01*
X84442227Y-96964610D01*
X84530141Y-97069406D01*
X84633896Y-97202263D01*
X84716992Y-97309456D01*
X84798625Y-97408881D01*
X84871024Y-97486879D01*
X84940609Y-97548372D01*
X85013799Y-97598285D01*
X85097015Y-97641539D01*
X85196677Y-97683057D01*
X85319203Y-97727762D01*
X85359755Y-97742228D01*
X85497596Y-97795508D01*
X85605979Y-97846256D01*
X85690513Y-97898373D01*
X85756807Y-97955760D01*
X85810467Y-98022317D01*
X85857101Y-98101947D01*
X85881785Y-98164357D01*
X85900984Y-98264237D01*
X85906142Y-98389132D01*
X85897348Y-98542237D01*
X85874693Y-98726749D01*
X85854734Y-98874269D01*
X85841041Y-99012990D01*
X85836781Y-99129113D01*
X85842025Y-99229779D01*
X85856840Y-99322127D01*
X85881295Y-99413298D01*
X85923990Y-99559105D01*
X85964071Y-99734972D01*
X85982852Y-99884526D01*
X85980580Y-100010045D01*
X85957503Y-100113806D01*
X85944694Y-100145899D01*
X85912592Y-100202857D01*
X85868857Y-100252075D01*
X85810292Y-100294736D01*
X85733701Y-100332018D01*
X85635887Y-100365103D01*
X85513653Y-100395171D01*
X85363804Y-100423402D01*
X85183144Y-100450977D01*
X84968475Y-100479077D01*
X84912837Y-100486003D01*
X84711554Y-100512322D01*
X84539825Y-100537580D01*
X84391599Y-100563326D01*
X84260821Y-100591110D01*
X84141437Y-100622482D01*
X84027393Y-100658991D01*
X83912637Y-100702187D01*
X83791113Y-100753619D01*
X83656769Y-100814837D01*
X83407425Y-100923179D01*
X83176897Y-101006058D01*
X82960742Y-101064747D01*
X82753617Y-101100938D01*
X82674946Y-101108908D01*
X82469560Y-101111925D01*
X82275355Y-101089336D01*
X82096003Y-101042598D01*
X81935175Y-100973169D01*
X81796540Y-100882505D01*
X81683771Y-100772062D01*
X81600537Y-100643298D01*
X81589584Y-100619348D01*
X81555095Y-100524144D01*
X81525608Y-100415195D01*
X81504957Y-100308212D01*
X81496976Y-100218905D01*
X81497562Y-100191001D01*
X81511024Y-100089261D01*
X81543155Y-99977423D01*
X81595180Y-99853301D01*
X81668326Y-99714711D01*
X81763817Y-99559470D01*
X81882880Y-99385393D01*
X82026740Y-99190296D01*
X82196623Y-98971994D01*
X82250052Y-98904606D01*
X82334597Y-98796736D01*
X82408116Y-98700391D01*
X82473774Y-98610634D01*
X82534739Y-98522532D01*
X82594177Y-98431149D01*
X82655256Y-98331551D01*
X82721140Y-98218802D01*
X82794998Y-98087968D01*
X82879997Y-97934114D01*
X82979302Y-97752305D01*
X83038052Y-97644547D01*
X83111771Y-97510144D01*
X83172216Y-97401670D01*
X83221993Y-97315027D01*
X83263709Y-97246119D01*
X83299971Y-97190849D01*
X83333387Y-97145121D01*
X83366562Y-97104838D01*
X83402104Y-97065903D01*
X83442620Y-97024220D01*
X83547850Y-96925286D01*
X83658618Y-96842221D01*
X83766628Y-96786961D01*
X83878499Y-96756218D01*
X84000847Y-96746701D01*
X84085375Y-96750033D01*
G37*
G36*
X77296460Y-96732886D02*
G01*
X77341087Y-96763650D01*
X77392352Y-96806874D01*
X77442658Y-96856377D01*
X77484406Y-96905980D01*
X77512537Y-96946499D01*
X77568449Y-97043749D01*
X77616833Y-97154989D01*
X77658413Y-97283531D01*
X77693914Y-97432684D01*
X77724059Y-97605759D01*
X77749572Y-97806065D01*
X77771177Y-98036913D01*
X77789597Y-98301613D01*
X77793266Y-98359493D01*
X77801500Y-98466516D01*
X77811785Y-98563793D01*
X77825404Y-98657796D01*
X77843640Y-98755001D01*
X77867774Y-98861882D01*
X77899089Y-98984913D01*
X77938868Y-99130569D01*
X77988392Y-99305323D01*
X77993285Y-99322441D01*
X78060092Y-99563705D01*
X78113486Y-99774130D01*
X78153708Y-99957290D01*
X78180994Y-100116754D01*
X78195583Y-100256096D01*
X78197712Y-100378887D01*
X78187620Y-100488699D01*
X78165544Y-100589102D01*
X78131723Y-100683670D01*
X78086395Y-100775974D01*
X78071701Y-100801712D01*
X77959897Y-100956296D01*
X77823443Y-101084929D01*
X77665917Y-101184747D01*
X77490895Y-101252884D01*
X77446579Y-101262728D01*
X77338745Y-101274158D01*
X77213288Y-101275562D01*
X77082144Y-101267463D01*
X76957249Y-101250384D01*
X76850538Y-101224847D01*
X76819326Y-101214548D01*
X76648671Y-101145064D01*
X76473073Y-101053699D01*
X76306470Y-100947558D01*
X76292862Y-100937867D01*
X76239201Y-100897700D01*
X76184374Y-100852888D01*
X76124355Y-100799653D01*
X76055118Y-100734217D01*
X75972640Y-100652801D01*
X75872895Y-100551628D01*
X75751857Y-100426917D01*
X75734871Y-100409499D01*
X75639834Y-100318522D01*
X75538184Y-100232965D01*
X75425216Y-100149733D01*
X75296226Y-100065727D01*
X75146507Y-99977853D01*
X74971357Y-99883013D01*
X74766069Y-99778111D01*
X74660691Y-99725060D01*
X74509527Y-99647067D01*
X74386772Y-99580623D01*
X74288896Y-99523511D01*
X74212371Y-99473511D01*
X74153666Y-99428404D01*
X74109254Y-99385972D01*
X74075605Y-99343996D01*
X74037440Y-99272361D01*
X74017148Y-99177000D01*
X74026007Y-99070943D01*
X74064591Y-98952524D01*
X74133473Y-98820079D01*
X74233229Y-98671943D01*
X74364431Y-98506452D01*
X74365831Y-98504787D01*
X74424441Y-98431903D01*
X74472206Y-98363386D01*
X74512113Y-98292416D01*
X74547149Y-98212168D01*
X74580301Y-98115821D01*
X74614554Y-97996554D01*
X74652897Y-97847544D01*
X74653763Y-97844069D01*
X74696708Y-97680996D01*
X74736791Y-97549837D01*
X74776109Y-97445694D01*
X74816761Y-97363669D01*
X74860846Y-97298863D01*
X74910462Y-97246379D01*
X74957899Y-97206574D01*
X75035544Y-97156944D01*
X75121291Y-97123915D01*
X75224641Y-97104245D01*
X75355094Y-97094694D01*
X75554225Y-97087154D01*
X75666983Y-97186942D01*
X75737171Y-97245800D01*
X75891388Y-97355362D01*
X76051452Y-97445141D01*
X76212523Y-97513576D01*
X76369763Y-97559107D01*
X76518332Y-97580173D01*
X76653393Y-97575215D01*
X76770106Y-97542671D01*
X76818499Y-97518269D01*
X76935303Y-97432449D01*
X77038270Y-97317467D01*
X77124097Y-97178301D01*
X77189484Y-97019931D01*
X77231129Y-96847336D01*
X77240821Y-96792912D01*
X77251462Y-96744958D01*
X77259240Y-96722847D01*
X77266070Y-96720761D01*
X77296460Y-96732886D01*
G37*
%TD*%
D13*
%TO.C,M6*%
X94400000Y-94700000D03*
%TD*%
D14*
%TO.C,REF\u002A\u002A*%
X252310000Y-94040000D03*
D15*
X257390000Y-94040000D03*
D14*
X262470000Y-94040000D03*
D16*
X261200000Y-91500000D03*
X254850000Y-88960000D03*
%TD*%
D17*
%TO.C,M2.5*%
X135450000Y-93050000D03*
%TD*%
D18*
%TO.C,REF\u002A\u002A*%
X237725000Y-94025000D03*
%TD*%
D19*
%TO.C,M4*%
X119450000Y-93600000D03*
%TD*%
D20*
%TO.C,M5*%
X108450000Y-93900000D03*
%TD*%
D21*
%TO.C,M3*%
X128450000Y-93150000D03*
%TD*%
D22*
%TO.C,M2*%
X141850000Y-93150000D03*
%TD*%
D23*
%TO.C,REF\u002A\u002A*%
X225200000Y-91050000D03*
%TD*%
D24*
%TO.C,REF\u002A\u002A15*%
X148000000Y-80250000D03*
D25*
X153000000Y-80800000D03*
D26*
X152000000Y-79500000D03*
X151000000Y-79500000D03*
X150000000Y-79500000D03*
X149000000Y-79500000D03*
D27*
X148000000Y-79000000D03*
D26*
X147000000Y-79500000D03*
X146000000Y-79500000D03*
X145000000Y-79500000D03*
X144000000Y-79500000D03*
%TD*%
D24*
%TO.C,REF\u002A\u002A16*%
X138000000Y-80250000D03*
D25*
X143000000Y-80800000D03*
D26*
X142000000Y-79500000D03*
X141000000Y-79500000D03*
X140000000Y-79500000D03*
X139000000Y-79500000D03*
D27*
X138000000Y-79000000D03*
D26*
X137000000Y-79500000D03*
X136000000Y-79500000D03*
X135000000Y-79500000D03*
X134000000Y-79500000D03*
%TD*%
D24*
%TO.C,REF\u002A\u002A9*%
X208000000Y-80250000D03*
D25*
X213000000Y-80800000D03*
D26*
X212000000Y-79500000D03*
X211000000Y-79500000D03*
X210000000Y-79500000D03*
X209000000Y-79500000D03*
D27*
X208000000Y-79000000D03*
D26*
X207000000Y-79500000D03*
X206000000Y-79500000D03*
X205000000Y-79500000D03*
X204000000Y-79500000D03*
%TD*%
D24*
%TO.C,REF\u002A\u002A20*%
X98000000Y-80250000D03*
D25*
X103000000Y-80800000D03*
D26*
X102000000Y-79500000D03*
X101000000Y-79500000D03*
X100000000Y-79500000D03*
X99000000Y-79500000D03*
D27*
X98000000Y-79000000D03*
D26*
X97000000Y-79500000D03*
X96000000Y-79500000D03*
X95000000Y-79500000D03*
X94000000Y-79500000D03*
%TD*%
D24*
%TO.C,REF\u002A\u002A14*%
X158000000Y-80250000D03*
D25*
X163000000Y-80800000D03*
D26*
X162000000Y-79500000D03*
X161000000Y-79500000D03*
X160000000Y-79500000D03*
X159000000Y-79500000D03*
D27*
X158000000Y-79000000D03*
D26*
X157000000Y-79500000D03*
X156000000Y-79500000D03*
X155000000Y-79500000D03*
X154000000Y-79500000D03*
%TD*%
D28*
%TO.C,REF\u002A\u002A18*%
X208000000Y-107750000D03*
D29*
X203000000Y-107200000D03*
D26*
X204000000Y-108500000D03*
X205000000Y-108500000D03*
X206000000Y-108500000D03*
X207000000Y-108500000D03*
D30*
X208000000Y-109000000D03*
D26*
X209000000Y-108500000D03*
X210000000Y-108500000D03*
X211000000Y-108500000D03*
X212000000Y-108500000D03*
%TD*%
D28*
%TO.C,REF\u002A\u002A7*%
X98000000Y-107750000D03*
D29*
X93000000Y-107200000D03*
D26*
X94000000Y-108500000D03*
X95000000Y-108500000D03*
X96000000Y-108500000D03*
X97000000Y-108500000D03*
D30*
X98000000Y-109000000D03*
D26*
X99000000Y-108500000D03*
X100000000Y-108500000D03*
X101000000Y-108500000D03*
X102000000Y-108500000D03*
%TD*%
D24*
%TO.C,REF\u002A\u002A*%
X308000000Y-80250000D03*
D25*
X313000000Y-80800000D03*
D26*
X312000000Y-79500000D03*
X311000000Y-79500000D03*
X310000000Y-79500000D03*
X309000000Y-79500000D03*
D27*
X308000000Y-79000000D03*
D26*
X307000000Y-79500000D03*
X306000000Y-79500000D03*
X305000000Y-79500000D03*
X304000000Y-79500000D03*
%TD*%
D24*
%TO.C,REF\u002A\u002A*%
X298000000Y-80250000D03*
D25*
X303000000Y-80800000D03*
D26*
X302000000Y-79500000D03*
X301000000Y-79500000D03*
X300000000Y-79500000D03*
X299000000Y-79500000D03*
D27*
X298000000Y-79000000D03*
D26*
X297000000Y-79500000D03*
X296000000Y-79500000D03*
X295000000Y-79500000D03*
X294000000Y-79500000D03*
%TD*%
D24*
%TO.C,REF\u002A\u002A8*%
X218000000Y-80250000D03*
D25*
X223000000Y-80800000D03*
D26*
X222000000Y-79500000D03*
X221000000Y-79500000D03*
X220000000Y-79500000D03*
X219000000Y-79500000D03*
D27*
X218000000Y-79000000D03*
D26*
X217000000Y-79500000D03*
X216000000Y-79500000D03*
X215000000Y-79500000D03*
X214000000Y-79500000D03*
%TD*%
D28*
%TO.C,REF\u002A\u002A12*%
X148000000Y-107750000D03*
D29*
X143000000Y-107200000D03*
D26*
X144000000Y-108500000D03*
X145000000Y-108500000D03*
X146000000Y-108500000D03*
X147000000Y-108500000D03*
D30*
X148000000Y-109000000D03*
D26*
X149000000Y-108500000D03*
X150000000Y-108500000D03*
X151000000Y-108500000D03*
X152000000Y-108500000D03*
%TD*%
D28*
%TO.C,REF\u002A\u002A13*%
X158000000Y-107750000D03*
D29*
X153000000Y-107200000D03*
D26*
X154000000Y-108500000D03*
X155000000Y-108500000D03*
X156000000Y-108500000D03*
X157000000Y-108500000D03*
D30*
X158000000Y-109000000D03*
D26*
X159000000Y-108500000D03*
X160000000Y-108500000D03*
X161000000Y-108500000D03*
X162000000Y-108500000D03*
%TD*%
D24*
%TO.C,REF\u002A\u002A4*%
X258000000Y-80250000D03*
D25*
X263000000Y-80800000D03*
D26*
X262000000Y-79500000D03*
X261000000Y-79500000D03*
X260000000Y-79500000D03*
X259000000Y-79500000D03*
D27*
X258000000Y-79000000D03*
D26*
X257000000Y-79500000D03*
X256000000Y-79500000D03*
X255000000Y-79500000D03*
X254000000Y-79500000D03*
%TD*%
D28*
%TO.C,REF\u002A\u002A14*%
X168000000Y-107750000D03*
D29*
X163000000Y-107200000D03*
D26*
X164000000Y-108500000D03*
X165000000Y-108500000D03*
X166000000Y-108500000D03*
X167000000Y-108500000D03*
D30*
X168000000Y-109000000D03*
D26*
X169000000Y-108500000D03*
X170000000Y-108500000D03*
X171000000Y-108500000D03*
X172000000Y-108500000D03*
%TD*%
D28*
%TO.C,REF\u002A\u002A*%
X28000000Y-107750000D03*
D29*
X23000000Y-107200000D03*
D26*
X24000000Y-108500000D03*
X25000000Y-108500000D03*
X26000000Y-108500000D03*
X27000000Y-108500000D03*
D30*
X28000000Y-109000000D03*
D26*
X29000000Y-108500000D03*
X30000000Y-108500000D03*
X31000000Y-108500000D03*
X32000000Y-108500000D03*
%TD*%
D28*
%TO.C,REF\u002A\u002A4*%
X68000000Y-107750000D03*
D29*
X63000000Y-107200000D03*
D26*
X64000000Y-108500000D03*
X65000000Y-108500000D03*
X66000000Y-108500000D03*
X67000000Y-108500000D03*
D30*
X68000000Y-109000000D03*
D26*
X69000000Y-108500000D03*
X70000000Y-108500000D03*
X71000000Y-108500000D03*
X72000000Y-108500000D03*
%TD*%
D24*
%TO.C,REF\u002A\u002A12*%
X178000000Y-80250000D03*
D25*
X183000000Y-80800000D03*
D26*
X182000000Y-79500000D03*
X181000000Y-79500000D03*
X180000000Y-79500000D03*
X179000000Y-79500000D03*
D27*
X178000000Y-79000000D03*
D26*
X177000000Y-79500000D03*
X176000000Y-79500000D03*
X175000000Y-79500000D03*
X174000000Y-79500000D03*
%TD*%
D24*
%TO.C,REF\u002A\u002A3*%
X268000000Y-80250000D03*
D25*
X273000000Y-80800000D03*
D26*
X272000000Y-79500000D03*
X271000000Y-79500000D03*
X270000000Y-79500000D03*
X269000000Y-79500000D03*
D27*
X268000000Y-79000000D03*
D26*
X267000000Y-79500000D03*
X266000000Y-79500000D03*
X265000000Y-79500000D03*
X264000000Y-79500000D03*
%TD*%
D28*
%TO.C,REF\u002A\u002A1*%
X38000000Y-107750000D03*
D29*
X33000000Y-107200000D03*
D26*
X34000000Y-108500000D03*
X35000000Y-108500000D03*
X36000000Y-108500000D03*
X37000000Y-108500000D03*
D30*
X38000000Y-109000000D03*
D26*
X39000000Y-108500000D03*
X40000000Y-108500000D03*
X41000000Y-108500000D03*
X42000000Y-108500000D03*
%TD*%
D24*
%TO.C,REF\u002A\u002A26*%
X38000000Y-80250000D03*
D25*
X43000000Y-80800000D03*
D26*
X42000000Y-79500000D03*
X41000000Y-79500000D03*
X40000000Y-79500000D03*
X39000000Y-79500000D03*
D27*
X38000000Y-79000000D03*
D26*
X37000000Y-79500000D03*
X36000000Y-79500000D03*
X35000000Y-79500000D03*
X34000000Y-79500000D03*
%TD*%
D24*
%TO.C,REF\u002A\u002A21*%
X88000000Y-80250000D03*
D25*
X93000000Y-80800000D03*
D26*
X92000000Y-79500000D03*
X91000000Y-79500000D03*
X90000000Y-79500000D03*
X89000000Y-79500000D03*
D27*
X88000000Y-79000000D03*
D26*
X87000000Y-79500000D03*
X86000000Y-79500000D03*
X85000000Y-79500000D03*
X84000000Y-79500000D03*
%TD*%
D24*
%TO.C,REF\u002A\u002A13*%
X168000000Y-80250000D03*
D25*
X173000000Y-80800000D03*
D26*
X172000000Y-79500000D03*
X171000000Y-79500000D03*
X170000000Y-79500000D03*
X169000000Y-79500000D03*
D27*
X168000000Y-79000000D03*
D26*
X167000000Y-79500000D03*
X166000000Y-79500000D03*
X165000000Y-79500000D03*
X164000000Y-79500000D03*
%TD*%
D24*
%TO.C,REF\u002A\u002A10*%
X198000000Y-80250000D03*
D25*
X203000000Y-80800000D03*
D26*
X202000000Y-79500000D03*
X201000000Y-79500000D03*
X200000000Y-79500000D03*
X199000000Y-79500000D03*
D27*
X198000000Y-79000000D03*
D26*
X197000000Y-79500000D03*
X196000000Y-79500000D03*
X195000000Y-79500000D03*
X194000000Y-79500000D03*
%TD*%
D24*
%TO.C,REF\u002A\u002A22*%
X78000000Y-80250000D03*
D25*
X83000000Y-80800000D03*
D26*
X82000000Y-79500000D03*
X81000000Y-79500000D03*
X80000000Y-79500000D03*
X79000000Y-79500000D03*
D27*
X78000000Y-79000000D03*
D26*
X77000000Y-79500000D03*
X76000000Y-79500000D03*
X75000000Y-79500000D03*
X74000000Y-79500000D03*
%TD*%
D28*
%TO.C,REF\u002A\u002A23*%
X258000000Y-107750000D03*
D29*
X253000000Y-107200000D03*
D26*
X254000000Y-108500000D03*
X255000000Y-108500000D03*
X256000000Y-108500000D03*
X257000000Y-108500000D03*
D30*
X258000000Y-109000000D03*
D26*
X259000000Y-108500000D03*
X260000000Y-108500000D03*
X261000000Y-108500000D03*
X262000000Y-108500000D03*
%TD*%
D28*
%TO.C,REF\u002A\u002A25*%
X278000000Y-107750000D03*
D29*
X273000000Y-107200000D03*
D26*
X274000000Y-108500000D03*
X275000000Y-108500000D03*
X276000000Y-108500000D03*
X277000000Y-108500000D03*
D30*
X278000000Y-109000000D03*
D26*
X279000000Y-108500000D03*
X280000000Y-108500000D03*
X281000000Y-108500000D03*
X282000000Y-108500000D03*
%TD*%
D24*
%TO.C,REF\u002A\u002A2*%
X278000000Y-80250000D03*
D25*
X283000000Y-80800000D03*
D26*
X282000000Y-79500000D03*
X281000000Y-79500000D03*
X280000000Y-79500000D03*
X279000000Y-79500000D03*
D27*
X278000000Y-79000000D03*
D26*
X277000000Y-79500000D03*
X276000000Y-79500000D03*
X275000000Y-79500000D03*
X274000000Y-79500000D03*
%TD*%
D24*
%TO.C,REF\u002A\u002A5*%
X248000000Y-80250000D03*
D25*
X253000000Y-80800000D03*
D26*
X252000000Y-79500000D03*
X251000000Y-79500000D03*
X250000000Y-79500000D03*
X249000000Y-79500000D03*
D27*
X248000000Y-79000000D03*
D26*
X247000000Y-79500000D03*
X246000000Y-79500000D03*
X245000000Y-79500000D03*
X244000000Y-79500000D03*
%TD*%
D28*
%TO.C,REF\u002A\u002A20*%
X228000000Y-107750000D03*
D29*
X223000000Y-107200000D03*
D26*
X224000000Y-108500000D03*
X225000000Y-108500000D03*
X226000000Y-108500000D03*
X227000000Y-108500000D03*
D30*
X228000000Y-109000000D03*
D26*
X229000000Y-108500000D03*
X230000000Y-108500000D03*
X231000000Y-108500000D03*
X232000000Y-108500000D03*
%TD*%
D24*
%TO.C,REF\u002A\u002A27*%
X18000000Y-80250000D03*
D25*
X23000000Y-80800000D03*
D26*
X22000000Y-79500000D03*
X21000000Y-79500000D03*
X20000000Y-79500000D03*
X19000000Y-79500000D03*
D27*
X18000000Y-79000000D03*
D26*
X17000000Y-79500000D03*
X16000000Y-79500000D03*
X15000000Y-79500000D03*
X14000000Y-79500000D03*
%TD*%
D28*
%TO.C,REF\u002A\u002A27*%
X308000000Y-107750000D03*
D29*
X303000000Y-107200000D03*
D26*
X304000000Y-108500000D03*
X305000000Y-108500000D03*
X306000000Y-108500000D03*
X307000000Y-108500000D03*
D30*
X308000000Y-109000000D03*
D26*
X309000000Y-108500000D03*
X310000000Y-108500000D03*
X311000000Y-108500000D03*
X312000000Y-108500000D03*
%TD*%
D28*
%TO.C,REF\u002A\u002A17*%
X198000000Y-107750000D03*
D29*
X193000000Y-107200000D03*
D26*
X194000000Y-108500000D03*
X195000000Y-108500000D03*
X196000000Y-108500000D03*
X197000000Y-108500000D03*
D30*
X198000000Y-109000000D03*
D26*
X199000000Y-108500000D03*
X200000000Y-108500000D03*
X201000000Y-108500000D03*
X202000000Y-108500000D03*
%TD*%
D28*
%TO.C,REF\u002A\u002A3*%
X58000000Y-107750000D03*
D29*
X53000000Y-107200000D03*
D26*
X54000000Y-108500000D03*
X55000000Y-108500000D03*
X56000000Y-108500000D03*
X57000000Y-108500000D03*
D30*
X58000000Y-109000000D03*
D26*
X59000000Y-108500000D03*
X60000000Y-108500000D03*
X61000000Y-108500000D03*
X62000000Y-108500000D03*
%TD*%
D28*
%TO.C,REF\u002A\u002A2*%
X48000000Y-107750000D03*
D29*
X43000000Y-107200000D03*
D26*
X44000000Y-108500000D03*
X45000000Y-108500000D03*
X46000000Y-108500000D03*
X47000000Y-108500000D03*
D30*
X48000000Y-109000000D03*
D26*
X49000000Y-108500000D03*
X50000000Y-108500000D03*
X51000000Y-108500000D03*
X52000000Y-108500000D03*
%TD*%
D28*
%TO.C,REF\u002A\u002A15*%
X178000000Y-107750000D03*
D29*
X173000000Y-107200000D03*
D26*
X174000000Y-108500000D03*
X175000000Y-108500000D03*
X176000000Y-108500000D03*
X177000000Y-108500000D03*
D30*
X178000000Y-109000000D03*
D26*
X179000000Y-108500000D03*
X180000000Y-108500000D03*
X181000000Y-108500000D03*
X182000000Y-108500000D03*
%TD*%
D28*
%TO.C,REF\u002A\u002A22*%
X248000000Y-107750000D03*
D29*
X243000000Y-107200000D03*
D26*
X244000000Y-108500000D03*
X245000000Y-108500000D03*
X246000000Y-108500000D03*
X247000000Y-108500000D03*
D30*
X248000000Y-109000000D03*
D26*
X249000000Y-108500000D03*
X250000000Y-108500000D03*
X251000000Y-108500000D03*
X252000000Y-108500000D03*
%TD*%
D28*
%TO.C,REF\u002A\u002A10*%
X128000000Y-107750000D03*
D29*
X123000000Y-107200000D03*
D26*
X124000000Y-108500000D03*
X125000000Y-108500000D03*
X126000000Y-108500000D03*
X127000000Y-108500000D03*
D30*
X128000000Y-109000000D03*
D26*
X129000000Y-108500000D03*
X130000000Y-108500000D03*
X131000000Y-108500000D03*
X132000000Y-108500000D03*
%TD*%
D28*
%TO.C,REF\u002A\u002A19*%
X218000000Y-107750000D03*
D29*
X213000000Y-107200000D03*
D26*
X214000000Y-108500000D03*
X215000000Y-108500000D03*
X216000000Y-108500000D03*
X217000000Y-108500000D03*
D30*
X218000000Y-109000000D03*
D26*
X219000000Y-108500000D03*
X220000000Y-108500000D03*
X221000000Y-108500000D03*
X222000000Y-108500000D03*
%TD*%
D24*
%TO.C,REF\u002A\u002A17*%
X128000000Y-80250000D03*
D25*
X133000000Y-80800000D03*
D26*
X132000000Y-79500000D03*
X131000000Y-79500000D03*
X130000000Y-79500000D03*
X129000000Y-79500000D03*
D27*
X128000000Y-79000000D03*
D26*
X127000000Y-79500000D03*
X126000000Y-79500000D03*
X125000000Y-79500000D03*
X124000000Y-79500000D03*
%TD*%
D28*
%TO.C,REF\u002A\u002A*%
X18000000Y-107750000D03*
D29*
X13000000Y-107200000D03*
D26*
X14000000Y-108500000D03*
X15000000Y-108500000D03*
X16000000Y-108500000D03*
X17000000Y-108500000D03*
D30*
X18000000Y-109000000D03*
D26*
X19000000Y-108500000D03*
X20000000Y-108500000D03*
X21000000Y-108500000D03*
X22000000Y-108500000D03*
%TD*%
D24*
%TO.C,REF\u002A\u002A24*%
X58000000Y-80250000D03*
D25*
X63000000Y-80800000D03*
D26*
X62000000Y-79500000D03*
X61000000Y-79500000D03*
X60000000Y-79500000D03*
X59000000Y-79500000D03*
D27*
X58000000Y-79000000D03*
D26*
X57000000Y-79500000D03*
X56000000Y-79500000D03*
X55000000Y-79500000D03*
X54000000Y-79500000D03*
%TD*%
D24*
%TO.C,REF\u002A\u002A27*%
X28000000Y-80250000D03*
D25*
X33000000Y-80800000D03*
D26*
X32000000Y-79500000D03*
X31000000Y-79500000D03*
X30000000Y-79500000D03*
X29000000Y-79500000D03*
D27*
X28000000Y-79000000D03*
D26*
X27000000Y-79500000D03*
X26000000Y-79500000D03*
X25000000Y-79500000D03*
X24000000Y-79500000D03*
%TD*%
D24*
%TO.C,REF\u002A\u002A25*%
X48000000Y-80250000D03*
D25*
X53000000Y-80800000D03*
D26*
X52000000Y-79500000D03*
X51000000Y-79500000D03*
X50000000Y-79500000D03*
X49000000Y-79500000D03*
D27*
X48000000Y-79000000D03*
D26*
X47000000Y-79500000D03*
X46000000Y-79500000D03*
X45000000Y-79500000D03*
X44000000Y-79500000D03*
%TD*%
D24*
%TO.C,REF\u002A\u002A11*%
X188000000Y-80250000D03*
D25*
X193000000Y-80800000D03*
D26*
X192000000Y-79500000D03*
X191000000Y-79500000D03*
X190000000Y-79500000D03*
X189000000Y-79500000D03*
D27*
X188000000Y-79000000D03*
D26*
X187000000Y-79500000D03*
X186000000Y-79500000D03*
X185000000Y-79500000D03*
X184000000Y-79500000D03*
%TD*%
D24*
%TO.C,REF\u002A\u002A18*%
X118000000Y-80250000D03*
D25*
X123000000Y-80800000D03*
D26*
X122000000Y-79500000D03*
X121000000Y-79500000D03*
X120000000Y-79500000D03*
X119000000Y-79500000D03*
D27*
X118000000Y-79000000D03*
D26*
X117000000Y-79500000D03*
X116000000Y-79500000D03*
X115000000Y-79500000D03*
X114000000Y-79500000D03*
%TD*%
D24*
%TO.C,REF\u002A\u002A23*%
X68000000Y-80250000D03*
D25*
X73000000Y-80800000D03*
D26*
X72000000Y-79500000D03*
X71000000Y-79500000D03*
X70000000Y-79500000D03*
X69000000Y-79500000D03*
D27*
X68000000Y-79000000D03*
D26*
X67000000Y-79500000D03*
X66000000Y-79500000D03*
X65000000Y-79500000D03*
X64000000Y-79500000D03*
%TD*%
D28*
%TO.C,REF\u002A\u002A5*%
X78000000Y-107750000D03*
D29*
X73000000Y-107200000D03*
D26*
X74000000Y-108500000D03*
X75000000Y-108500000D03*
X76000000Y-108500000D03*
X77000000Y-108500000D03*
D30*
X78000000Y-109000000D03*
D26*
X79000000Y-108500000D03*
X80000000Y-108500000D03*
X81000000Y-108500000D03*
X82000000Y-108500000D03*
%TD*%
D24*
%TO.C,REF\u002A\u002A7*%
X228000000Y-80250000D03*
D25*
X233000000Y-80800000D03*
D26*
X232000000Y-79500000D03*
X231000000Y-79500000D03*
X230000000Y-79500000D03*
X229000000Y-79500000D03*
D27*
X228000000Y-79000000D03*
D26*
X227000000Y-79500000D03*
X226000000Y-79500000D03*
X225000000Y-79500000D03*
X224000000Y-79500000D03*
%TD*%
D28*
%TO.C,REF\u002A\u002A16*%
X188000000Y-107750000D03*
D29*
X183000000Y-107200000D03*
D26*
X184000000Y-108500000D03*
X185000000Y-108500000D03*
X186000000Y-108500000D03*
X187000000Y-108500000D03*
D30*
X188000000Y-109000000D03*
D26*
X189000000Y-108500000D03*
X190000000Y-108500000D03*
X191000000Y-108500000D03*
X192000000Y-108500000D03*
%TD*%
D28*
%TO.C,REF\u002A\u002A24*%
X268000000Y-107750000D03*
D29*
X263000000Y-107200000D03*
D26*
X264000000Y-108500000D03*
X265000000Y-108500000D03*
X266000000Y-108500000D03*
X267000000Y-108500000D03*
D30*
X268000000Y-109000000D03*
D26*
X269000000Y-108500000D03*
X270000000Y-108500000D03*
X271000000Y-108500000D03*
X272000000Y-108500000D03*
%TD*%
D24*
%TO.C,REF\u002A\u002A19*%
X108000000Y-80250000D03*
D25*
X113000000Y-80800000D03*
D26*
X112000000Y-79500000D03*
X111000000Y-79500000D03*
X110000000Y-79500000D03*
X109000000Y-79500000D03*
D27*
X108000000Y-79000000D03*
D26*
X107000000Y-79500000D03*
X106000000Y-79500000D03*
X105000000Y-79500000D03*
X104000000Y-79500000D03*
%TD*%
D28*
%TO.C,REF\u002A\u002A26*%
X288000000Y-107750000D03*
D29*
X283000000Y-107200000D03*
D26*
X284000000Y-108500000D03*
X285000000Y-108500000D03*
X286000000Y-108500000D03*
X287000000Y-108500000D03*
D30*
X288000000Y-109000000D03*
D26*
X289000000Y-108500000D03*
X290000000Y-108500000D03*
X291000000Y-108500000D03*
X292000000Y-108500000D03*
%TD*%
D28*
%TO.C,REF\u002A\u002A21*%
X238000000Y-107750000D03*
D29*
X233000000Y-107200000D03*
D26*
X234000000Y-108500000D03*
X235000000Y-108500000D03*
X236000000Y-108500000D03*
X237000000Y-108500000D03*
D30*
X238000000Y-109000000D03*
D26*
X239000000Y-108500000D03*
X240000000Y-108500000D03*
X241000000Y-108500000D03*
X242000000Y-108500000D03*
%TD*%
D24*
%TO.C,REF\u002A\u002A1*%
X288000000Y-80250000D03*
D25*
X293000000Y-80800000D03*
D26*
X292000000Y-79500000D03*
X291000000Y-79500000D03*
X290000000Y-79500000D03*
X289000000Y-79500000D03*
D27*
X288000000Y-79000000D03*
D26*
X287000000Y-79500000D03*
X286000000Y-79500000D03*
X285000000Y-79500000D03*
X284000000Y-79500000D03*
%TD*%
D28*
%TO.C,REF\u002A\u002A8*%
X108000000Y-107750000D03*
D29*
X103000000Y-107200000D03*
D26*
X104000000Y-108500000D03*
X105000000Y-108500000D03*
X106000000Y-108500000D03*
X107000000Y-108500000D03*
D30*
X108000000Y-109000000D03*
D26*
X109000000Y-108500000D03*
X110000000Y-108500000D03*
X111000000Y-108500000D03*
X112000000Y-108500000D03*
%TD*%
D28*
%TO.C,REF\u002A\u002A6*%
X88000000Y-107750000D03*
D29*
X83000000Y-107200000D03*
D26*
X84000000Y-108500000D03*
X85000000Y-108500000D03*
X86000000Y-108500000D03*
X87000000Y-108500000D03*
D30*
X88000000Y-109000000D03*
D26*
X89000000Y-108500000D03*
X90000000Y-108500000D03*
X91000000Y-108500000D03*
X92000000Y-108500000D03*
%TD*%
D24*
%TO.C,REF\u002A\u002A6*%
X238000000Y-80250000D03*
D25*
X243000000Y-80800000D03*
D26*
X242000000Y-79500000D03*
X241000000Y-79500000D03*
X240000000Y-79500000D03*
X239000000Y-79500000D03*
D27*
X238000000Y-79000000D03*
D26*
X237000000Y-79500000D03*
X236000000Y-79500000D03*
X235000000Y-79500000D03*
X234000000Y-79500000D03*
%TD*%
D28*
%TO.C,REF\u002A\u002A9*%
X118000000Y-107750000D03*
D29*
X113000000Y-107200000D03*
D26*
X114000000Y-108500000D03*
X115000000Y-108500000D03*
X116000000Y-108500000D03*
X117000000Y-108500000D03*
D30*
X118000000Y-109000000D03*
D26*
X119000000Y-108500000D03*
X120000000Y-108500000D03*
X121000000Y-108500000D03*
X122000000Y-108500000D03*
%TD*%
D28*
%TO.C,REF\u002A\u002A11*%
X138000000Y-107750000D03*
D29*
X133000000Y-107200000D03*
D26*
X134000000Y-108500000D03*
X135000000Y-108500000D03*
X136000000Y-108500000D03*
X137000000Y-108500000D03*
D30*
X138000000Y-109000000D03*
D26*
X139000000Y-108500000D03*
X140000000Y-108500000D03*
X141000000Y-108500000D03*
X142000000Y-108500000D03*
%TD*%
D28*
%TO.C,REF\u002A\u002A27*%
X298000000Y-107750000D03*
D29*
X293000000Y-107200000D03*
D26*
X294000000Y-108500000D03*
X295000000Y-108500000D03*
X296000000Y-108500000D03*
X297000000Y-108500000D03*
D30*
X298000000Y-109000000D03*
D26*
X299000000Y-108500000D03*
X300000000Y-108500000D03*
X301000000Y-108500000D03*
X302000000Y-108500000D03*
%TD*%
G36*
X190667946Y-91144295D02*
G01*
X190700964Y-91205870D01*
X190702856Y-91217733D01*
X190733940Y-91499992D01*
X190733941Y-91499997D01*
X191033944Y-92700005D01*
X191033944Y-92700007D01*
X191889319Y-94600839D01*
X191898879Y-94670051D01*
X191869502Y-94733445D01*
X191810516Y-94770893D01*
X191740647Y-94770506D01*
X191701841Y-94750924D01*
X191633942Y-94700000D01*
X191633941Y-94700000D01*
X191521623Y-94812319D01*
X191460300Y-94845804D01*
X191390608Y-94840820D01*
X191346261Y-94812319D01*
X191233942Y-94700000D01*
X191009987Y-94923954D01*
X190948664Y-94957439D01*
X190878972Y-94952455D01*
X190847906Y-94935473D01*
X190533941Y-94699999D01*
X190302725Y-94854144D01*
X190236025Y-94874952D01*
X190168665Y-94856397D01*
X190165159Y-94854144D01*
X189933942Y-94699999D01*
X189933941Y-94699999D01*
X189613624Y-94940238D01*
X189548182Y-94964714D01*
X189479895Y-94949924D01*
X189458401Y-94935079D01*
X189255280Y-94760509D01*
X189217268Y-94701884D01*
X189216985Y-94632015D01*
X189223107Y-94615401D01*
X190133942Y-92600000D01*
X190433942Y-91499995D01*
X190455988Y-91221521D01*
X190480901Y-91156244D01*
X190537152Y-91114799D01*
X190606879Y-91110345D01*
X190667946Y-91144295D01*
G37*
G36*
X219525320Y-91717700D02*
G01*
X219578999Y-91762425D01*
X219599977Y-91829071D01*
X219600000Y-91831470D01*
X219600000Y-94639120D01*
X219580315Y-94706159D01*
X219535514Y-94747904D01*
X219300274Y-94876600D01*
X219232013Y-94891507D01*
X219171977Y-94870990D01*
X218934429Y-94712624D01*
X218934428Y-94712624D01*
X218614111Y-94952863D01*
X218548669Y-94977339D01*
X218480382Y-94962549D01*
X218458888Y-94947704D01*
X218255767Y-94773134D01*
X218217755Y-94714509D01*
X218217472Y-94644640D01*
X218223594Y-94628026D01*
X219134429Y-92612625D01*
X219356369Y-91798844D01*
X219392999Y-91739346D01*
X219455982Y-91709097D01*
X219525320Y-91717700D01*
G37*
G36*
X161634004Y-91144295D02*
G01*
X161667022Y-91205870D01*
X161668914Y-91217733D01*
X161699998Y-91499992D01*
X161699999Y-91499997D01*
X162000002Y-92700005D01*
X162000002Y-92700007D01*
X162855377Y-94600839D01*
X162864937Y-94670051D01*
X162835560Y-94733445D01*
X162776574Y-94770893D01*
X162706705Y-94770506D01*
X162667899Y-94750924D01*
X162600000Y-94700000D01*
X162599999Y-94700000D01*
X162487681Y-94812319D01*
X162426358Y-94845804D01*
X162356666Y-94840820D01*
X162312319Y-94812319D01*
X162200000Y-94700000D01*
X161976045Y-94923954D01*
X161914722Y-94957439D01*
X161845030Y-94952455D01*
X161813964Y-94935473D01*
X161499999Y-94699999D01*
X161268783Y-94854144D01*
X161202083Y-94874952D01*
X161134723Y-94856397D01*
X161131217Y-94854144D01*
X160900000Y-94699999D01*
X160899999Y-94699999D01*
X160579682Y-94940238D01*
X160514240Y-94964714D01*
X160445953Y-94949924D01*
X160424459Y-94935079D01*
X160221338Y-94760509D01*
X160183326Y-94701884D01*
X160183043Y-94632015D01*
X160189165Y-94615401D01*
X161100000Y-92600000D01*
X161400000Y-91499995D01*
X161422046Y-91221521D01*
X161446959Y-91156244D01*
X161503210Y-91114799D01*
X161572937Y-91110345D01*
X161634004Y-91144295D01*
G37*
M02*
