%TF.GenerationSoftware,KiCad,Pcbnew,8.0.0-rc2*%
%TF.CreationDate,2025-04-02T21:45:01+07:00*%
%TF.ProjectId,ruler,72756c65-722e-46b6-9963-61645f706362,rev?*%
%TF.SameCoordinates,Original*%
%TF.FileFunction,Copper,L2,Bot*%
%TF.FilePolarity,Positive*%
%FSLAX46Y46*%
G04 Gerber Fmt 4.6, Leading zero omitted, Abs format (unit mm)*
G04 Created by KiCad (PCBNEW 8.0.0-rc2) date 2025-04-02 21:45:01*
%MOMM*%
%LPD*%
G01*
G04 APERTURE LIST*
G04 Aperture macros list*
%AMRoundRect*
0 Rectangle with rounded corners*
0 $1 Rounding radius*
0 $2 $3 $4 $5 $6 $7 $8 $9 X,Y pos of 4 corners*
0 Add a 4 corners polygon primitive as box body*
4,1,4,$2,$3,$4,$5,$6,$7,$8,$9,$2,$3,0*
0 Add four circle primitives for the rounded corners*
1,1,$1+$1,$2,$3*
1,1,$1+$1,$4,$5*
1,1,$1+$1,$6,$7*
1,1,$1+$1,$8,$9*
0 Add four rect primitives between the rounded corners*
20,1,$1+$1,$2,$3,$4,$5,0*
20,1,$1+$1,$4,$5,$6,$7,0*
20,1,$1+$1,$6,$7,$8,$9,0*
20,1,$1+$1,$8,$9,$2,$3,0*%
G04 Aperture macros list end*
%TA.AperFunction,NonConductor*%
%ADD10C,0.200000*%
%TD*%
%ADD11C,0.600000*%
%TA.AperFunction,NonConductor*%
%ADD12C,0.600000*%
%TD*%
%TA.AperFunction,EtchedComponent*%
%ADD13C,0.400000*%
%TD*%
%TA.AperFunction,EtchedComponent*%
%ADD14C,0.000000*%
%TD*%
%TA.AperFunction,EtchedComponent*%
%ADD15C,0.381000*%
%TD*%
%TA.AperFunction,EtchedComponent*%
%ADD16C,0.200000*%
%TD*%
%TA.AperFunction,EtchedComponent*%
%ADD17C,0.324000*%
%TD*%
%TA.AperFunction,EtchedComponent*%
%ADD18C,0.180000*%
%TD*%
%TA.AperFunction,EtchedComponent*%
%ADD19C,0.288000*%
%TD*%
%TA.AperFunction,ComponentPad*%
%ADD20C,12.800000*%
%TD*%
%TA.AperFunction,ComponentPad*%
%ADD21C,3.300000*%
%TD*%
%TA.AperFunction,ComponentPad*%
%ADD22C,5.400000*%
%TD*%
%TA.AperFunction,ComponentPad*%
%ADD23C,2.400000*%
%TD*%
%TA.AperFunction,ComponentPad*%
%ADD24C,8.600000*%
%TD*%
%TA.AperFunction,ComponentPad*%
%ADD25C,10.600000*%
%TD*%
%TA.AperFunction,ComponentPad*%
%ADD26C,6.400000*%
%TD*%
%TA.AperFunction,ComponentPad*%
%ADD27C,4.400000*%
%TD*%
%TA.AperFunction,SMDPad,CuDef*%
%ADD28RoundRect,0.200000X0.000000X1.050000X0.000000X1.050000X0.000000X-1.050000X0.000000X-1.050000X0*%
%TD*%
%TA.AperFunction,SMDPad,CuDef*%
%ADD29RoundRect,0.200000X0.000000X1.800000X0.000000X1.800000X0.000000X-1.800000X0.000000X-1.800000X0*%
%TD*%
%TA.AperFunction,SMDPad,CuDef*%
%ADD30R,0.200000X1.000000*%
%TD*%
%TA.AperFunction,SMDPad,CuDef*%
%ADD31RoundRect,0.200000X5.000000X0.000000X5.000000X0.000000X-5.000000X0.000000X-5.000000X0.000000X0*%
%TD*%
%TA.AperFunction,SMDPad,CuDef*%
%ADD32RoundRect,0.200000X0.000000X-1.050000X0.000000X-1.050000X0.000000X1.050000X0.000000X1.050000X0*%
%TD*%
%TA.AperFunction,SMDPad,CuDef*%
%ADD33RoundRect,0.200000X0.000000X-1.800000X0.000000X-1.800000X0.000000X1.800000X0.000000X1.800000X0*%
%TD*%
%TA.AperFunction,SMDPad,CuDef*%
%ADD34RoundRect,0.200000X-5.000000X0.000000X-5.000000X0.000000X5.000000X0.000000X5.000000X0.000000X0*%
%TD*%
%ADD35C,0.350000*%
G04 APERTURE END LIST*
D10*
X161525466Y-89915163D02*
G75*
G02*
X147000006Y-97019326I-8999996J3D01*
G01*
X176050932Y-97019333D02*
G75*
G02*
X161525470Y-89915163I-5525462J7104173D01*
G01*
X219500000Y-90800000D02*
G75*
G02*
X205096742Y-97019367I-8909100J844600D01*
G01*
X205096768Y-97019332D02*
G75*
G02*
X190571328Y-89915163I-5525468J7104132D01*
G01*
X190571303Y-89915163D02*
G75*
G02*
X176045836Y-97019335I-9000003J3D01*
G01*
D11*
D12*
X58612747Y-99535713D02*
X58493700Y-99654761D01*
X58493700Y-99654761D02*
X58374652Y-100011903D01*
X58374652Y-100011903D02*
X58374652Y-100249999D01*
X58374652Y-100249999D02*
X58493700Y-100607142D01*
X58493700Y-100607142D02*
X58731795Y-100845237D01*
X58731795Y-100845237D02*
X58969890Y-100964284D01*
X58969890Y-100964284D02*
X59446080Y-101083332D01*
X59446080Y-101083332D02*
X59803223Y-101083332D01*
X59803223Y-101083332D02*
X60279414Y-100964284D01*
X60279414Y-100964284D02*
X60517509Y-100845237D01*
X60517509Y-100845237D02*
X60755604Y-100607142D01*
X60755604Y-100607142D02*
X60874652Y-100249999D01*
X60874652Y-100249999D02*
X60874652Y-100011903D01*
X60874652Y-100011903D02*
X60755604Y-99654761D01*
X60755604Y-99654761D02*
X60636557Y-99535713D01*
X58374652Y-98464284D02*
X60041319Y-98464284D01*
X59565128Y-98464284D02*
X59803223Y-98345237D01*
X59803223Y-98345237D02*
X59922271Y-98226189D01*
X59922271Y-98226189D02*
X60041319Y-97988094D01*
X60041319Y-97988094D02*
X60041319Y-97749999D01*
X58493700Y-95964284D02*
X58374652Y-96202380D01*
X58374652Y-96202380D02*
X58374652Y-96678570D01*
X58374652Y-96678570D02*
X58493700Y-96916665D01*
X58493700Y-96916665D02*
X58731795Y-97035713D01*
X58731795Y-97035713D02*
X59684176Y-97035713D01*
X59684176Y-97035713D02*
X59922271Y-96916665D01*
X59922271Y-96916665D02*
X60041319Y-96678570D01*
X60041319Y-96678570D02*
X60041319Y-96202380D01*
X60041319Y-96202380D02*
X59922271Y-95964284D01*
X59922271Y-95964284D02*
X59684176Y-95845237D01*
X59684176Y-95845237D02*
X59446080Y-95845237D01*
X59446080Y-95845237D02*
X59207985Y-97035713D01*
X58374652Y-93702380D02*
X59684176Y-93702380D01*
X59684176Y-93702380D02*
X59922271Y-93821427D01*
X59922271Y-93821427D02*
X60041319Y-94059523D01*
X60041319Y-94059523D02*
X60041319Y-94535713D01*
X60041319Y-94535713D02*
X59922271Y-94773808D01*
X58493700Y-93702380D02*
X58374652Y-93940475D01*
X58374652Y-93940475D02*
X58374652Y-94535713D01*
X58374652Y-94535713D02*
X58493700Y-94773808D01*
X58493700Y-94773808D02*
X58731795Y-94892856D01*
X58731795Y-94892856D02*
X58969890Y-94892856D01*
X58969890Y-94892856D02*
X59207985Y-94773808D01*
X59207985Y-94773808D02*
X59327033Y-94535713D01*
X59327033Y-94535713D02*
X59327033Y-93940475D01*
X59327033Y-93940475D02*
X59446080Y-93702380D01*
X60041319Y-92869046D02*
X60041319Y-91916665D01*
X60874652Y-92511903D02*
X58731795Y-92511903D01*
X58731795Y-92511903D02*
X58493700Y-92392856D01*
X58493700Y-92392856D02*
X58374652Y-92154761D01*
X58374652Y-92154761D02*
X58374652Y-91916665D01*
X58374652Y-91083332D02*
X60041319Y-91083332D01*
X60874652Y-91083332D02*
X60755604Y-91202380D01*
X60755604Y-91202380D02*
X60636557Y-91083332D01*
X60636557Y-91083332D02*
X60755604Y-90964285D01*
X60755604Y-90964285D02*
X60874652Y-91083332D01*
X60874652Y-91083332D02*
X60636557Y-91083332D01*
X60041319Y-90130952D02*
X58374652Y-89535714D01*
X58374652Y-89535714D02*
X60041319Y-88940475D01*
X58493700Y-87035713D02*
X58374652Y-87273809D01*
X58374652Y-87273809D02*
X58374652Y-87749999D01*
X58374652Y-87749999D02*
X58493700Y-87988094D01*
X58493700Y-87988094D02*
X58731795Y-88107142D01*
X58731795Y-88107142D02*
X59684176Y-88107142D01*
X59684176Y-88107142D02*
X59922271Y-87988094D01*
X59922271Y-87988094D02*
X60041319Y-87749999D01*
X60041319Y-87749999D02*
X60041319Y-87273809D01*
X60041319Y-87273809D02*
X59922271Y-87035713D01*
X59922271Y-87035713D02*
X59684176Y-86916666D01*
X59684176Y-86916666D02*
X59446080Y-86916666D01*
X59446080Y-86916666D02*
X59207985Y-88107142D01*
D11*
D12*
X55612747Y-100964285D02*
X55493700Y-101083333D01*
X55493700Y-101083333D02*
X55374652Y-101440475D01*
X55374652Y-101440475D02*
X55374652Y-101678571D01*
X55374652Y-101678571D02*
X55493700Y-102035714D01*
X55493700Y-102035714D02*
X55731795Y-102273809D01*
X55731795Y-102273809D02*
X55969890Y-102392856D01*
X55969890Y-102392856D02*
X56446080Y-102511904D01*
X56446080Y-102511904D02*
X56803223Y-102511904D01*
X56803223Y-102511904D02*
X57279414Y-102392856D01*
X57279414Y-102392856D02*
X57517509Y-102273809D01*
X57517509Y-102273809D02*
X57755604Y-102035714D01*
X57755604Y-102035714D02*
X57874652Y-101678571D01*
X57874652Y-101678571D02*
X57874652Y-101440475D01*
X57874652Y-101440475D02*
X57755604Y-101083333D01*
X57755604Y-101083333D02*
X57636557Y-100964285D01*
X55374652Y-99535714D02*
X55493700Y-99773809D01*
X55493700Y-99773809D02*
X55612747Y-99892856D01*
X55612747Y-99892856D02*
X55850842Y-100011904D01*
X55850842Y-100011904D02*
X56565128Y-100011904D01*
X56565128Y-100011904D02*
X56803223Y-99892856D01*
X56803223Y-99892856D02*
X56922271Y-99773809D01*
X56922271Y-99773809D02*
X57041319Y-99535714D01*
X57041319Y-99535714D02*
X57041319Y-99178571D01*
X57041319Y-99178571D02*
X56922271Y-98940475D01*
X56922271Y-98940475D02*
X56803223Y-98821428D01*
X56803223Y-98821428D02*
X56565128Y-98702380D01*
X56565128Y-98702380D02*
X55850842Y-98702380D01*
X55850842Y-98702380D02*
X55612747Y-98821428D01*
X55612747Y-98821428D02*
X55493700Y-98940475D01*
X55493700Y-98940475D02*
X55374652Y-99178571D01*
X55374652Y-99178571D02*
X55374652Y-99535714D01*
X55374652Y-97630951D02*
X57041319Y-97630951D01*
X56803223Y-97630951D02*
X56922271Y-97511904D01*
X56922271Y-97511904D02*
X57041319Y-97273809D01*
X57041319Y-97273809D02*
X57041319Y-96916666D01*
X57041319Y-96916666D02*
X56922271Y-96678570D01*
X56922271Y-96678570D02*
X56684176Y-96559523D01*
X56684176Y-96559523D02*
X55374652Y-96559523D01*
X56684176Y-96559523D02*
X56922271Y-96440475D01*
X56922271Y-96440475D02*
X57041319Y-96202380D01*
X57041319Y-96202380D02*
X57041319Y-95845237D01*
X57041319Y-95845237D02*
X56922271Y-95607142D01*
X56922271Y-95607142D02*
X56684176Y-95488094D01*
X56684176Y-95488094D02*
X55374652Y-95488094D01*
X55374652Y-94297618D02*
X57041319Y-94297618D01*
X56803223Y-94297618D02*
X56922271Y-94178571D01*
X56922271Y-94178571D02*
X57041319Y-93940476D01*
X57041319Y-93940476D02*
X57041319Y-93583333D01*
X57041319Y-93583333D02*
X56922271Y-93345237D01*
X56922271Y-93345237D02*
X56684176Y-93226190D01*
X56684176Y-93226190D02*
X55374652Y-93226190D01*
X56684176Y-93226190D02*
X56922271Y-93107142D01*
X56922271Y-93107142D02*
X57041319Y-92869047D01*
X57041319Y-92869047D02*
X57041319Y-92511904D01*
X57041319Y-92511904D02*
X56922271Y-92273809D01*
X56922271Y-92273809D02*
X56684176Y-92154761D01*
X56684176Y-92154761D02*
X55374652Y-92154761D01*
X55374652Y-90607143D02*
X55493700Y-90845238D01*
X55493700Y-90845238D02*
X55612747Y-90964285D01*
X55612747Y-90964285D02*
X55850842Y-91083333D01*
X55850842Y-91083333D02*
X56565128Y-91083333D01*
X56565128Y-91083333D02*
X56803223Y-90964285D01*
X56803223Y-90964285D02*
X56922271Y-90845238D01*
X56922271Y-90845238D02*
X57041319Y-90607143D01*
X57041319Y-90607143D02*
X57041319Y-90250000D01*
X57041319Y-90250000D02*
X56922271Y-90011904D01*
X56922271Y-90011904D02*
X56803223Y-89892857D01*
X56803223Y-89892857D02*
X56565128Y-89773809D01*
X56565128Y-89773809D02*
X55850842Y-89773809D01*
X55850842Y-89773809D02*
X55612747Y-89892857D01*
X55612747Y-89892857D02*
X55493700Y-90011904D01*
X55493700Y-90011904D02*
X55374652Y-90250000D01*
X55374652Y-90250000D02*
X55374652Y-90607143D01*
X57041319Y-88702380D02*
X55374652Y-88702380D01*
X56803223Y-88702380D02*
X56922271Y-88583333D01*
X56922271Y-88583333D02*
X57041319Y-88345238D01*
X57041319Y-88345238D02*
X57041319Y-87988095D01*
X57041319Y-87988095D02*
X56922271Y-87749999D01*
X56922271Y-87749999D02*
X56684176Y-87630952D01*
X56684176Y-87630952D02*
X55374652Y-87630952D01*
X55493700Y-86559523D02*
X55374652Y-86321428D01*
X55374652Y-86321428D02*
X55374652Y-85845237D01*
X55374652Y-85845237D02*
X55493700Y-85607142D01*
X55493700Y-85607142D02*
X55731795Y-85488094D01*
X55731795Y-85488094D02*
X55850842Y-85488094D01*
X55850842Y-85488094D02*
X56088938Y-85607142D01*
X56088938Y-85607142D02*
X56207985Y-85845237D01*
X56207985Y-85845237D02*
X56207985Y-86202380D01*
X56207985Y-86202380D02*
X56327033Y-86440475D01*
X56327033Y-86440475D02*
X56565128Y-86559523D01*
X56565128Y-86559523D02*
X56684176Y-86559523D01*
X56684176Y-86559523D02*
X56922271Y-86440475D01*
X56922271Y-86440475D02*
X57041319Y-86202380D01*
X57041319Y-86202380D02*
X57041319Y-85845237D01*
X57041319Y-85845237D02*
X56922271Y-85607142D01*
D13*
%TO.C,REF\u002A\u002A*%
X54000000Y-87250000D02*
G75*
G02*
X49000000Y-87250000I-2500000J0D01*
G01*
X49000000Y-87250000D02*
G75*
G02*
X54000000Y-87250000I2500000J0D01*
G01*
D14*
%TA.AperFunction,EtchedComponent*%
G36*
X51658125Y-86028682D02*
G01*
X51807986Y-86038163D01*
X51958025Y-86054835D01*
X52106685Y-86079411D01*
X52252406Y-86112602D01*
X52393631Y-86155120D01*
X52528801Y-86207678D01*
X52593629Y-86237945D01*
X52656358Y-86270989D01*
X52716795Y-86306898D01*
X52774745Y-86345763D01*
X52830012Y-86387672D01*
X52882402Y-86432713D01*
X52931720Y-86480977D01*
X52977771Y-86532552D01*
X53020361Y-86587528D01*
X53059295Y-86645992D01*
X53094378Y-86708035D01*
X53125415Y-86773744D01*
X53152211Y-86843210D01*
X53174572Y-86916522D01*
X53192304Y-86993767D01*
X53205210Y-87075036D01*
X53213096Y-87160417D01*
X53215769Y-87250000D01*
X53213096Y-87339591D01*
X53205210Y-87424980D01*
X53192304Y-87506256D01*
X53174572Y-87583508D01*
X53152211Y-87656826D01*
X53125415Y-87726298D01*
X53094378Y-87792013D01*
X53059295Y-87854061D01*
X53020361Y-87912530D01*
X52977771Y-87967510D01*
X52931720Y-88019089D01*
X52882402Y-88067356D01*
X52830012Y-88112401D01*
X52774745Y-88154313D01*
X52716795Y-88193180D01*
X52656358Y-88229092D01*
X52593629Y-88262138D01*
X52528801Y-88292406D01*
X52462070Y-88319986D01*
X52393631Y-88344967D01*
X52323678Y-88367438D01*
X52252406Y-88387488D01*
X52106685Y-88420680D01*
X51958025Y-88445256D01*
X51807986Y-88461929D01*
X51658125Y-88471410D01*
X51510093Y-88474410D01*
X51510000Y-88474412D01*
X51361860Y-88471411D01*
X51211987Y-88461933D01*
X51061940Y-88445264D01*
X50913276Y-88420693D01*
X50767553Y-88387506D01*
X50627868Y-88345455D01*
X50626328Y-88344992D01*
X50491160Y-88292436D01*
X50426334Y-88262170D01*
X50363607Y-88229127D01*
X50303172Y-88193217D01*
X50245225Y-88154351D01*
X50189961Y-88112441D01*
X50137574Y-88067397D01*
X50088259Y-88019130D01*
X50042210Y-87967551D01*
X49999623Y-87912571D01*
X49960692Y-87854100D01*
X49925612Y-87792051D01*
X49907751Y-87754229D01*
X51099208Y-87754229D01*
X51155814Y-87760955D01*
X51211735Y-87766242D01*
X51266565Y-87770257D01*
X51319895Y-87773167D01*
X51371321Y-87775140D01*
X51420433Y-87776342D01*
X51510093Y-87777103D01*
X51654703Y-87775093D01*
X51736131Y-87771581D01*
X51821509Y-87765507D01*
X51909239Y-87756205D01*
X51997725Y-87743007D01*
X52085367Y-87725246D01*
X52170568Y-87702255D01*
X52251730Y-87673368D01*
X52290297Y-87656504D01*
X52327255Y-87637916D01*
X52362405Y-87617520D01*
X52395545Y-87595233D01*
X52426478Y-87570971D01*
X52455002Y-87544652D01*
X52480919Y-87516191D01*
X52504028Y-87485505D01*
X52524130Y-87452511D01*
X52541025Y-87417125D01*
X52554513Y-87379265D01*
X52564395Y-87338846D01*
X52570470Y-87295785D01*
X52572540Y-87250000D01*
X52572261Y-87235264D01*
X52571453Y-87220843D01*
X52570162Y-87206718D01*
X52568431Y-87192875D01*
X52566305Y-87179296D01*
X52563828Y-87165966D01*
X52561045Y-87152868D01*
X52558001Y-87139986D01*
X52546338Y-87127211D01*
X52534120Y-87115377D01*
X52527798Y-87109843D01*
X52521332Y-87104580D01*
X52514720Y-87099601D01*
X52507960Y-87094918D01*
X52501050Y-87090543D01*
X52493989Y-87086487D01*
X52486774Y-87082764D01*
X52479404Y-87079384D01*
X52471877Y-87076361D01*
X52464191Y-87073706D01*
X52456344Y-87071431D01*
X52448335Y-87069549D01*
X52440161Y-87068071D01*
X52431821Y-87067010D01*
X52423313Y-87066378D01*
X52414635Y-87066186D01*
X52405785Y-87066447D01*
X52396762Y-87067173D01*
X52387563Y-87068376D01*
X52378187Y-87070069D01*
X52368632Y-87072262D01*
X52358896Y-87074969D01*
X52348978Y-87078201D01*
X52338874Y-87081971D01*
X52328585Y-87086290D01*
X52318107Y-87091171D01*
X52307439Y-87096626D01*
X52296580Y-87102667D01*
X51099208Y-87754229D01*
X49907751Y-87754229D01*
X49894577Y-87726333D01*
X49867783Y-87656857D01*
X49845424Y-87583535D01*
X49827694Y-87506277D01*
X49814789Y-87424995D01*
X49806903Y-87339599D01*
X49804231Y-87250000D01*
X49804237Y-87249815D01*
X50447367Y-87249815D01*
X50447563Y-87264531D01*
X50448150Y-87278959D01*
X50449130Y-87293105D01*
X50450504Y-87306975D01*
X50452273Y-87320576D01*
X50454438Y-87333914D01*
X50457001Y-87346996D01*
X50459961Y-87359829D01*
X50461439Y-87364601D01*
X50462960Y-87369251D01*
X50464532Y-87373867D01*
X50466166Y-87378534D01*
X50468461Y-87386391D01*
X50470912Y-87394300D01*
X50472202Y-87398226D01*
X50473537Y-87402105D01*
X50474920Y-87405920D01*
X50476353Y-87409650D01*
X50485753Y-87430141D01*
X50496097Y-87449469D01*
X50501635Y-87458636D01*
X50507425Y-87467441D01*
X50513471Y-87475859D01*
X50519778Y-87483866D01*
X50526352Y-87491439D01*
X50533197Y-87498553D01*
X50540319Y-87505184D01*
X50547722Y-87511309D01*
X50555412Y-87516904D01*
X50563394Y-87521945D01*
X50571673Y-87526407D01*
X50580254Y-87530267D01*
X50589143Y-87533500D01*
X50598343Y-87536084D01*
X50607861Y-87537993D01*
X50617701Y-87539205D01*
X50627868Y-87539695D01*
X50638368Y-87539438D01*
X50649206Y-87538412D01*
X50660386Y-87536593D01*
X50671914Y-87533955D01*
X50683795Y-87530476D01*
X50696034Y-87526131D01*
X50708636Y-87520897D01*
X50721607Y-87514749D01*
X50734950Y-87507664D01*
X50748672Y-87499618D01*
X50762777Y-87490586D01*
X52020527Y-86762346D01*
X51951374Y-86750734D01*
X51882221Y-86741610D01*
X51813829Y-86734685D01*
X51746962Y-86729669D01*
X51682383Y-86726272D01*
X51620854Y-86724204D01*
X51510000Y-86722897D01*
X51365355Y-86724906D01*
X51283910Y-86728418D01*
X51198516Y-86734490D01*
X51110769Y-86743790D01*
X51022268Y-86756984D01*
X50934611Y-86774738D01*
X50849397Y-86797721D01*
X50768222Y-86826599D01*
X50729649Y-86843457D01*
X50692686Y-86862039D01*
X50657532Y-86882427D01*
X50624386Y-86904706D01*
X50593449Y-86928960D01*
X50564921Y-86955270D01*
X50539001Y-86983721D01*
X50515888Y-87014395D01*
X50495784Y-87047378D01*
X50478887Y-87082750D01*
X50465397Y-87120597D01*
X50455514Y-87161001D01*
X50449437Y-87204046D01*
X50447367Y-87249815D01*
X49804237Y-87249815D01*
X49806903Y-87160417D01*
X49814789Y-87075036D01*
X49827694Y-86993767D01*
X49845424Y-86916522D01*
X49867783Y-86843210D01*
X49894577Y-86773744D01*
X49925612Y-86708035D01*
X49960692Y-86645992D01*
X49999623Y-86587528D01*
X50042210Y-86532552D01*
X50088259Y-86480977D01*
X50137574Y-86432713D01*
X50189961Y-86387672D01*
X50245225Y-86345763D01*
X50303172Y-86306898D01*
X50363607Y-86270989D01*
X50426335Y-86237945D01*
X50491160Y-86207678D01*
X50557890Y-86180100D01*
X50626328Y-86155120D01*
X50696281Y-86132650D01*
X50767553Y-86112602D01*
X50913276Y-86079411D01*
X51061940Y-86054835D01*
X51211987Y-86038163D01*
X51361860Y-86028682D01*
X51510000Y-86025680D01*
X51658125Y-86028682D01*
G37*
%TD.AperFunction*%
D13*
X45500000Y-100749360D02*
G75*
G02*
X40500000Y-100749360I-2500000J0D01*
G01*
X40500000Y-100749360D02*
G75*
G02*
X45500000Y-100749360I2500000J0D01*
G01*
D14*
%TA.AperFunction,EtchedComponent*%
G36*
X42997273Y-99948626D02*
G01*
X43208874Y-100424982D01*
X43325277Y-100684274D01*
X43494743Y-101059969D01*
X43499378Y-101063165D01*
X43504011Y-101066154D01*
X43508642Y-101068938D01*
X43513272Y-101071515D01*
X43517901Y-101073887D01*
X43522530Y-101076052D01*
X43527157Y-101078010D01*
X43531785Y-101079763D01*
X43536412Y-101081309D01*
X43541040Y-101082650D01*
X43545668Y-101083784D01*
X43550297Y-101084712D01*
X43554927Y-101085433D01*
X43559558Y-101085949D01*
X43564191Y-101086258D01*
X43568826Y-101086361D01*
X43584408Y-101085937D01*
X43591982Y-101085406D01*
X43599411Y-101084664D01*
X43606697Y-101083709D01*
X43613838Y-101082543D01*
X43620834Y-101081164D01*
X43627686Y-101079573D01*
X43634394Y-101077771D01*
X43640957Y-101075756D01*
X43647376Y-101073529D01*
X43653650Y-101071091D01*
X43659779Y-101068440D01*
X43665764Y-101065577D01*
X43671605Y-101062503D01*
X43677300Y-101059216D01*
X43682852Y-101055718D01*
X43688258Y-101052008D01*
X43693520Y-101048086D01*
X43698638Y-101043952D01*
X43703610Y-101039606D01*
X43708438Y-101035049D01*
X43713121Y-101030280D01*
X43717660Y-101025299D01*
X43722054Y-101020106D01*
X43726303Y-101014701D01*
X43730407Y-101009085D01*
X43734367Y-101003257D01*
X43738181Y-100997218D01*
X43741851Y-100990966D01*
X43745376Y-100984503D01*
X43748756Y-100977829D01*
X43755149Y-100964172D01*
X43761132Y-100950286D01*
X43766703Y-100936173D01*
X43771864Y-100921831D01*
X43776613Y-100907261D01*
X43780951Y-100892462D01*
X43784877Y-100877434D01*
X43788391Y-100862178D01*
X43791492Y-100846693D01*
X43794181Y-100830978D01*
X43796457Y-100815034D01*
X43798320Y-100798861D01*
X43799769Y-100782459D01*
X43800804Y-100765826D01*
X43801426Y-100748964D01*
X43801633Y-100731872D01*
X43800952Y-100699499D01*
X43798907Y-100667214D01*
X43795499Y-100635016D01*
X43790728Y-100602904D01*
X43784593Y-100570876D01*
X43777094Y-100538932D01*
X43768231Y-100507070D01*
X43758005Y-100475289D01*
X43746414Y-100443589D01*
X43733460Y-100411968D01*
X43719140Y-100380426D01*
X43703457Y-100348960D01*
X43686408Y-100317570D01*
X43667995Y-100286255D01*
X43648217Y-100255014D01*
X43627074Y-100223846D01*
X44023976Y-99837501D01*
X44054806Y-99879462D01*
X44083818Y-99922000D01*
X44111012Y-99965116D01*
X44136387Y-100008810D01*
X44159944Y-100053083D01*
X44181683Y-100097934D01*
X44201603Y-100143365D01*
X44219706Y-100189374D01*
X44235991Y-100235963D01*
X44250459Y-100283132D01*
X44263109Y-100330880D01*
X44273942Y-100379210D01*
X44282957Y-100428119D01*
X44290156Y-100477610D01*
X44295538Y-100527681D01*
X44299103Y-100578334D01*
X44754252Y-100578334D01*
X44754252Y-100922359D01*
X44299103Y-100922359D01*
X44296621Y-100956504D01*
X44293169Y-100990110D01*
X44288746Y-101023178D01*
X44283354Y-101055706D01*
X44276991Y-101087695D01*
X44269659Y-101119145D01*
X44261356Y-101150054D01*
X44252083Y-101180424D01*
X44241839Y-101210253D01*
X44230626Y-101239541D01*
X44218442Y-101268288D01*
X44205289Y-101296494D01*
X44191165Y-101324159D01*
X44176071Y-101351282D01*
X44160006Y-101377862D01*
X44142972Y-101403901D01*
X44125090Y-101429201D01*
X44106483Y-101453465D01*
X44087152Y-101476691D01*
X44067096Y-101498881D01*
X44046316Y-101520034D01*
X44024811Y-101540151D01*
X44002582Y-101559233D01*
X43979630Y-101577279D01*
X43955953Y-101594290D01*
X43931553Y-101610265D01*
X43906430Y-101625206D01*
X43880582Y-101639112D01*
X43854012Y-101651985D01*
X43826718Y-101663823D01*
X43798702Y-101674628D01*
X43769962Y-101684399D01*
X44277896Y-102816855D01*
X43754035Y-103081425D01*
X43077006Y-101567995D01*
X42870591Y-101097010D01*
X42711775Y-100747800D01*
X42590000Y-100462116D01*
X42581241Y-100452510D01*
X42572151Y-100443521D01*
X42562730Y-100435149D01*
X42552979Y-100427394D01*
X42542897Y-100420258D01*
X42532484Y-100413740D01*
X42521739Y-100407840D01*
X42510662Y-100402560D01*
X42499253Y-100397900D01*
X42487512Y-100393860D01*
X42475438Y-100390440D01*
X42463031Y-100387641D01*
X42450292Y-100385463D01*
X42437218Y-100383907D01*
X42423811Y-100382973D01*
X42410070Y-100382662D01*
X42390544Y-100383087D01*
X42371727Y-100384363D01*
X42353619Y-100386488D01*
X42336220Y-100389463D01*
X42327786Y-100391268D01*
X42319529Y-100393286D01*
X42311448Y-100395515D01*
X42303545Y-100397957D01*
X42295818Y-100400610D01*
X42288269Y-100403476D01*
X42280896Y-100406553D01*
X42273699Y-100409841D01*
X42266679Y-100413342D01*
X42259836Y-100417054D01*
X42253169Y-100420977D01*
X42246679Y-100425112D01*
X42240365Y-100429458D01*
X42234228Y-100434015D01*
X42228267Y-100438784D01*
X42222482Y-100443764D01*
X42216873Y-100448954D01*
X42211441Y-100454356D01*
X42206184Y-100459969D01*
X42201104Y-100465792D01*
X42196199Y-100471827D01*
X42191471Y-100478072D01*
X42186918Y-100484528D01*
X42182542Y-100491194D01*
X42174185Y-100504948D01*
X42166371Y-100519053D01*
X42159102Y-100533509D01*
X42152375Y-100548316D01*
X42146190Y-100563474D01*
X42140546Y-100578982D01*
X42135443Y-100594839D01*
X42130880Y-100611047D01*
X42126857Y-100627604D01*
X42123372Y-100644510D01*
X42120425Y-100661765D01*
X42118016Y-100679369D01*
X42116143Y-100697321D01*
X42114806Y-100715621D01*
X42114004Y-100734269D01*
X42113737Y-100753264D01*
X42114791Y-100799262D01*
X42117952Y-100844642D01*
X42123221Y-100889402D01*
X42130597Y-100933542D01*
X42140080Y-100977063D01*
X42151671Y-101019962D01*
X42165370Y-101062241D01*
X42181176Y-101103898D01*
X42199089Y-101144933D01*
X42219110Y-101185346D01*
X42241239Y-101225137D01*
X42265475Y-101264304D01*
X42291818Y-101302848D01*
X42320269Y-101340768D01*
X42350827Y-101378064D01*
X42383493Y-101414735D01*
X41970756Y-101822194D01*
X41928432Y-101770951D01*
X41888797Y-101719043D01*
X41851852Y-101666470D01*
X41817596Y-101613231D01*
X41786030Y-101559327D01*
X41757154Y-101504760D01*
X41730967Y-101449528D01*
X41707471Y-101393633D01*
X41686665Y-101337075D01*
X41668549Y-101279854D01*
X41653124Y-101221971D01*
X41640389Y-101163426D01*
X41630346Y-101104220D01*
X41622993Y-101044353D01*
X41618331Y-100983825D01*
X41616360Y-100922637D01*
X41161210Y-100922637D01*
X41161210Y-100578705D01*
X41616360Y-100578705D01*
X41620234Y-100540671D01*
X41625292Y-100503278D01*
X41631535Y-100466527D01*
X41638960Y-100430416D01*
X41647567Y-100394944D01*
X41657356Y-100360112D01*
X41668326Y-100325918D01*
X41680477Y-100292362D01*
X41693807Y-100259442D01*
X41708316Y-100227159D01*
X41724003Y-100195512D01*
X41740868Y-100164500D01*
X41758909Y-100134122D01*
X41778127Y-100104377D01*
X41798521Y-100075266D01*
X41820089Y-100046787D01*
X41842631Y-100019344D01*
X41865981Y-99993203D01*
X41890138Y-99968364D01*
X41915103Y-99944825D01*
X41940875Y-99922588D01*
X41967456Y-99901650D01*
X41994845Y-99882012D01*
X42023043Y-99863674D01*
X42052049Y-99846634D01*
X42081863Y-99830894D01*
X42112487Y-99816451D01*
X42143919Y-99803306D01*
X42176160Y-99791458D01*
X42209210Y-99780908D01*
X42243070Y-99771654D01*
X42277739Y-99763696D01*
X41780362Y-98647260D01*
X42319967Y-98430196D01*
X42997273Y-99948626D01*
G37*
%TD.AperFunction*%
%TA.AperFunction,EtchedComponent*%
%TO.C,G\u002A\u002A\u002A*%
G36*
X80527171Y-89797835D02*
G01*
X80586788Y-89809063D01*
X80650653Y-89828295D01*
X80712165Y-89852101D01*
X80848123Y-89922505D01*
X80989219Y-90017035D01*
X81126613Y-90130084D01*
X81138249Y-90140493D01*
X81201138Y-90193988D01*
X81282537Y-90260228D01*
X81373203Y-90331784D01*
X81463891Y-90401223D01*
X81497331Y-90426491D01*
X81579644Y-90490464D01*
X81638093Y-90539926D01*
X81677796Y-90579836D01*
X81703871Y-90615156D01*
X81721436Y-90650846D01*
X81737281Y-90701037D01*
X81742809Y-90793634D01*
X81716539Y-90890528D01*
X81657437Y-90997319D01*
X81611057Y-91061333D01*
X81560485Y-91117740D01*
X81498721Y-91172640D01*
X81418568Y-91232426D01*
X81312830Y-91303492D01*
X81270360Y-91332561D01*
X81188804Y-91392844D01*
X81100763Y-91462041D01*
X81019097Y-91530227D01*
X80995067Y-91550905D01*
X80891697Y-91634477D01*
X80801382Y-91696358D01*
X80715100Y-91742196D01*
X80623827Y-91777636D01*
X80565884Y-91789849D01*
X80468006Y-91796682D01*
X80335191Y-91795908D01*
X80304762Y-91794880D01*
X80211340Y-91789321D01*
X80130652Y-91778694D01*
X80055390Y-91760435D01*
X79978245Y-91731978D01*
X79891908Y-91690757D01*
X79789069Y-91634207D01*
X79662419Y-91559762D01*
X79634194Y-91543103D01*
X79530554Y-91484819D01*
X79426045Y-91429871D01*
X79331445Y-91383785D01*
X79257534Y-91352091D01*
X79162101Y-91312358D01*
X79000200Y-91225504D01*
X78862072Y-91124645D01*
X78752149Y-91013262D01*
X78674866Y-90894832D01*
X78650727Y-90834103D01*
X78631489Y-90726370D01*
X78639495Y-90622034D01*
X78674746Y-90532091D01*
X78696076Y-90499800D01*
X78726102Y-90462881D01*
X78762891Y-90428979D01*
X78810498Y-90395905D01*
X78872981Y-90361473D01*
X78954394Y-90323494D01*
X79058794Y-90279782D01*
X79190237Y-90228148D01*
X79352778Y-90166405D01*
X79398741Y-90147753D01*
X79490253Y-90106040D01*
X79589843Y-90056406D01*
X79682846Y-90005980D01*
X79711377Y-89989823D01*
X79851296Y-89916025D01*
X79974136Y-89862761D01*
X80089398Y-89826965D01*
X80206583Y-89805571D01*
X80335191Y-89795515D01*
X80371079Y-89794237D01*
X80459402Y-89793322D01*
X80527171Y-89797835D01*
G37*
%TD.AperFunction*%
%TA.AperFunction,EtchedComponent*%
G36*
X84097081Y-96750033D02*
G01*
X84172177Y-96762312D01*
X84240984Y-96786724D01*
X84307929Y-96826454D01*
X84377436Y-96884687D01*
X84453933Y-96964610D01*
X84541847Y-97069406D01*
X84645602Y-97202263D01*
X84728698Y-97309456D01*
X84810331Y-97408881D01*
X84882730Y-97486879D01*
X84952315Y-97548372D01*
X85025505Y-97598285D01*
X85108721Y-97641539D01*
X85208383Y-97683057D01*
X85330909Y-97727762D01*
X85371461Y-97742228D01*
X85509302Y-97795508D01*
X85617685Y-97846256D01*
X85702219Y-97898373D01*
X85768513Y-97955760D01*
X85822173Y-98022317D01*
X85868807Y-98101947D01*
X85893491Y-98164357D01*
X85912690Y-98264237D01*
X85917848Y-98389132D01*
X85909054Y-98542237D01*
X85886399Y-98726749D01*
X85866440Y-98874269D01*
X85852747Y-99012990D01*
X85848487Y-99129113D01*
X85853731Y-99229779D01*
X85868546Y-99322127D01*
X85893001Y-99413298D01*
X85935696Y-99559105D01*
X85975777Y-99734972D01*
X85994558Y-99884526D01*
X85992286Y-100010045D01*
X85969209Y-100113806D01*
X85956400Y-100145899D01*
X85924298Y-100202857D01*
X85880563Y-100252075D01*
X85821998Y-100294736D01*
X85745407Y-100332018D01*
X85647593Y-100365103D01*
X85525359Y-100395171D01*
X85375510Y-100423402D01*
X85194850Y-100450977D01*
X84980181Y-100479077D01*
X84924543Y-100486003D01*
X84723260Y-100512322D01*
X84551531Y-100537580D01*
X84403305Y-100563326D01*
X84272527Y-100591110D01*
X84153143Y-100622482D01*
X84039099Y-100658991D01*
X83924343Y-100702187D01*
X83802819Y-100753619D01*
X83668475Y-100814837D01*
X83419131Y-100923179D01*
X83188603Y-101006058D01*
X82972448Y-101064747D01*
X82765323Y-101100938D01*
X82686652Y-101108908D01*
X82481266Y-101111925D01*
X82287061Y-101089336D01*
X82107709Y-101042598D01*
X81946881Y-100973169D01*
X81808246Y-100882505D01*
X81695477Y-100772062D01*
X81612243Y-100643298D01*
X81601290Y-100619348D01*
X81566801Y-100524144D01*
X81537314Y-100415195D01*
X81516663Y-100308212D01*
X81508682Y-100218905D01*
X81509268Y-100191001D01*
X81522730Y-100089261D01*
X81554861Y-99977423D01*
X81606886Y-99853301D01*
X81680032Y-99714711D01*
X81775523Y-99559470D01*
X81894586Y-99385393D01*
X82038446Y-99190296D01*
X82208329Y-98971994D01*
X82261758Y-98904606D01*
X82346303Y-98796736D01*
X82419822Y-98700391D01*
X82485480Y-98610634D01*
X82546445Y-98522532D01*
X82605883Y-98431149D01*
X82666962Y-98331551D01*
X82732846Y-98218802D01*
X82806704Y-98087968D01*
X82891703Y-97934114D01*
X82991008Y-97752305D01*
X83049758Y-97644547D01*
X83123477Y-97510144D01*
X83183922Y-97401670D01*
X83233699Y-97315027D01*
X83275415Y-97246119D01*
X83311677Y-97190849D01*
X83345093Y-97145121D01*
X83378268Y-97104838D01*
X83413810Y-97065903D01*
X83454326Y-97024220D01*
X83559556Y-96925286D01*
X83670324Y-96842221D01*
X83778334Y-96786961D01*
X83890205Y-96756218D01*
X84012553Y-96746701D01*
X84097081Y-96750033D01*
G37*
%TD.AperFunction*%
%TA.AperFunction,EtchedComponent*%
G36*
X77308166Y-96732886D02*
G01*
X77352793Y-96763650D01*
X77404058Y-96806874D01*
X77454364Y-96856377D01*
X77496112Y-96905980D01*
X77524243Y-96946499D01*
X77580155Y-97043749D01*
X77628539Y-97154989D01*
X77670119Y-97283531D01*
X77705620Y-97432684D01*
X77735765Y-97605759D01*
X77761278Y-97806065D01*
X77782883Y-98036913D01*
X77801303Y-98301613D01*
X77804972Y-98359493D01*
X77813206Y-98466516D01*
X77823491Y-98563793D01*
X77837110Y-98657796D01*
X77855346Y-98755001D01*
X77879480Y-98861882D01*
X77910795Y-98984913D01*
X77950574Y-99130569D01*
X78000098Y-99305323D01*
X78004991Y-99322441D01*
X78071798Y-99563705D01*
X78125192Y-99774130D01*
X78165414Y-99957290D01*
X78192700Y-100116754D01*
X78207289Y-100256096D01*
X78209418Y-100378887D01*
X78199326Y-100488699D01*
X78177250Y-100589102D01*
X78143429Y-100683670D01*
X78098101Y-100775974D01*
X78083407Y-100801712D01*
X77971603Y-100956296D01*
X77835149Y-101084929D01*
X77677623Y-101184747D01*
X77502601Y-101252884D01*
X77458285Y-101262728D01*
X77350451Y-101274158D01*
X77224994Y-101275562D01*
X77093850Y-101267463D01*
X76968955Y-101250384D01*
X76862244Y-101224847D01*
X76831032Y-101214548D01*
X76660377Y-101145064D01*
X76484779Y-101053699D01*
X76318176Y-100947558D01*
X76304568Y-100937867D01*
X76250907Y-100897700D01*
X76196080Y-100852888D01*
X76136061Y-100799653D01*
X76066824Y-100734217D01*
X75984346Y-100652801D01*
X75884601Y-100551628D01*
X75763563Y-100426917D01*
X75746577Y-100409499D01*
X75651540Y-100318522D01*
X75549890Y-100232965D01*
X75436922Y-100149733D01*
X75307932Y-100065727D01*
X75158213Y-99977853D01*
X74983063Y-99883013D01*
X74777775Y-99778111D01*
X74672397Y-99725060D01*
X74521233Y-99647067D01*
X74398478Y-99580623D01*
X74300602Y-99523511D01*
X74224077Y-99473511D01*
X74165372Y-99428404D01*
X74120960Y-99385972D01*
X74087311Y-99343996D01*
X74049146Y-99272361D01*
X74028854Y-99177000D01*
X74037713Y-99070943D01*
X74076297Y-98952524D01*
X74145179Y-98820079D01*
X74244935Y-98671943D01*
X74376137Y-98506452D01*
X74377537Y-98504787D01*
X74436147Y-98431903D01*
X74483912Y-98363386D01*
X74523819Y-98292416D01*
X74558855Y-98212168D01*
X74592007Y-98115821D01*
X74626260Y-97996554D01*
X74664603Y-97847544D01*
X74665469Y-97844069D01*
X74708414Y-97680996D01*
X74748497Y-97549837D01*
X74787815Y-97445694D01*
X74828467Y-97363669D01*
X74872552Y-97298863D01*
X74922168Y-97246379D01*
X74969605Y-97206574D01*
X75047250Y-97156944D01*
X75132997Y-97123915D01*
X75236347Y-97104245D01*
X75366800Y-97094694D01*
X75565931Y-97087154D01*
X75678689Y-97186942D01*
X75748877Y-97245800D01*
X75903094Y-97355362D01*
X76063158Y-97445141D01*
X76224229Y-97513576D01*
X76381469Y-97559107D01*
X76530038Y-97580173D01*
X76665099Y-97575215D01*
X76781812Y-97542671D01*
X76830205Y-97518269D01*
X76947009Y-97432449D01*
X77049976Y-97317467D01*
X77135803Y-97178301D01*
X77201190Y-97019931D01*
X77242835Y-96847336D01*
X77252527Y-96792912D01*
X77263168Y-96744958D01*
X77270946Y-96722847D01*
X77277776Y-96720761D01*
X77308166Y-96732886D01*
G37*
%TD.AperFunction*%
%TA.AperFunction,EtchedComponent*%
%TO.C,REF\u002A\u002A*%
G36*
X41150000Y-86800000D02*
G01*
X43000000Y-86800000D01*
X43000000Y-87700000D01*
X41150000Y-87700000D01*
X41150000Y-86800000D01*
G37*
%TD.AperFunction*%
%TA.AperFunction,EtchedComponent*%
G36*
X42600000Y-86450000D02*
G01*
X42800000Y-86450000D01*
X42800000Y-88050000D01*
X42600000Y-88050000D01*
X42600000Y-86450000D01*
G37*
%TD.AperFunction*%
D13*
X42800000Y-86650000D02*
X43800000Y-86650000D01*
X43800000Y-87850000D01*
X42800000Y-87850000D01*
X42800000Y-86650000D01*
%TA.AperFunction,EtchedComponent*%
G36*
X42800000Y-86650000D02*
G01*
X43800000Y-86650000D01*
X43800000Y-87850000D01*
X42800000Y-87850000D01*
X42800000Y-86650000D01*
G37*
%TD.AperFunction*%
X45500000Y-87249360D02*
G75*
G02*
X40500000Y-87249360I-2500000J0D01*
G01*
X40500000Y-87249360D02*
G75*
G02*
X45500000Y-87249360I2500000J0D01*
G01*
X44790000Y-87250000D02*
G75*
G02*
X44390000Y-87250000I-200000J0D01*
G01*
X44390000Y-87250000D02*
G75*
G02*
X44790000Y-87250000I200000J0D01*
G01*
X54000000Y-93999360D02*
G75*
G02*
X49000000Y-93999360I-2500000J0D01*
G01*
X49000000Y-93999360D02*
G75*
G02*
X54000000Y-93999360I2500000J0D01*
G01*
D14*
%TA.AperFunction,EtchedComponent*%
G36*
X51584881Y-92474420D02*
G01*
X51669871Y-92479258D01*
X51752878Y-92487321D01*
X51833903Y-92498608D01*
X51912946Y-92513120D01*
X51990005Y-92530857D01*
X52065082Y-92551818D01*
X52138175Y-92576003D01*
X52209284Y-92603413D01*
X52278409Y-92634047D01*
X52345550Y-92667904D01*
X52410706Y-92704985D01*
X52473877Y-92745290D01*
X52535063Y-92788818D01*
X52594264Y-92835570D01*
X52651479Y-92885544D01*
X52705913Y-92938250D01*
X52756839Y-92993191D01*
X52804256Y-93050369D01*
X52848165Y-93109783D01*
X52888564Y-93171430D01*
X52925452Y-93235312D01*
X52958830Y-93301426D01*
X52988697Y-93369772D01*
X53015053Y-93440349D01*
X53037895Y-93513156D01*
X53057226Y-93588194D01*
X53073042Y-93665460D01*
X53085345Y-93744953D01*
X53094134Y-93826674D01*
X53099407Y-93910622D01*
X53101165Y-93996794D01*
X53099997Y-94059708D01*
X53096494Y-94121420D01*
X53090656Y-94181929D01*
X53082482Y-94241237D01*
X53071973Y-94299344D01*
X53059129Y-94356250D01*
X53043949Y-94411955D01*
X53026434Y-94466459D01*
X53006583Y-94519764D01*
X52984397Y-94571868D01*
X52959876Y-94622773D01*
X52933019Y-94672478D01*
X52903827Y-94720984D01*
X52872300Y-94768291D01*
X52838437Y-94814399D01*
X52802239Y-94859309D01*
X52763912Y-94902582D01*
X52723661Y-94943743D01*
X52681488Y-94982793D01*
X52637392Y-95019732D01*
X52591373Y-95054560D01*
X52543431Y-95087277D01*
X52493565Y-95117885D01*
X52441777Y-95146382D01*
X52388066Y-95172770D01*
X52332432Y-95197049D01*
X52274875Y-95219218D01*
X52215395Y-95239279D01*
X52153992Y-95257231D01*
X52090666Y-95273075D01*
X52025417Y-95286810D01*
X51958245Y-95298438D01*
X51958337Y-95531060D01*
X51370949Y-94943671D01*
X51958337Y-94356376D01*
X51958337Y-94573347D01*
X52021767Y-94562068D01*
X52051948Y-94554909D01*
X52081104Y-94546738D01*
X52109238Y-94537553D01*
X52136348Y-94527357D01*
X52162435Y-94516147D01*
X52187499Y-94503925D01*
X52211540Y-94490689D01*
X52234557Y-94476441D01*
X52256551Y-94461180D01*
X52277523Y-94444905D01*
X52297470Y-94427618D01*
X52316395Y-94409317D01*
X52334297Y-94390003D01*
X52351176Y-94369676D01*
X52367031Y-94348336D01*
X52381864Y-94325982D01*
X52395673Y-94302615D01*
X52408459Y-94278234D01*
X52420223Y-94252840D01*
X52430963Y-94226432D01*
X52440681Y-94199011D01*
X52449375Y-94170576D01*
X52463695Y-94110664D01*
X52473924Y-94046698D01*
X52480061Y-93978676D01*
X52482106Y-93906597D01*
X52481145Y-93866154D01*
X52478261Y-93826916D01*
X52473454Y-93788884D01*
X52466724Y-93752055D01*
X52458072Y-93716431D01*
X52447498Y-93682009D01*
X52435001Y-93648788D01*
X52420582Y-93616769D01*
X52404242Y-93585950D01*
X52385980Y-93556331D01*
X52365796Y-93527910D01*
X52343691Y-93500687D01*
X52319664Y-93474661D01*
X52293716Y-93449831D01*
X52265847Y-93426197D01*
X52236057Y-93403757D01*
X52204412Y-93382629D01*
X52171014Y-93362862D01*
X52135860Y-93344457D01*
X52098952Y-93327413D01*
X52060289Y-93311732D01*
X52019870Y-93297412D01*
X51977694Y-93284455D01*
X51933762Y-93272861D01*
X51888074Y-93262630D01*
X51840627Y-93253762D01*
X51791423Y-93246257D01*
X51740461Y-93240117D01*
X51687741Y-93235340D01*
X51633261Y-93231928D01*
X51577022Y-93229880D01*
X51519023Y-93229198D01*
X51463518Y-93229942D01*
X51409414Y-93232176D01*
X51356711Y-93235899D01*
X51305410Y-93241111D01*
X51255511Y-93247812D01*
X51207016Y-93256003D01*
X51159925Y-93265684D01*
X51114239Y-93276854D01*
X51069958Y-93289515D01*
X51027082Y-93303666D01*
X50985614Y-93319307D01*
X50945553Y-93336438D01*
X50906900Y-93355060D01*
X50869656Y-93375172D01*
X50833821Y-93396776D01*
X50799396Y-93419870D01*
X50766729Y-93444153D01*
X50736168Y-93469389D01*
X50707713Y-93495580D01*
X50681363Y-93522723D01*
X50657120Y-93550819D01*
X50634984Y-93579866D01*
X50614955Y-93609864D01*
X50597033Y-93640812D01*
X50581218Y-93672710D01*
X50567511Y-93705557D01*
X50555912Y-93739352D01*
X50546422Y-93774094D01*
X50539039Y-93809783D01*
X50533766Y-93846419D01*
X50530602Y-93884000D01*
X50529547Y-93922525D01*
X50530074Y-93960974D01*
X50531656Y-93998254D01*
X50534292Y-94034367D01*
X50537981Y-94069310D01*
X50542726Y-94103086D01*
X50548524Y-94135694D01*
X50555377Y-94167133D01*
X50563284Y-94197404D01*
X50572245Y-94226507D01*
X50582261Y-94254441D01*
X50593331Y-94281207D01*
X50605455Y-94306805D01*
X50618634Y-94331235D01*
X50632866Y-94354497D01*
X50648153Y-94376590D01*
X50664495Y-94397516D01*
X50681890Y-94417273D01*
X50700340Y-94435861D01*
X50719844Y-94453282D01*
X50740403Y-94469534D01*
X50762015Y-94484618D01*
X50784682Y-94498534D01*
X50808403Y-94511282D01*
X50833179Y-94522861D01*
X50859009Y-94533272D01*
X50885893Y-94542515D01*
X50913831Y-94550590D01*
X50942824Y-94557497D01*
X50972871Y-94563235D01*
X51003972Y-94567805D01*
X51036127Y-94571207D01*
X51069337Y-94573440D01*
X51069337Y-95319737D01*
X51000877Y-95309330D01*
X50934402Y-95296652D01*
X50869913Y-95281703D01*
X50807409Y-95264483D01*
X50746890Y-95244991D01*
X50688355Y-95223226D01*
X50631805Y-95199189D01*
X50577238Y-95172878D01*
X50524656Y-95144295D01*
X50474057Y-95113437D01*
X50425441Y-95080305D01*
X50378808Y-95044898D01*
X50334158Y-95007216D01*
X50291490Y-94967259D01*
X50250804Y-94925025D01*
X50212100Y-94880516D01*
X50175567Y-94834347D01*
X50141392Y-94787101D01*
X50109576Y-94738780D01*
X50080119Y-94689382D01*
X50053020Y-94638908D01*
X50028278Y-94587359D01*
X50005895Y-94534734D01*
X49985868Y-94481033D01*
X49968199Y-94426257D01*
X49952886Y-94370405D01*
X49939930Y-94313478D01*
X49929330Y-94255477D01*
X49921087Y-94196400D01*
X49915199Y-94136249D01*
X49911666Y-94075023D01*
X49910488Y-94012722D01*
X49912257Y-93928360D01*
X49917563Y-93845990D01*
X49926406Y-93765610D01*
X49938785Y-93687219D01*
X49954699Y-93610816D01*
X49974149Y-93536400D01*
X49997133Y-93463970D01*
X50023651Y-93393524D01*
X50053702Y-93325063D01*
X50087287Y-93258584D01*
X50124403Y-93194087D01*
X50165052Y-93131570D01*
X50209231Y-93071033D01*
X50256942Y-93012474D01*
X50308182Y-92955892D01*
X50362953Y-92901287D01*
X50420387Y-92849411D01*
X50479621Y-92800880D01*
X50540654Y-92755694D01*
X50603488Y-92713853D01*
X50668120Y-92675358D01*
X50734553Y-92640210D01*
X50802786Y-92608407D01*
X50872819Y-92579951D01*
X50944653Y-92554841D01*
X51018287Y-92533079D01*
X51093722Y-92514664D01*
X51170957Y-92499596D01*
X51249993Y-92487877D01*
X51330831Y-92479505D01*
X51413469Y-92474482D01*
X51497909Y-92472808D01*
X51584881Y-92474420D01*
G37*
%TD.AperFunction*%
%TA.AperFunction,EtchedComponent*%
G36*
X42400000Y-93100000D02*
G01*
X42800000Y-93100000D01*
X42800000Y-94800000D01*
X42400000Y-94800000D01*
X42400000Y-93100000D01*
G37*
%TD.AperFunction*%
%TA.AperFunction,EtchedComponent*%
G36*
X43200000Y-93100000D02*
G01*
X43600000Y-93100000D01*
X43600000Y-94800000D01*
X43200000Y-94800000D01*
X43200000Y-93100000D01*
G37*
%TD.AperFunction*%
D13*
X45500000Y-94000000D02*
G75*
G02*
X40500000Y-94000000I-2500000J0D01*
G01*
X40500000Y-94000000D02*
G75*
G02*
X45500000Y-94000000I2500000J0D01*
G01*
X54000000Y-100750000D02*
G75*
G02*
X49000000Y-100750000I-2500000J0D01*
G01*
X49000000Y-100750000D02*
G75*
G02*
X54000000Y-100750000I2500000J0D01*
G01*
D14*
%TA.AperFunction,EtchedComponent*%
G36*
X51187018Y-101221146D02*
G01*
X51151876Y-101236971D01*
X51118999Y-101254162D01*
X51088388Y-101272721D01*
X51060042Y-101292647D01*
X51033961Y-101313941D01*
X51010147Y-101336604D01*
X50988600Y-101360635D01*
X50969319Y-101386035D01*
X50952306Y-101412804D01*
X50937560Y-101440943D01*
X50925082Y-101470451D01*
X50914871Y-101501330D01*
X50906930Y-101533580D01*
X50901256Y-101567200D01*
X50897852Y-101602191D01*
X50896718Y-101638553D01*
X50897356Y-101666107D01*
X50899272Y-101692811D01*
X50902465Y-101718664D01*
X50906935Y-101743665D01*
X50912682Y-101767817D01*
X50919706Y-101791117D01*
X50928006Y-101813566D01*
X50937582Y-101835165D01*
X50942849Y-101845645D01*
X50948435Y-101855913D01*
X50954340Y-101865968D01*
X50960564Y-101875810D01*
X50967107Y-101885439D01*
X50973968Y-101894856D01*
X50981149Y-101904060D01*
X50988649Y-101913052D01*
X51004605Y-101930396D01*
X51021836Y-101946890D01*
X51040343Y-101962533D01*
X51060124Y-101977326D01*
X51080967Y-101991225D01*
X51102655Y-102004229D01*
X51125190Y-102016336D01*
X51148573Y-102027548D01*
X51172803Y-102037864D01*
X51197882Y-102047284D01*
X51223808Y-102055807D01*
X51250585Y-102063434D01*
X51278210Y-102070164D01*
X51306686Y-102075998D01*
X51336012Y-102080934D01*
X51366189Y-102084973D01*
X51397218Y-102088115D01*
X51429098Y-102090359D01*
X51461831Y-102091706D01*
X51495417Y-102092155D01*
X51532257Y-102091711D01*
X51567927Y-102090381D01*
X51602427Y-102088165D01*
X51635757Y-102085061D01*
X51667917Y-102081072D01*
X51698907Y-102076196D01*
X51728727Y-102070433D01*
X51757377Y-102063785D01*
X51784858Y-102056250D01*
X51811168Y-102047829D01*
X51836309Y-102038522D01*
X51860280Y-102028330D01*
X51883081Y-102017251D01*
X51904713Y-102005287D01*
X51925175Y-101992437D01*
X51944468Y-101978701D01*
X51962590Y-101964080D01*
X51979544Y-101948574D01*
X51995328Y-101932182D01*
X52009942Y-101914905D01*
X52023388Y-101896742D01*
X52035663Y-101877695D01*
X52046770Y-101857762D01*
X52056707Y-101836944D01*
X52065475Y-101815242D01*
X52073074Y-101792654D01*
X52079503Y-101769182D01*
X52084764Y-101744825D01*
X52088855Y-101719584D01*
X52091778Y-101693458D01*
X52093531Y-101666448D01*
X52094116Y-101638553D01*
X52093879Y-101627144D01*
X52093169Y-101615618D01*
X52091985Y-101603976D01*
X52090329Y-101592216D01*
X52088200Y-101580339D01*
X52085599Y-101568345D01*
X52082526Y-101556234D01*
X52078982Y-101544004D01*
X52074966Y-101531657D01*
X52070479Y-101519192D01*
X52065522Y-101506609D01*
X52060094Y-101493907D01*
X52054196Y-101481087D01*
X52047828Y-101468148D01*
X52040991Y-101455091D01*
X52033685Y-101441915D01*
X52025769Y-101428829D01*
X52017141Y-101416003D01*
X52007803Y-101403438D01*
X51997755Y-101391131D01*
X51986997Y-101379084D01*
X51975530Y-101367296D01*
X51963356Y-101355767D01*
X51950474Y-101344495D01*
X51936884Y-101333482D01*
X51922589Y-101322726D01*
X51907588Y-101312228D01*
X51891882Y-101301987D01*
X51875471Y-101292002D01*
X51858356Y-101282274D01*
X51840539Y-101272802D01*
X51822018Y-101263586D01*
X52057921Y-100809878D01*
X52117245Y-100845302D01*
X52172742Y-100883509D01*
X52224410Y-100924501D01*
X52272250Y-100968277D01*
X52316262Y-101014839D01*
X52356444Y-101064188D01*
X52392798Y-101116323D01*
X52425322Y-101171246D01*
X52454016Y-101228956D01*
X52478880Y-101289456D01*
X52499913Y-101352744D01*
X52517116Y-101418823D01*
X52530487Y-101487692D01*
X52540027Y-101559352D01*
X52545736Y-101633804D01*
X52547612Y-101711049D01*
X52546501Y-101764166D01*
X52543167Y-101816122D01*
X52537612Y-101866917D01*
X52529835Y-101916552D01*
X52519837Y-101965027D01*
X52507618Y-102012342D01*
X52493178Y-102058497D01*
X52476518Y-102103492D01*
X52457638Y-102147327D01*
X52436539Y-102190003D01*
X52413220Y-102231520D01*
X52387681Y-102271878D01*
X52359924Y-102311076D01*
X52329949Y-102349116D01*
X52297755Y-102385997D01*
X52263344Y-102421719D01*
X52227026Y-102455765D01*
X52189152Y-102487615D01*
X52149722Y-102517270D01*
X52108736Y-102544729D01*
X52066192Y-102569992D01*
X52022091Y-102593060D01*
X51976432Y-102613931D01*
X51929215Y-102632606D01*
X51880438Y-102649084D01*
X51830102Y-102663366D01*
X51778206Y-102675451D01*
X51724750Y-102685339D01*
X51669732Y-102693030D01*
X51613154Y-102698523D01*
X51555014Y-102701820D01*
X51495311Y-102702919D01*
X51434189Y-102701832D01*
X51374765Y-102698573D01*
X51317042Y-102693141D01*
X51261018Y-102685535D01*
X51206693Y-102675757D01*
X51154069Y-102663807D01*
X51103144Y-102649683D01*
X51053920Y-102633386D01*
X51006396Y-102614917D01*
X50960573Y-102594274D01*
X50916450Y-102571459D01*
X50874028Y-102546470D01*
X50833307Y-102519309D01*
X50794288Y-102489975D01*
X50756969Y-102458468D01*
X50721352Y-102424789D01*
X50687636Y-102389335D01*
X50656100Y-102352508D01*
X50626743Y-102314308D01*
X50599564Y-102274735D01*
X50574564Y-102233790D01*
X50551740Y-102191473D01*
X50531093Y-102147784D01*
X50512622Y-102102725D01*
X50496327Y-102056295D01*
X50482206Y-102008495D01*
X50470259Y-101959325D01*
X50460486Y-101908787D01*
X50452886Y-101856880D01*
X50447458Y-101803604D01*
X50444201Y-101748961D01*
X50443116Y-101692951D01*
X50443671Y-101657600D01*
X50445334Y-101622626D01*
X50448107Y-101588030D01*
X50451990Y-101553812D01*
X50456982Y-101519973D01*
X50463085Y-101486514D01*
X50470299Y-101453434D01*
X50478623Y-101420735D01*
X50488059Y-101388416D01*
X50498606Y-101356479D01*
X50510265Y-101324923D01*
X50523037Y-101293750D01*
X50536921Y-101262959D01*
X50551917Y-101232551D01*
X50568027Y-101202527D01*
X50585250Y-101172886D01*
X50603423Y-101143800D01*
X50622423Y-101115518D01*
X50642249Y-101088039D01*
X50662902Y-101061364D01*
X50684382Y-101035493D01*
X50706690Y-101010426D01*
X50729826Y-100986162D01*
X50753790Y-100962701D01*
X50778582Y-100940045D01*
X50804203Y-100918192D01*
X50830653Y-100897143D01*
X50857933Y-100876897D01*
X50886042Y-100857455D01*
X50914982Y-100838817D01*
X50944752Y-100820982D01*
X50975352Y-100803951D01*
X51187018Y-101221146D01*
G37*
%TD.AperFunction*%
%TA.AperFunction,EtchedComponent*%
G36*
X51187018Y-99267992D02*
G01*
X51151876Y-99283781D01*
X51118999Y-99300942D01*
X51088388Y-99319477D01*
X51060042Y-99339384D01*
X51033961Y-99360662D01*
X51010147Y-99383312D01*
X50988600Y-99407332D01*
X50969319Y-99432722D01*
X50952306Y-99459481D01*
X50937560Y-99487609D01*
X50925082Y-99517105D01*
X50914871Y-99547968D01*
X50906930Y-99580198D01*
X50901256Y-99613794D01*
X50897852Y-99648756D01*
X50896718Y-99685082D01*
X50897356Y-99712672D01*
X50899272Y-99739405D01*
X50902465Y-99765280D01*
X50906935Y-99790298D01*
X50912682Y-99814460D01*
X50919706Y-99837767D01*
X50928006Y-99860217D01*
X50937582Y-99881813D01*
X50942849Y-99892290D01*
X50948435Y-99902554D01*
X50954340Y-99912604D01*
X50960564Y-99922441D01*
X50967107Y-99932065D01*
X50973968Y-99941475D01*
X50981149Y-99950671D01*
X50988649Y-99959655D01*
X50996467Y-99968425D01*
X51004605Y-99976983D01*
X51021836Y-99993458D01*
X51040343Y-100009082D01*
X51060124Y-100023855D01*
X51080967Y-100037755D01*
X51102655Y-100050762D01*
X51125190Y-100062875D01*
X51148573Y-100074094D01*
X51172803Y-100084418D01*
X51197882Y-100093846D01*
X51223808Y-100102379D01*
X51250585Y-100110016D01*
X51278210Y-100116756D01*
X51306686Y-100122599D01*
X51336012Y-100127544D01*
X51366189Y-100131591D01*
X51397218Y-100134740D01*
X51429098Y-100136989D01*
X51461831Y-100138339D01*
X51495417Y-100138789D01*
X51532257Y-100138346D01*
X51567927Y-100137016D01*
X51602427Y-100134799D01*
X51635757Y-100131696D01*
X51667917Y-100127706D01*
X51698907Y-100122830D01*
X51728727Y-100117067D01*
X51757377Y-100110418D01*
X51784858Y-100102882D01*
X51811168Y-100094461D01*
X51836309Y-100085153D01*
X51860280Y-100074959D01*
X51883081Y-100063879D01*
X51904713Y-100051913D01*
X51925175Y-100039061D01*
X51944468Y-100025323D01*
X51962590Y-100010699D01*
X51979544Y-99995189D01*
X51995328Y-99978794D01*
X52009942Y-99961513D01*
X52023388Y-99943347D01*
X52035663Y-99924295D01*
X52046770Y-99904357D01*
X52056707Y-99883534D01*
X52065475Y-99861826D01*
X52073074Y-99839232D01*
X52079503Y-99815753D01*
X52084764Y-99791389D01*
X52088855Y-99766140D01*
X52091778Y-99740006D01*
X52093531Y-99712986D01*
X52094116Y-99685082D01*
X52093879Y-99672997D01*
X52093169Y-99660833D01*
X52091985Y-99648591D01*
X52090329Y-99636271D01*
X52088200Y-99623874D01*
X52085599Y-99611399D01*
X52082526Y-99598848D01*
X52078982Y-99586220D01*
X52074966Y-99573517D01*
X52070479Y-99560739D01*
X52065522Y-99547886D01*
X52060094Y-99534959D01*
X52054196Y-99521958D01*
X52047828Y-99508884D01*
X52040991Y-99495736D01*
X52033685Y-99482517D01*
X52025769Y-99469429D01*
X52017141Y-99456597D01*
X52007803Y-99444021D01*
X51997755Y-99431702D01*
X51986997Y-99419640D01*
X51975530Y-99407837D01*
X51963356Y-99396291D01*
X51950474Y-99385005D01*
X51936884Y-99373977D01*
X51922589Y-99363209D01*
X51907588Y-99352702D01*
X51891882Y-99342455D01*
X51875471Y-99332469D01*
X51858356Y-99322744D01*
X51840539Y-99313282D01*
X51822018Y-99304082D01*
X52057921Y-98856513D01*
X52057921Y-98856512D01*
X52117245Y-98891172D01*
X52172742Y-98928673D01*
X52224410Y-98969015D01*
X52272250Y-99012198D01*
X52316262Y-99058220D01*
X52356444Y-99107081D01*
X52392798Y-99158780D01*
X52425322Y-99213316D01*
X52454016Y-99270688D01*
X52478880Y-99330897D01*
X52499913Y-99393940D01*
X52517116Y-99459817D01*
X52530487Y-99528527D01*
X52540027Y-99600070D01*
X52545736Y-99674445D01*
X52547612Y-99751650D01*
X52546501Y-99804749D01*
X52543167Y-99856688D01*
X52537612Y-99907469D01*
X52529835Y-99957091D01*
X52519837Y-100005554D01*
X52507618Y-100052858D01*
X52493178Y-100099003D01*
X52476518Y-100143988D01*
X52457638Y-100187813D01*
X52436539Y-100230479D01*
X52413220Y-100271985D01*
X52387681Y-100312331D01*
X52359924Y-100351516D01*
X52329949Y-100389541D01*
X52297755Y-100426406D01*
X52263344Y-100462110D01*
X52227026Y-100496192D01*
X52189152Y-100528071D01*
X52149722Y-100557749D01*
X52108736Y-100585225D01*
X52066192Y-100610501D01*
X52022091Y-100633577D01*
X51976432Y-100654452D01*
X51929215Y-100673128D01*
X51880438Y-100689605D01*
X51830102Y-100703884D01*
X51778206Y-100715965D01*
X51724750Y-100725848D01*
X51669732Y-100733534D01*
X51613154Y-100739024D01*
X51555014Y-100742317D01*
X51495311Y-100743415D01*
X51434189Y-100742341D01*
X51374765Y-100739118D01*
X51317042Y-100733746D01*
X51261018Y-100726223D01*
X51206693Y-100716551D01*
X51154069Y-100704727D01*
X51103144Y-100690751D01*
X51053920Y-100674623D01*
X51006396Y-100656342D01*
X50960573Y-100635907D01*
X50916450Y-100613318D01*
X50874028Y-100588574D01*
X50833307Y-100561674D01*
X50794288Y-100532619D01*
X50756969Y-100501406D01*
X50721352Y-100468036D01*
X50687636Y-100432946D01*
X50656100Y-100396415D01*
X50626743Y-100358442D01*
X50599564Y-100319026D01*
X50574564Y-100278169D01*
X50551740Y-100235868D01*
X50531093Y-100192125D01*
X50512622Y-100146938D01*
X50496327Y-100100308D01*
X50482206Y-100052233D01*
X50470259Y-100002715D01*
X50460486Y-99951752D01*
X50452886Y-99899344D01*
X50447458Y-99845491D01*
X50444201Y-99790192D01*
X50443116Y-99733447D01*
X50443671Y-99698846D01*
X50445334Y-99664575D01*
X50448107Y-99630633D01*
X50451990Y-99597022D01*
X50456982Y-99563740D01*
X50463085Y-99530788D01*
X50470299Y-99498166D01*
X50478623Y-99465874D01*
X50488059Y-99433912D01*
X50498606Y-99402280D01*
X50510265Y-99370978D01*
X50523037Y-99340006D01*
X50536921Y-99309363D01*
X50551917Y-99279050D01*
X50568027Y-99249068D01*
X50585250Y-99219415D01*
X50603423Y-99190342D01*
X50622423Y-99162018D01*
X50642249Y-99134445D01*
X50662902Y-99107624D01*
X50684382Y-99081554D01*
X50706690Y-99056238D01*
X50729826Y-99031676D01*
X50753790Y-99007868D01*
X50778582Y-98984815D01*
X50804203Y-98962518D01*
X50830653Y-98940978D01*
X50857933Y-98920196D01*
X50886042Y-98900172D01*
X50914982Y-98880908D01*
X50944752Y-98862403D01*
X50975352Y-98844659D01*
X51187018Y-99267992D01*
G37*
%TD.AperFunction*%
D15*
X295570000Y-89613200D02*
X298450000Y-84630800D01*
D16*
X295731049Y-89304129D02*
X295922800Y-89598800D01*
X298334800Y-84933200D02*
X298558000Y-84933200D01*
D15*
X298450000Y-84630800D02*
X301330000Y-89613200D01*
D16*
X301168951Y-89304129D02*
X300977200Y-89598800D01*
D15*
X301330000Y-89613200D02*
X295570000Y-89613200D01*
D17*
X298612000Y-86042000D02*
G75*
G02*
X298288000Y-86042000I-162000J0D01*
G01*
X298288000Y-86042000D02*
G75*
G02*
X298612000Y-86042000I162000J0D01*
G01*
D18*
X298540000Y-88202000D02*
G75*
G02*
X298360000Y-88202000I-90000J0D01*
G01*
X298360000Y-88202000D02*
G75*
G02*
X298540000Y-88202000I90000J0D01*
G01*
D19*
X298594000Y-88922000D02*
G75*
G02*
X298306000Y-88922000I-144000J0D01*
G01*
X298306000Y-88922000D02*
G75*
G02*
X298594000Y-88922000I144000J0D01*
G01*
D14*
%TA.AperFunction,EtchedComponent*%
G36*
X298630000Y-88202000D02*
G01*
X298270000Y-88202000D01*
X298126000Y-86042000D01*
X298774000Y-86042000D01*
X298630000Y-88202000D01*
G37*
%TD.AperFunction*%
%TD*%
D20*
%TO.P,M6,1*%
%TO.N,N/C*%
X94400000Y-94700000D03*
%TD*%
D21*
%TO.P,REF\u002A\u002A,1*%
%TO.N,N/C*%
X261200000Y-91500000D03*
%TO.P,REF\u002A\u002A,2*%
X254850000Y-88960000D03*
%TD*%
D22*
%TO.P,M2.5,1*%
%TO.N,N/C*%
X135450000Y-93050000D03*
%TD*%
D21*
%TO.P,REF\u002A\u002A,1*%
%TO.N,N/C*%
X242725000Y-97775000D03*
%TO.P,REF\u002A\u002A,2*%
X237725000Y-99975000D03*
D23*
%TO.P,REF\u002A\u002A,MP*%
X232725000Y-88875000D03*
%TD*%
D24*
%TO.P,M4,1*%
%TO.N,N/C*%
X119450000Y-93600000D03*
%TD*%
D25*
%TO.P,M5,1*%
%TO.N,N/C*%
X108450000Y-93900000D03*
%TD*%
D26*
%TO.P,M3,1*%
%TO.N,N/C*%
X128450000Y-93150000D03*
%TD*%
D27*
%TO.P,M2,1*%
%TO.N,N/C*%
X141850000Y-93150000D03*
%TD*%
D28*
%TO.P,REF\u002A\u002A15,*%
%TO.N,*%
X148000000Y-80250000D03*
D29*
%TO.P,REF\u002A\u002A15,1*%
%TO.N,N/C*%
X153000000Y-80800000D03*
D30*
X152000000Y-79500000D03*
X151000000Y-79500000D03*
X150000000Y-79500000D03*
X149000000Y-79500000D03*
D31*
X148000000Y-79000000D03*
D30*
X147000000Y-79500000D03*
X146000000Y-79500000D03*
X145000000Y-79500000D03*
X144000000Y-79500000D03*
%TD*%
D28*
%TO.P,REF\u002A\u002A16,*%
%TO.N,*%
X138000000Y-80250000D03*
D29*
%TO.P,REF\u002A\u002A16,1*%
%TO.N,N/C*%
X143000000Y-80800000D03*
D30*
X142000000Y-79500000D03*
X141000000Y-79500000D03*
X140000000Y-79500000D03*
X139000000Y-79500000D03*
D31*
X138000000Y-79000000D03*
D30*
X137000000Y-79500000D03*
X136000000Y-79500000D03*
X135000000Y-79500000D03*
X134000000Y-79500000D03*
%TD*%
D28*
%TO.P,REF\u002A\u002A9,*%
%TO.N,*%
X208000000Y-80250000D03*
D29*
%TO.P,REF\u002A\u002A9,1*%
%TO.N,N/C*%
X213000000Y-80800000D03*
D30*
X212000000Y-79500000D03*
X211000000Y-79500000D03*
X210000000Y-79500000D03*
X209000000Y-79500000D03*
D31*
X208000000Y-79000000D03*
D30*
X207000000Y-79500000D03*
X206000000Y-79500000D03*
X205000000Y-79500000D03*
X204000000Y-79500000D03*
%TD*%
D28*
%TO.P,REF\u002A\u002A20,*%
%TO.N,*%
X98000000Y-80250000D03*
D29*
%TO.P,REF\u002A\u002A20,1*%
%TO.N,N/C*%
X103000000Y-80800000D03*
D30*
X102000000Y-79500000D03*
X101000000Y-79500000D03*
X100000000Y-79500000D03*
X99000000Y-79500000D03*
D31*
X98000000Y-79000000D03*
D30*
X97000000Y-79500000D03*
X96000000Y-79500000D03*
X95000000Y-79500000D03*
X94000000Y-79500000D03*
%TD*%
D28*
%TO.P,REF\u002A\u002A14,*%
%TO.N,*%
X158000000Y-80250000D03*
D29*
%TO.P,REF\u002A\u002A14,1*%
%TO.N,N/C*%
X163000000Y-80800000D03*
D30*
X162000000Y-79500000D03*
X161000000Y-79500000D03*
X160000000Y-79500000D03*
X159000000Y-79500000D03*
D31*
X158000000Y-79000000D03*
D30*
X157000000Y-79500000D03*
X156000000Y-79500000D03*
X155000000Y-79500000D03*
X154000000Y-79500000D03*
%TD*%
D32*
%TO.P,REF\u002A\u002A18,*%
%TO.N,*%
X208000000Y-107750000D03*
D33*
%TO.P,REF\u002A\u002A18,1*%
%TO.N,N/C*%
X203000000Y-107200000D03*
D30*
X204000000Y-108500000D03*
X205000000Y-108500000D03*
X206000000Y-108500000D03*
X207000000Y-108500000D03*
D34*
X208000000Y-109000000D03*
D30*
X209000000Y-108500000D03*
X210000000Y-108500000D03*
X211000000Y-108500000D03*
X212000000Y-108500000D03*
%TD*%
D32*
%TO.P,REF\u002A\u002A7,*%
%TO.N,*%
X98000000Y-107750000D03*
D33*
%TO.P,REF\u002A\u002A7,1*%
%TO.N,N/C*%
X93000000Y-107200000D03*
D30*
X94000000Y-108500000D03*
X95000000Y-108500000D03*
X96000000Y-108500000D03*
X97000000Y-108500000D03*
D34*
X98000000Y-109000000D03*
D30*
X99000000Y-108500000D03*
X100000000Y-108500000D03*
X101000000Y-108500000D03*
X102000000Y-108500000D03*
%TD*%
D28*
%TO.P,REF\u002A\u002A,*%
%TO.N,*%
X308000000Y-80250000D03*
D29*
%TO.P,REF\u002A\u002A,1*%
%TO.N,N/C*%
X313000000Y-80800000D03*
D30*
X312000000Y-79500000D03*
X311000000Y-79500000D03*
X310000000Y-79500000D03*
X309000000Y-79500000D03*
D31*
X308000000Y-79000000D03*
D30*
X307000000Y-79500000D03*
X306000000Y-79500000D03*
X305000000Y-79500000D03*
X304000000Y-79500000D03*
%TD*%
D28*
%TO.P,REF\u002A\u002A,*%
%TO.N,*%
X298000000Y-80250000D03*
D29*
%TO.P,REF\u002A\u002A,1*%
%TO.N,N/C*%
X303000000Y-80800000D03*
D30*
X302000000Y-79500000D03*
X301000000Y-79500000D03*
X300000000Y-79500000D03*
X299000000Y-79500000D03*
D31*
X298000000Y-79000000D03*
D30*
X297000000Y-79500000D03*
X296000000Y-79500000D03*
X295000000Y-79500000D03*
X294000000Y-79500000D03*
%TD*%
D28*
%TO.P,REF\u002A\u002A8,*%
%TO.N,*%
X218000000Y-80250000D03*
D29*
%TO.P,REF\u002A\u002A8,1*%
%TO.N,N/C*%
X223000000Y-80800000D03*
D30*
X222000000Y-79500000D03*
X221000000Y-79500000D03*
X220000000Y-79500000D03*
X219000000Y-79500000D03*
D31*
X218000000Y-79000000D03*
D30*
X217000000Y-79500000D03*
X216000000Y-79500000D03*
X215000000Y-79500000D03*
X214000000Y-79500000D03*
%TD*%
D32*
%TO.P,REF\u002A\u002A12,*%
%TO.N,*%
X148000000Y-107750000D03*
D33*
%TO.P,REF\u002A\u002A12,1*%
%TO.N,N/C*%
X143000000Y-107200000D03*
D30*
X144000000Y-108500000D03*
X145000000Y-108500000D03*
X146000000Y-108500000D03*
X147000000Y-108500000D03*
D34*
X148000000Y-109000000D03*
D30*
X149000000Y-108500000D03*
X150000000Y-108500000D03*
X151000000Y-108500000D03*
X152000000Y-108500000D03*
%TD*%
D32*
%TO.P,REF\u002A\u002A13,*%
%TO.N,*%
X158000000Y-107750000D03*
D33*
%TO.P,REF\u002A\u002A13,1*%
%TO.N,N/C*%
X153000000Y-107200000D03*
D30*
X154000000Y-108500000D03*
X155000000Y-108500000D03*
X156000000Y-108500000D03*
X157000000Y-108500000D03*
D34*
X158000000Y-109000000D03*
D30*
X159000000Y-108500000D03*
X160000000Y-108500000D03*
X161000000Y-108500000D03*
X162000000Y-108500000D03*
%TD*%
D28*
%TO.P,REF\u002A\u002A4,*%
%TO.N,*%
X258000000Y-80250000D03*
D29*
%TO.P,REF\u002A\u002A4,1*%
%TO.N,N/C*%
X263000000Y-80800000D03*
D30*
X262000000Y-79500000D03*
X261000000Y-79500000D03*
X260000000Y-79500000D03*
X259000000Y-79500000D03*
D31*
X258000000Y-79000000D03*
D30*
X257000000Y-79500000D03*
X256000000Y-79500000D03*
X255000000Y-79500000D03*
X254000000Y-79500000D03*
%TD*%
D32*
%TO.P,REF\u002A\u002A14,*%
%TO.N,*%
X168000000Y-107750000D03*
D33*
%TO.P,REF\u002A\u002A14,1*%
%TO.N,N/C*%
X163000000Y-107200000D03*
D30*
X164000000Y-108500000D03*
X165000000Y-108500000D03*
X166000000Y-108500000D03*
X167000000Y-108500000D03*
D34*
X168000000Y-109000000D03*
D30*
X169000000Y-108500000D03*
X170000000Y-108500000D03*
X171000000Y-108500000D03*
X172000000Y-108500000D03*
%TD*%
D32*
%TO.P,REF\u002A\u002A,*%
%TO.N,*%
X28000000Y-107750000D03*
D33*
%TO.P,REF\u002A\u002A,1*%
%TO.N,N/C*%
X23000000Y-107200000D03*
D30*
X24000000Y-108500000D03*
X25000000Y-108500000D03*
X26000000Y-108500000D03*
X27000000Y-108500000D03*
D34*
X28000000Y-109000000D03*
D30*
X29000000Y-108500000D03*
X30000000Y-108500000D03*
X31000000Y-108500000D03*
X32000000Y-108500000D03*
%TD*%
D32*
%TO.P,REF\u002A\u002A4,*%
%TO.N,*%
X68000000Y-107750000D03*
D33*
%TO.P,REF\u002A\u002A4,1*%
%TO.N,N/C*%
X63000000Y-107200000D03*
D30*
X64000000Y-108500000D03*
X65000000Y-108500000D03*
X66000000Y-108500000D03*
X67000000Y-108500000D03*
D34*
X68000000Y-109000000D03*
D30*
X69000000Y-108500000D03*
X70000000Y-108500000D03*
X71000000Y-108500000D03*
X72000000Y-108500000D03*
%TD*%
D28*
%TO.P,REF\u002A\u002A12,*%
%TO.N,*%
X178000000Y-80250000D03*
D29*
%TO.P,REF\u002A\u002A12,1*%
%TO.N,N/C*%
X183000000Y-80800000D03*
D30*
X182000000Y-79500000D03*
X181000000Y-79500000D03*
X180000000Y-79500000D03*
X179000000Y-79500000D03*
D31*
X178000000Y-79000000D03*
D30*
X177000000Y-79500000D03*
X176000000Y-79500000D03*
X175000000Y-79500000D03*
X174000000Y-79500000D03*
%TD*%
D28*
%TO.P,REF\u002A\u002A3,*%
%TO.N,*%
X268000000Y-80250000D03*
D29*
%TO.P,REF\u002A\u002A3,1*%
%TO.N,N/C*%
X273000000Y-80800000D03*
D30*
X272000000Y-79500000D03*
X271000000Y-79500000D03*
X270000000Y-79500000D03*
X269000000Y-79500000D03*
D31*
X268000000Y-79000000D03*
D30*
X267000000Y-79500000D03*
X266000000Y-79500000D03*
X265000000Y-79500000D03*
X264000000Y-79500000D03*
%TD*%
D32*
%TO.P,REF\u002A\u002A1,*%
%TO.N,*%
X38000000Y-107750000D03*
D33*
%TO.P,REF\u002A\u002A1,1*%
%TO.N,N/C*%
X33000000Y-107200000D03*
D30*
X34000000Y-108500000D03*
X35000000Y-108500000D03*
X36000000Y-108500000D03*
X37000000Y-108500000D03*
D34*
X38000000Y-109000000D03*
D30*
X39000000Y-108500000D03*
X40000000Y-108500000D03*
X41000000Y-108500000D03*
X42000000Y-108500000D03*
%TD*%
D28*
%TO.P,REF\u002A\u002A26,*%
%TO.N,*%
X38000000Y-80250000D03*
D29*
%TO.P,REF\u002A\u002A26,1*%
%TO.N,N/C*%
X43000000Y-80800000D03*
D30*
X42000000Y-79500000D03*
X41000000Y-79500000D03*
X40000000Y-79500000D03*
X39000000Y-79500000D03*
D31*
X38000000Y-79000000D03*
D30*
X37000000Y-79500000D03*
X36000000Y-79500000D03*
X35000000Y-79500000D03*
X34000000Y-79500000D03*
%TD*%
D28*
%TO.P,REF\u002A\u002A21,*%
%TO.N,*%
X88000000Y-80250000D03*
D29*
%TO.P,REF\u002A\u002A21,1*%
%TO.N,N/C*%
X93000000Y-80800000D03*
D30*
X92000000Y-79500000D03*
X91000000Y-79500000D03*
X90000000Y-79500000D03*
X89000000Y-79500000D03*
D31*
X88000000Y-79000000D03*
D30*
X87000000Y-79500000D03*
X86000000Y-79500000D03*
X85000000Y-79500000D03*
X84000000Y-79500000D03*
%TD*%
D28*
%TO.P,REF\u002A\u002A13,*%
%TO.N,*%
X168000000Y-80250000D03*
D29*
%TO.P,REF\u002A\u002A13,1*%
%TO.N,N/C*%
X173000000Y-80800000D03*
D30*
X172000000Y-79500000D03*
X171000000Y-79500000D03*
X170000000Y-79500000D03*
X169000000Y-79500000D03*
D31*
X168000000Y-79000000D03*
D30*
X167000000Y-79500000D03*
X166000000Y-79500000D03*
X165000000Y-79500000D03*
X164000000Y-79500000D03*
%TD*%
D28*
%TO.P,REF\u002A\u002A10,*%
%TO.N,*%
X198000000Y-80250000D03*
D29*
%TO.P,REF\u002A\u002A10,1*%
%TO.N,N/C*%
X203000000Y-80800000D03*
D30*
X202000000Y-79500000D03*
X201000000Y-79500000D03*
X200000000Y-79500000D03*
X199000000Y-79500000D03*
D31*
X198000000Y-79000000D03*
D30*
X197000000Y-79500000D03*
X196000000Y-79500000D03*
X195000000Y-79500000D03*
X194000000Y-79500000D03*
%TD*%
D28*
%TO.P,REF\u002A\u002A22,*%
%TO.N,*%
X78000000Y-80250000D03*
D29*
%TO.P,REF\u002A\u002A22,1*%
%TO.N,N/C*%
X83000000Y-80800000D03*
D30*
X82000000Y-79500000D03*
X81000000Y-79500000D03*
X80000000Y-79500000D03*
X79000000Y-79500000D03*
D31*
X78000000Y-79000000D03*
D30*
X77000000Y-79500000D03*
X76000000Y-79500000D03*
X75000000Y-79500000D03*
X74000000Y-79500000D03*
%TD*%
D32*
%TO.P,REF\u002A\u002A23,*%
%TO.N,*%
X258000000Y-107750000D03*
D33*
%TO.P,REF\u002A\u002A23,1*%
%TO.N,N/C*%
X253000000Y-107200000D03*
D30*
X254000000Y-108500000D03*
X255000000Y-108500000D03*
X256000000Y-108500000D03*
X257000000Y-108500000D03*
D34*
X258000000Y-109000000D03*
D30*
X259000000Y-108500000D03*
X260000000Y-108500000D03*
X261000000Y-108500000D03*
X262000000Y-108500000D03*
%TD*%
D32*
%TO.P,REF\u002A\u002A25,*%
%TO.N,*%
X278000000Y-107750000D03*
D33*
%TO.P,REF\u002A\u002A25,1*%
%TO.N,N/C*%
X273000000Y-107200000D03*
D30*
X274000000Y-108500000D03*
X275000000Y-108500000D03*
X276000000Y-108500000D03*
X277000000Y-108500000D03*
D34*
X278000000Y-109000000D03*
D30*
X279000000Y-108500000D03*
X280000000Y-108500000D03*
X281000000Y-108500000D03*
X282000000Y-108500000D03*
%TD*%
D28*
%TO.P,REF\u002A\u002A2,*%
%TO.N,*%
X278000000Y-80250000D03*
D29*
%TO.P,REF\u002A\u002A2,1*%
%TO.N,N/C*%
X283000000Y-80800000D03*
D30*
X282000000Y-79500000D03*
X281000000Y-79500000D03*
X280000000Y-79500000D03*
X279000000Y-79500000D03*
D31*
X278000000Y-79000000D03*
D30*
X277000000Y-79500000D03*
X276000000Y-79500000D03*
X275000000Y-79500000D03*
X274000000Y-79500000D03*
%TD*%
D28*
%TO.P,REF\u002A\u002A5,*%
%TO.N,*%
X248000000Y-80250000D03*
D29*
%TO.P,REF\u002A\u002A5,1*%
%TO.N,N/C*%
X253000000Y-80800000D03*
D30*
X252000000Y-79500000D03*
X251000000Y-79500000D03*
X250000000Y-79500000D03*
X249000000Y-79500000D03*
D31*
X248000000Y-79000000D03*
D30*
X247000000Y-79500000D03*
X246000000Y-79500000D03*
X245000000Y-79500000D03*
X244000000Y-79500000D03*
%TD*%
D32*
%TO.P,REF\u002A\u002A20,*%
%TO.N,*%
X228000000Y-107750000D03*
D33*
%TO.P,REF\u002A\u002A20,1*%
%TO.N,N/C*%
X223000000Y-107200000D03*
D30*
X224000000Y-108500000D03*
X225000000Y-108500000D03*
X226000000Y-108500000D03*
X227000000Y-108500000D03*
D34*
X228000000Y-109000000D03*
D30*
X229000000Y-108500000D03*
X230000000Y-108500000D03*
X231000000Y-108500000D03*
X232000000Y-108500000D03*
%TD*%
D28*
%TO.P,REF\u002A\u002A27,*%
%TO.N,*%
X18000000Y-80250000D03*
D29*
%TO.P,REF\u002A\u002A27,1*%
%TO.N,N/C*%
X23000000Y-80800000D03*
D30*
X22000000Y-79500000D03*
X21000000Y-79500000D03*
X20000000Y-79500000D03*
X19000000Y-79500000D03*
D31*
X18000000Y-79000000D03*
D30*
X17000000Y-79500000D03*
X16000000Y-79500000D03*
X15000000Y-79500000D03*
X14000000Y-79500000D03*
%TD*%
D32*
%TO.P,REF\u002A\u002A27,*%
%TO.N,*%
X308000000Y-107750000D03*
D33*
%TO.P,REF\u002A\u002A27,1*%
%TO.N,N/C*%
X303000000Y-107200000D03*
D30*
X304000000Y-108500000D03*
X305000000Y-108500000D03*
X306000000Y-108500000D03*
X307000000Y-108500000D03*
D34*
X308000000Y-109000000D03*
D30*
X309000000Y-108500000D03*
X310000000Y-108500000D03*
X311000000Y-108500000D03*
X312000000Y-108500000D03*
%TD*%
D32*
%TO.P,REF\u002A\u002A17,*%
%TO.N,*%
X198000000Y-107750000D03*
D33*
%TO.P,REF\u002A\u002A17,1*%
%TO.N,N/C*%
X193000000Y-107200000D03*
D30*
X194000000Y-108500000D03*
X195000000Y-108500000D03*
X196000000Y-108500000D03*
X197000000Y-108500000D03*
D34*
X198000000Y-109000000D03*
D30*
X199000000Y-108500000D03*
X200000000Y-108500000D03*
X201000000Y-108500000D03*
X202000000Y-108500000D03*
%TD*%
D32*
%TO.P,REF\u002A\u002A3,*%
%TO.N,*%
X58000000Y-107750000D03*
D33*
%TO.P,REF\u002A\u002A3,1*%
%TO.N,N/C*%
X53000000Y-107200000D03*
D30*
X54000000Y-108500000D03*
X55000000Y-108500000D03*
X56000000Y-108500000D03*
X57000000Y-108500000D03*
D34*
X58000000Y-109000000D03*
D30*
X59000000Y-108500000D03*
X60000000Y-108500000D03*
X61000000Y-108500000D03*
X62000000Y-108500000D03*
%TD*%
D32*
%TO.P,REF\u002A\u002A2,*%
%TO.N,*%
X48000000Y-107750000D03*
D33*
%TO.P,REF\u002A\u002A2,1*%
%TO.N,N/C*%
X43000000Y-107200000D03*
D30*
X44000000Y-108500000D03*
X45000000Y-108500000D03*
X46000000Y-108500000D03*
X47000000Y-108500000D03*
D34*
X48000000Y-109000000D03*
D30*
X49000000Y-108500000D03*
X50000000Y-108500000D03*
X51000000Y-108500000D03*
X52000000Y-108500000D03*
%TD*%
D32*
%TO.P,REF\u002A\u002A15,*%
%TO.N,*%
X178000000Y-107750000D03*
D33*
%TO.P,REF\u002A\u002A15,1*%
%TO.N,N/C*%
X173000000Y-107200000D03*
D30*
X174000000Y-108500000D03*
X175000000Y-108500000D03*
X176000000Y-108500000D03*
X177000000Y-108500000D03*
D34*
X178000000Y-109000000D03*
D30*
X179000000Y-108500000D03*
X180000000Y-108500000D03*
X181000000Y-108500000D03*
X182000000Y-108500000D03*
%TD*%
D32*
%TO.P,REF\u002A\u002A22,*%
%TO.N,*%
X248000000Y-107750000D03*
D33*
%TO.P,REF\u002A\u002A22,1*%
%TO.N,N/C*%
X243000000Y-107200000D03*
D30*
X244000000Y-108500000D03*
X245000000Y-108500000D03*
X246000000Y-108500000D03*
X247000000Y-108500000D03*
D34*
X248000000Y-109000000D03*
D30*
X249000000Y-108500000D03*
X250000000Y-108500000D03*
X251000000Y-108500000D03*
X252000000Y-108500000D03*
%TD*%
D32*
%TO.P,REF\u002A\u002A10,*%
%TO.N,*%
X128000000Y-107750000D03*
D33*
%TO.P,REF\u002A\u002A10,1*%
%TO.N,N/C*%
X123000000Y-107200000D03*
D30*
X124000000Y-108500000D03*
X125000000Y-108500000D03*
X126000000Y-108500000D03*
X127000000Y-108500000D03*
D34*
X128000000Y-109000000D03*
D30*
X129000000Y-108500000D03*
X130000000Y-108500000D03*
X131000000Y-108500000D03*
X132000000Y-108500000D03*
%TD*%
D32*
%TO.P,REF\u002A\u002A19,*%
%TO.N,*%
X218000000Y-107750000D03*
D33*
%TO.P,REF\u002A\u002A19,1*%
%TO.N,N/C*%
X213000000Y-107200000D03*
D30*
X214000000Y-108500000D03*
X215000000Y-108500000D03*
X216000000Y-108500000D03*
X217000000Y-108500000D03*
D34*
X218000000Y-109000000D03*
D30*
X219000000Y-108500000D03*
X220000000Y-108500000D03*
X221000000Y-108500000D03*
X222000000Y-108500000D03*
%TD*%
D28*
%TO.P,REF\u002A\u002A17,*%
%TO.N,*%
X128000000Y-80250000D03*
D29*
%TO.P,REF\u002A\u002A17,1*%
%TO.N,N/C*%
X133000000Y-80800000D03*
D30*
X132000000Y-79500000D03*
X131000000Y-79500000D03*
X130000000Y-79500000D03*
X129000000Y-79500000D03*
D31*
X128000000Y-79000000D03*
D30*
X127000000Y-79500000D03*
X126000000Y-79500000D03*
X125000000Y-79500000D03*
X124000000Y-79500000D03*
%TD*%
D32*
%TO.P,REF\u002A\u002A,*%
%TO.N,*%
X18000000Y-107750000D03*
D33*
%TO.P,REF\u002A\u002A,1*%
%TO.N,N/C*%
X13000000Y-107200000D03*
D30*
X14000000Y-108500000D03*
X15000000Y-108500000D03*
X16000000Y-108500000D03*
X17000000Y-108500000D03*
D34*
X18000000Y-109000000D03*
D30*
X19000000Y-108500000D03*
X20000000Y-108500000D03*
X21000000Y-108500000D03*
X22000000Y-108500000D03*
%TD*%
D28*
%TO.P,REF\u002A\u002A24,*%
%TO.N,*%
X58000000Y-80250000D03*
D29*
%TO.P,REF\u002A\u002A24,1*%
%TO.N,N/C*%
X63000000Y-80800000D03*
D30*
X62000000Y-79500000D03*
X61000000Y-79500000D03*
X60000000Y-79500000D03*
X59000000Y-79500000D03*
D31*
X58000000Y-79000000D03*
D30*
X57000000Y-79500000D03*
X56000000Y-79500000D03*
X55000000Y-79500000D03*
X54000000Y-79500000D03*
%TD*%
D28*
%TO.P,REF\u002A\u002A27,*%
%TO.N,*%
X28000000Y-80250000D03*
D29*
%TO.P,REF\u002A\u002A27,1*%
%TO.N,N/C*%
X33000000Y-80800000D03*
D30*
X32000000Y-79500000D03*
X31000000Y-79500000D03*
X30000000Y-79500000D03*
X29000000Y-79500000D03*
D31*
X28000000Y-79000000D03*
D30*
X27000000Y-79500000D03*
X26000000Y-79500000D03*
X25000000Y-79500000D03*
X24000000Y-79500000D03*
%TD*%
D28*
%TO.P,REF\u002A\u002A25,*%
%TO.N,*%
X48000000Y-80250000D03*
D29*
%TO.P,REF\u002A\u002A25,1*%
%TO.N,N/C*%
X53000000Y-80800000D03*
D30*
X52000000Y-79500000D03*
X51000000Y-79500000D03*
X50000000Y-79500000D03*
X49000000Y-79500000D03*
D31*
X48000000Y-79000000D03*
D30*
X47000000Y-79500000D03*
X46000000Y-79500000D03*
X45000000Y-79500000D03*
X44000000Y-79500000D03*
%TD*%
D28*
%TO.P,REF\u002A\u002A11,*%
%TO.N,*%
X188000000Y-80250000D03*
D29*
%TO.P,REF\u002A\u002A11,1*%
%TO.N,N/C*%
X193000000Y-80800000D03*
D30*
X192000000Y-79500000D03*
X191000000Y-79500000D03*
X190000000Y-79500000D03*
X189000000Y-79500000D03*
D31*
X188000000Y-79000000D03*
D30*
X187000000Y-79500000D03*
X186000000Y-79500000D03*
X185000000Y-79500000D03*
X184000000Y-79500000D03*
%TD*%
D28*
%TO.P,REF\u002A\u002A18,*%
%TO.N,*%
X118000000Y-80250000D03*
D29*
%TO.P,REF\u002A\u002A18,1*%
%TO.N,N/C*%
X123000000Y-80800000D03*
D30*
X122000000Y-79500000D03*
X121000000Y-79500000D03*
X120000000Y-79500000D03*
X119000000Y-79500000D03*
D31*
X118000000Y-79000000D03*
D30*
X117000000Y-79500000D03*
X116000000Y-79500000D03*
X115000000Y-79500000D03*
X114000000Y-79500000D03*
%TD*%
D28*
%TO.P,REF\u002A\u002A23,*%
%TO.N,*%
X68000000Y-80250000D03*
D29*
%TO.P,REF\u002A\u002A23,1*%
%TO.N,N/C*%
X73000000Y-80800000D03*
D30*
X72000000Y-79500000D03*
X71000000Y-79500000D03*
X70000000Y-79500000D03*
X69000000Y-79500000D03*
D31*
X68000000Y-79000000D03*
D30*
X67000000Y-79500000D03*
X66000000Y-79500000D03*
X65000000Y-79500000D03*
X64000000Y-79500000D03*
%TD*%
D32*
%TO.P,REF\u002A\u002A5,*%
%TO.N,*%
X78000000Y-107750000D03*
D33*
%TO.P,REF\u002A\u002A5,1*%
%TO.N,N/C*%
X73000000Y-107200000D03*
D30*
X74000000Y-108500000D03*
X75000000Y-108500000D03*
X76000000Y-108500000D03*
X77000000Y-108500000D03*
D34*
X78000000Y-109000000D03*
D30*
X79000000Y-108500000D03*
X80000000Y-108500000D03*
X81000000Y-108500000D03*
X82000000Y-108500000D03*
%TD*%
D28*
%TO.P,REF\u002A\u002A7,*%
%TO.N,*%
X228000000Y-80250000D03*
D29*
%TO.P,REF\u002A\u002A7,1*%
%TO.N,N/C*%
X233000000Y-80800000D03*
D30*
X232000000Y-79500000D03*
X231000000Y-79500000D03*
X230000000Y-79500000D03*
X229000000Y-79500000D03*
D31*
X228000000Y-79000000D03*
D30*
X227000000Y-79500000D03*
X226000000Y-79500000D03*
X225000000Y-79500000D03*
X224000000Y-79500000D03*
%TD*%
D32*
%TO.P,REF\u002A\u002A16,*%
%TO.N,*%
X188000000Y-107750000D03*
D33*
%TO.P,REF\u002A\u002A16,1*%
%TO.N,N/C*%
X183000000Y-107200000D03*
D30*
X184000000Y-108500000D03*
X185000000Y-108500000D03*
X186000000Y-108500000D03*
X187000000Y-108500000D03*
D34*
X188000000Y-109000000D03*
D30*
X189000000Y-108500000D03*
X190000000Y-108500000D03*
X191000000Y-108500000D03*
X192000000Y-108500000D03*
%TD*%
D32*
%TO.P,REF\u002A\u002A24,*%
%TO.N,*%
X268000000Y-107750000D03*
D33*
%TO.P,REF\u002A\u002A24,1*%
%TO.N,N/C*%
X263000000Y-107200000D03*
D30*
X264000000Y-108500000D03*
X265000000Y-108500000D03*
X266000000Y-108500000D03*
X267000000Y-108500000D03*
D34*
X268000000Y-109000000D03*
D30*
X269000000Y-108500000D03*
X270000000Y-108500000D03*
X271000000Y-108500000D03*
X272000000Y-108500000D03*
%TD*%
D28*
%TO.P,REF\u002A\u002A19,*%
%TO.N,*%
X108000000Y-80250000D03*
D29*
%TO.P,REF\u002A\u002A19,1*%
%TO.N,N/C*%
X113000000Y-80800000D03*
D30*
X112000000Y-79500000D03*
X111000000Y-79500000D03*
X110000000Y-79500000D03*
X109000000Y-79500000D03*
D31*
X108000000Y-79000000D03*
D30*
X107000000Y-79500000D03*
X106000000Y-79500000D03*
X105000000Y-79500000D03*
X104000000Y-79500000D03*
%TD*%
D32*
%TO.P,REF\u002A\u002A26,*%
%TO.N,*%
X288000000Y-107750000D03*
D33*
%TO.P,REF\u002A\u002A26,1*%
%TO.N,N/C*%
X283000000Y-107200000D03*
D30*
X284000000Y-108500000D03*
X285000000Y-108500000D03*
X286000000Y-108500000D03*
X287000000Y-108500000D03*
D34*
X288000000Y-109000000D03*
D30*
X289000000Y-108500000D03*
X290000000Y-108500000D03*
X291000000Y-108500000D03*
X292000000Y-108500000D03*
%TD*%
D32*
%TO.P,REF\u002A\u002A21,*%
%TO.N,*%
X238000000Y-107750000D03*
D33*
%TO.P,REF\u002A\u002A21,1*%
%TO.N,N/C*%
X233000000Y-107200000D03*
D30*
X234000000Y-108500000D03*
X235000000Y-108500000D03*
X236000000Y-108500000D03*
X237000000Y-108500000D03*
D34*
X238000000Y-109000000D03*
D30*
X239000000Y-108500000D03*
X240000000Y-108500000D03*
X241000000Y-108500000D03*
X242000000Y-108500000D03*
%TD*%
D28*
%TO.P,REF\u002A\u002A1,*%
%TO.N,*%
X288000000Y-80250000D03*
D29*
%TO.P,REF\u002A\u002A1,1*%
%TO.N,N/C*%
X293000000Y-80800000D03*
D30*
X292000000Y-79500000D03*
X291000000Y-79500000D03*
X290000000Y-79500000D03*
X289000000Y-79500000D03*
D31*
X288000000Y-79000000D03*
D30*
X287000000Y-79500000D03*
X286000000Y-79500000D03*
X285000000Y-79500000D03*
X284000000Y-79500000D03*
%TD*%
D32*
%TO.P,REF\u002A\u002A8,*%
%TO.N,*%
X108000000Y-107750000D03*
D33*
%TO.P,REF\u002A\u002A8,1*%
%TO.N,N/C*%
X103000000Y-107200000D03*
D30*
X104000000Y-108500000D03*
X105000000Y-108500000D03*
X106000000Y-108500000D03*
X107000000Y-108500000D03*
D34*
X108000000Y-109000000D03*
D30*
X109000000Y-108500000D03*
X110000000Y-108500000D03*
X111000000Y-108500000D03*
X112000000Y-108500000D03*
%TD*%
D32*
%TO.P,REF\u002A\u002A6,*%
%TO.N,*%
X88000000Y-107750000D03*
D33*
%TO.P,REF\u002A\u002A6,1*%
%TO.N,N/C*%
X83000000Y-107200000D03*
D30*
X84000000Y-108500000D03*
X85000000Y-108500000D03*
X86000000Y-108500000D03*
X87000000Y-108500000D03*
D34*
X88000000Y-109000000D03*
D30*
X89000000Y-108500000D03*
X90000000Y-108500000D03*
X91000000Y-108500000D03*
X92000000Y-108500000D03*
%TD*%
D28*
%TO.P,REF\u002A\u002A6,*%
%TO.N,*%
X238000000Y-80250000D03*
D29*
%TO.P,REF\u002A\u002A6,1*%
%TO.N,N/C*%
X243000000Y-80800000D03*
D30*
X242000000Y-79500000D03*
X241000000Y-79500000D03*
X240000000Y-79500000D03*
X239000000Y-79500000D03*
D31*
X238000000Y-79000000D03*
D30*
X237000000Y-79500000D03*
X236000000Y-79500000D03*
X235000000Y-79500000D03*
X234000000Y-79500000D03*
%TD*%
D32*
%TO.P,REF\u002A\u002A9,*%
%TO.N,*%
X118000000Y-107750000D03*
D33*
%TO.P,REF\u002A\u002A9,1*%
%TO.N,N/C*%
X113000000Y-107200000D03*
D30*
X114000000Y-108500000D03*
X115000000Y-108500000D03*
X116000000Y-108500000D03*
X117000000Y-108500000D03*
D34*
X118000000Y-109000000D03*
D30*
X119000000Y-108500000D03*
X120000000Y-108500000D03*
X121000000Y-108500000D03*
X122000000Y-108500000D03*
%TD*%
D32*
%TO.P,REF\u002A\u002A11,*%
%TO.N,*%
X138000000Y-107750000D03*
D33*
%TO.P,REF\u002A\u002A11,1*%
%TO.N,N/C*%
X133000000Y-107200000D03*
D30*
X134000000Y-108500000D03*
X135000000Y-108500000D03*
X136000000Y-108500000D03*
X137000000Y-108500000D03*
D34*
X138000000Y-109000000D03*
D30*
X139000000Y-108500000D03*
X140000000Y-108500000D03*
X141000000Y-108500000D03*
X142000000Y-108500000D03*
%TD*%
D32*
%TO.P,REF\u002A\u002A27,*%
%TO.N,*%
X298000000Y-107750000D03*
D33*
%TO.P,REF\u002A\u002A27,1*%
%TO.N,N/C*%
X293000000Y-107200000D03*
D30*
X294000000Y-108500000D03*
X295000000Y-108500000D03*
X296000000Y-108500000D03*
X297000000Y-108500000D03*
D34*
X298000000Y-109000000D03*
D30*
X299000000Y-108500000D03*
X300000000Y-108500000D03*
X301000000Y-108500000D03*
X302000000Y-108500000D03*
%TD*%
%TA.AperFunction,NonConductor*%
G36*
X190626541Y-92605251D02*
G01*
X190677795Y-92652735D01*
X190689058Y-92677396D01*
X190832571Y-93112161D01*
X190832578Y-93112182D01*
X191054052Y-93662525D01*
X191054053Y-93662526D01*
X191310165Y-94197678D01*
X191310166Y-94197680D01*
X191599838Y-94715382D01*
X191599839Y-94715384D01*
X191921925Y-95213597D01*
X191921946Y-95213627D01*
X192050858Y-95387615D01*
X192275116Y-95690288D01*
X192657955Y-96143491D01*
X192931242Y-96428047D01*
X193068897Y-96571378D01*
X193068906Y-96571386D01*
X193506267Y-96972206D01*
X193968290Y-97344348D01*
X193968310Y-97344362D01*
X194453083Y-97686287D01*
X194453088Y-97686290D01*
X194453098Y-97686297D01*
X194958704Y-97996655D01*
X195483032Y-98274147D01*
X195483060Y-98274162D01*
X195483065Y-98274165D01*
X195883207Y-98454295D01*
X196024035Y-98517691D01*
X196239131Y-98598464D01*
X196579413Y-98726248D01*
X196579418Y-98726249D01*
X196579428Y-98726253D01*
X196957726Y-98841394D01*
X197146975Y-98898996D01*
X197146981Y-98898997D01*
X197146983Y-98898998D01*
X197724392Y-99035226D01*
X198309309Y-99134382D01*
X198899355Y-99196064D01*
X199492133Y-99220020D01*
X200085233Y-99206154D01*
X200676244Y-99154521D01*
X201262763Y-99065331D01*
X201842407Y-98938948D01*
X202412818Y-98775884D01*
X202971680Y-98576803D01*
X203516720Y-98342513D01*
X204045722Y-98073968D01*
X204556536Y-97772259D01*
X205026806Y-97452404D01*
X205093305Y-97430980D01*
X205160835Y-97448910D01*
X205166164Y-97452330D01*
X205644636Y-97777059D01*
X206161239Y-98080792D01*
X206161257Y-98080801D01*
X206696409Y-98350447D01*
X206696427Y-98350455D01*
X207228852Y-98576799D01*
X207247927Y-98584908D01*
X207813454Y-98783179D01*
X208390628Y-98944431D01*
X208390633Y-98944432D01*
X208964408Y-99065331D01*
X208977028Y-99067990D01*
X209570196Y-99153337D01*
X210167644Y-99200114D01*
X210726373Y-99207583D01*
X210766861Y-99208125D01*
X210766862Y-99208124D01*
X210766867Y-99208125D01*
X211215730Y-99185033D01*
X211365354Y-99177336D01*
X211960568Y-99107880D01*
X211960576Y-99107879D01*
X211960583Y-99107877D01*
X211960589Y-99107877D01*
X212550083Y-99000038D01*
X213131362Y-98854273D01*
X213701987Y-98671191D01*
X214259567Y-98451562D01*
X214801763Y-98196305D01*
X214801774Y-98196298D01*
X214801778Y-98196297D01*
X215023188Y-98073965D01*
X215326301Y-97906492D01*
X215830982Y-97583337D01*
X216313690Y-97228196D01*
X216772400Y-96842557D01*
X217205190Y-96428039D01*
X217610243Y-95986379D01*
X217985863Y-95519428D01*
X218000889Y-95498051D01*
X218330464Y-95029157D01*
X218330466Y-95029155D01*
X218330468Y-95029151D01*
X218330472Y-95029146D01*
X218642628Y-94517589D01*
X218921019Y-93986900D01*
X219164480Y-93439306D01*
X219354437Y-92924657D01*
X219396115Y-92868584D01*
X219461496Y-92843944D01*
X219529819Y-92858563D01*
X219579393Y-92907799D01*
X219594759Y-92968713D01*
X219501106Y-103377116D01*
X219480819Y-103443975D01*
X219427606Y-103489253D01*
X219377111Y-103500000D01*
X147124000Y-103500000D01*
X147056961Y-103480315D01*
X147011206Y-103427511D01*
X147000000Y-103376000D01*
X147000000Y-97639110D01*
X147019685Y-97572071D01*
X147072489Y-97526316D01*
X147141647Y-97516372D01*
X147193736Y-97536577D01*
X147540240Y-97772251D01*
X147548387Y-97777063D01*
X147920172Y-97996655D01*
X148051054Y-98073959D01*
X148459370Y-98281237D01*
X148549202Y-98326840D01*
X148580057Y-98342503D01*
X149125096Y-98576791D01*
X149683958Y-98775871D01*
X149683965Y-98775873D01*
X149683968Y-98775874D01*
X149709515Y-98783177D01*
X150254370Y-98938934D01*
X150834013Y-99065317D01*
X151420532Y-99154506D01*
X152011542Y-99206138D01*
X152604642Y-99220004D01*
X153197419Y-99196048D01*
X153787465Y-99134366D01*
X154372382Y-99035210D01*
X154949791Y-98898982D01*
X155517345Y-98726237D01*
X156072739Y-98517676D01*
X156613713Y-98274147D01*
X157138069Y-97996641D01*
X157643675Y-97686284D01*
X158128477Y-97344339D01*
X158590504Y-96972196D01*
X159027877Y-96571367D01*
X159438819Y-96143482D01*
X159821660Y-95690280D01*
X160174842Y-95213603D01*
X160496932Y-94715388D01*
X160786618Y-94197662D01*
X161042725Y-93662528D01*
X161264210Y-93112161D01*
X161407718Y-92677415D01*
X161447424Y-92619927D01*
X161511909Y-92593030D01*
X161580699Y-92605266D01*
X161631953Y-92652750D01*
X161643216Y-92677412D01*
X161786726Y-93112161D01*
X161843644Y-93253596D01*
X162008208Y-93662523D01*
X162151419Y-93961762D01*
X162264317Y-94197662D01*
X162264320Y-94197667D01*
X162264324Y-94197674D01*
X162553996Y-94715377D01*
X162553997Y-94715378D01*
X162876084Y-95213591D01*
X162876105Y-95213621D01*
X163229269Y-95690272D01*
X163229276Y-95690281D01*
X163533695Y-96050649D01*
X163559188Y-96080828D01*
X163612116Y-96143483D01*
X164023049Y-96571360D01*
X164023063Y-96571374D01*
X164185841Y-96720551D01*
X164460432Y-96972198D01*
X164460437Y-96972202D01*
X164460446Y-96972210D01*
X164922452Y-97344337D01*
X164922472Y-97344351D01*
X165407245Y-97686276D01*
X165407250Y-97686279D01*
X165407260Y-97686286D01*
X165912867Y-97996642D01*
X166290120Y-98196297D01*
X166437223Y-98274149D01*
X166437228Y-98274152D01*
X166945513Y-98502965D01*
X166978197Y-98517678D01*
X167533590Y-98726239D01*
X167882791Y-98832525D01*
X168101136Y-98898983D01*
X168101142Y-98898984D01*
X168101144Y-98898985D01*
X168678553Y-99035213D01*
X169263470Y-99134369D01*
X169853516Y-99196051D01*
X170446294Y-99220008D01*
X171039393Y-99206142D01*
X171630404Y-99154510D01*
X172216923Y-99065322D01*
X172796566Y-98938939D01*
X172796585Y-98938933D01*
X172796592Y-98938932D01*
X173224109Y-98816718D01*
X173366978Y-98775877D01*
X173925840Y-98576797D01*
X174470880Y-98342509D01*
X174999882Y-98073965D01*
X175510697Y-97772257D01*
X175978649Y-97453982D01*
X176045148Y-97432558D01*
X176112678Y-97450488D01*
X176118118Y-97453984D01*
X176586071Y-97772260D01*
X176586081Y-97772266D01*
X177096870Y-98073959D01*
X177096886Y-98073968D01*
X177625888Y-98342511D01*
X178170928Y-98576799D01*
X178729790Y-98775879D01*
X178729797Y-98775881D01*
X178729800Y-98775882D01*
X178755319Y-98783177D01*
X179300202Y-98938942D01*
X179879846Y-99065324D01*
X180466365Y-99154513D01*
X181057376Y-99206145D01*
X181650476Y-99220011D01*
X182243254Y-99196054D01*
X182833300Y-99134373D01*
X183418217Y-99035216D01*
X183995626Y-98898988D01*
X183995643Y-98898983D01*
X184061184Y-98879034D01*
X184563181Y-98726242D01*
X185118574Y-98517681D01*
X185507709Y-98342505D01*
X185659542Y-98274155D01*
X185659543Y-98274153D01*
X185659548Y-98274152D01*
X186183904Y-97996645D01*
X186689511Y-97686289D01*
X187174313Y-97344343D01*
X187636340Y-96972200D01*
X188073713Y-96571371D01*
X188484656Y-96143485D01*
X188867496Y-95690283D01*
X189220679Y-95213605D01*
X189542768Y-94715391D01*
X189542776Y-94715378D01*
X189653450Y-94517581D01*
X189832455Y-94197664D01*
X190088562Y-93662529D01*
X190310047Y-93112162D01*
X190453560Y-92677399D01*
X190493266Y-92619912D01*
X190557751Y-92593015D01*
X190626541Y-92605251D01*
G37*
%TD.AperFunction*%
D35*
X94400000Y-94700000D03*
X252310000Y-94040000D03*
X257390000Y-94040000D03*
X262470000Y-94040000D03*
X261200000Y-91500000D03*
X254850000Y-88960000D03*
X135450000Y-93050000D03*
X237725000Y-94025000D03*
X242725000Y-97775000D03*
X237725000Y-99975000D03*
X232725000Y-88875000D03*
X119450000Y-93600000D03*
X108450000Y-93900000D03*
X128450000Y-93150000D03*
X141850000Y-93150000D03*
X225200000Y-91050000D03*
M02*
