%TF.GenerationSoftware,KiCad,Pcbnew,8.0.0-rc2*%
%TF.CreationDate,2025-04-02T21:45:01+07:00*%
%TF.ProjectId,ruler,72756c65-722e-46b6-9963-61645f706362,rev?*%
%TF.SameCoordinates,Original*%
%TF.FileFunction,Paste,Top*%
%TF.FilePolarity,Positive*%
%FSLAX46Y46*%
G04 Gerber Fmt 4.6, Leading zero omitted, Abs format (unit mm)*
G04 Created by KiCad (PCBNEW 8.0.0-rc2) date 2025-04-02 21:45:01*
%MOMM*%
%LPD*%
G01*
G04 APERTURE LIST*
G04 Aperture macros list*
%AMRoundRect*
0 Rectangle with rounded corners*
0 $1 Rounding radius*
0 $2 $3 $4 $5 $6 $7 $8 $9 X,Y pos of 4 corners*
0 Add a 4 corners polygon primitive as box body*
4,1,4,$2,$3,$4,$5,$6,$7,$8,$9,$2,$3,0*
0 Add four circle primitives for the rounded corners*
1,1,$1+$1,$2,$3*
1,1,$1+$1,$4,$5*
1,1,$1+$1,$6,$7*
1,1,$1+$1,$8,$9*
0 Add four rect primitives between the rounded corners*
20,1,$1+$1,$2,$3,$4,$5,0*
20,1,$1+$1,$4,$5,$6,$7,0*
20,1,$1+$1,$6,$7,$8,$9,0*
20,1,$1+$1,$8,$9,$2,$3,0*%
%AMFreePoly0*
4,1,9,3.862500,-0.866500,0.737500,-0.866500,0.737500,-0.450000,-0.737500,-0.450000,-0.737500,0.450000,0.737500,0.450000,0.737500,0.866500,3.862500,0.866500,3.862500,-0.866500,3.862500,-0.866500,$1*%
%AMFreePoly1*
4,1,19,0.379643,0.132453,0.384467,0.128033,0.490533,0.021967,0.512215,-0.024529,0.512500,-0.031066,0.512500,-0.075000,0.494953,-0.123209,0.450524,-0.148861,0.437500,-0.150000,-0.437500,-0.150000,-0.485709,-0.132453,-0.511361,-0.088024,-0.512500,-0.075000,-0.512500,0.075000,-0.494953,0.123209,-0.450524,0.148861,-0.437500,0.150000,0.331434,0.150000,0.379643,0.132453,0.379643,0.132453,
$1*%
%AMFreePoly2*
4,1,19,0.485709,0.132453,0.511361,0.088024,0.512500,0.075000,0.512500,0.031066,0.494953,-0.017143,0.490533,-0.021967,0.384467,-0.128033,0.337971,-0.149715,0.331434,-0.150000,-0.437500,-0.150000,-0.485709,-0.132453,-0.511361,-0.088024,-0.512500,-0.075000,-0.512500,0.075000,-0.494953,0.123209,-0.450524,0.148861,-0.437500,0.150000,0.437500,0.150000,0.485709,0.132453,0.485709,0.132453,
$1*%
%AMFreePoly3*
4,1,19,0.123209,0.494953,0.148861,0.450524,0.150000,0.437500,0.150000,-0.437500,0.132453,-0.485709,0.088024,-0.511361,0.075000,-0.512500,-0.075000,-0.512500,-0.123209,-0.494953,-0.148861,-0.450524,-0.150000,-0.437500,-0.150000,0.331434,-0.132453,0.379643,-0.128033,0.384467,-0.021967,0.490533,0.024529,0.512215,0.031066,0.512500,0.075000,0.512500,0.123209,0.494953,0.123209,0.494953,
$1*%
%AMFreePoly4*
4,1,19,0.017143,0.494953,0.021967,0.490533,0.128033,0.384467,0.149715,0.337971,0.150000,0.331434,0.150000,-0.437500,0.132453,-0.485709,0.088024,-0.511361,0.075000,-0.512500,-0.075000,-0.512500,-0.123209,-0.494953,-0.148861,-0.450524,-0.150000,-0.437500,-0.150000,0.437500,-0.132453,0.485709,-0.088024,0.511361,-0.075000,0.512500,-0.031066,0.512500,0.017143,0.494953,0.017143,0.494953,
$1*%
%AMFreePoly5*
4,1,19,0.485709,0.132453,0.511361,0.088024,0.512500,0.075000,0.512500,-0.075000,0.494953,-0.123209,0.450524,-0.148861,0.437500,-0.150000,-0.331434,-0.150000,-0.379643,-0.132453,-0.384467,-0.128033,-0.490533,-0.021967,-0.512215,0.024529,-0.512500,0.031066,-0.512500,0.075000,-0.494953,0.123209,-0.450524,0.148861,-0.437500,0.150000,0.437500,0.150000,0.485709,0.132453,0.485709,0.132453,
$1*%
%AMFreePoly6*
4,1,19,0.485709,0.132453,0.511361,0.088024,0.512500,0.075000,0.512500,-0.075000,0.494953,-0.123209,0.450524,-0.148861,0.437500,-0.150000,-0.437500,-0.150000,-0.485709,-0.132453,-0.511361,-0.088024,-0.512500,-0.075000,-0.512500,-0.031066,-0.494953,0.017143,-0.490533,0.021967,-0.384467,0.128033,-0.337971,0.149715,-0.331434,0.150000,0.437500,0.150000,0.485709,0.132453,0.485709,0.132453,
$1*%
%AMFreePoly7*
4,1,19,0.123209,0.494953,0.148861,0.450524,0.150000,0.437500,0.150000,-0.331434,0.132453,-0.379643,0.128033,-0.384467,0.021967,-0.490533,-0.024529,-0.512215,-0.031066,-0.512500,-0.075000,-0.512500,-0.123209,-0.494953,-0.148861,-0.450524,-0.150000,-0.437500,-0.150000,0.437500,-0.132453,0.485709,-0.088024,0.511361,-0.075000,0.512500,0.075000,0.512500,0.123209,0.494953,0.123209,0.494953,
$1*%
%AMFreePoly8*
4,1,19,0.123209,0.494953,0.148861,0.450524,0.150000,0.437500,0.150000,-0.437500,0.132453,-0.485709,0.088024,-0.511361,0.075000,-0.512500,0.031066,-0.512500,-0.017143,-0.494953,-0.021967,-0.490533,-0.128033,-0.384467,-0.149715,-0.337971,-0.150000,-0.331434,-0.150000,0.437500,-0.132453,0.485709,-0.088024,0.511361,-0.075000,0.512500,0.075000,0.512500,0.123209,0.494953,0.123209,0.494953,
$1*%
%AMFreePoly9*
4,1,18,-0.410000,0.265000,0.000000,0.675000,0.328000,0.675000,0.359380,0.668758,0.385983,0.650983,0.403758,0.624380,0.410000,0.593000,0.410000,-0.593000,0.403758,-0.624380,0.385983,-0.650983,0.359380,-0.668758,0.328000,-0.675000,-0.328000,-0.675000,-0.359380,-0.668758,-0.385983,-0.650983,-0.403758,-0.624380,-0.410000,-0.593000,-0.410000,0.265000,-0.410000,0.265000,$1*%
G04 Aperture macros list end*
%ADD10R,0.300000X0.800000*%
%ADD11RoundRect,0.140000X-0.140000X-0.170000X0.140000X-0.170000X0.140000X0.170000X-0.140000X0.170000X0*%
%ADD12RoundRect,0.250000X-0.362500X-1.075000X0.362500X-1.075000X0.362500X1.075000X-0.362500X1.075000X0*%
%ADD13RoundRect,0.225000X-0.225000X-0.375000X0.225000X-0.375000X0.225000X0.375000X-0.225000X0.375000X0*%
%ADD14RoundRect,0.250000X-0.450000X-0.800000X0.450000X-0.800000X0.450000X0.800000X-0.450000X0.800000X0*%
%ADD15RoundRect,0.100000X0.100000X-0.637500X0.100000X0.637500X-0.100000X0.637500X-0.100000X-0.637500X0*%
%ADD16RoundRect,0.150000X0.150000X0.200000X-0.150000X0.200000X-0.150000X-0.200000X0.150000X-0.200000X0*%
%ADD17RoundRect,0.250000X-1.025000X-1.000000X1.025000X-1.000000X1.025000X1.000000X-1.025000X1.000000X0*%
%ADD18RoundRect,0.225000X-0.425000X-0.225000X0.425000X-0.225000X0.425000X0.225000X-0.425000X0.225000X0*%
%ADD19FreePoly0,0.000000*%
%ADD20RoundRect,0.250000X0.300000X-2.050000X0.300000X2.050000X-0.300000X2.050000X-0.300000X-2.050000X0*%
%ADD21RoundRect,0.250000X2.375000X-2.025000X2.375000X2.025000X-2.375000X2.025000X-2.375000X-2.025000X0*%
%ADD22RoundRect,0.112500X-0.187500X-0.112500X0.187500X-0.112500X0.187500X0.112500X-0.187500X0.112500X0*%
%ADD23RoundRect,0.079500X-0.079500X-0.100500X0.079500X-0.100500X0.079500X0.100500X-0.079500X0.100500X0*%
%ADD24RoundRect,0.125000X0.125000X-0.762500X0.125000X0.762500X-0.125000X0.762500X-0.125000X-0.762500X0*%
%ADD25RoundRect,0.075000X-0.675000X-0.075000X0.675000X-0.075000X0.675000X0.075000X-0.675000X0.075000X0*%
%ADD26RoundRect,0.075000X-0.075000X-0.675000X0.075000X-0.675000X0.075000X0.675000X-0.075000X0.675000X0*%
%ADD27RoundRect,0.250000X-0.325000X-0.650000X0.325000X-0.650000X0.325000X0.650000X-0.325000X0.650000X0*%
%ADD28RoundRect,0.260000X-1.065000X-1.040000X1.065000X-1.040000X1.065000X1.040000X-1.065000X1.040000X0*%
%ADD29RoundRect,0.105000X-0.245000X-0.245000X0.245000X-0.245000X0.245000X0.245000X-0.245000X0.245000X0*%
%ADD30RoundRect,0.062500X0.117500X0.062500X-0.117500X0.062500X-0.117500X-0.062500X0.117500X-0.062500X0*%
%ADD31RoundRect,0.050000X-0.100000X-0.250000X0.100000X-0.250000X0.100000X0.250000X-0.100000X0.250000X0*%
%ADD32RoundRect,0.375000X-0.625000X-0.375000X0.625000X-0.375000X0.625000X0.375000X-0.625000X0.375000X0*%
%ADD33RoundRect,0.500000X-0.500000X-1.400000X0.500000X-1.400000X0.500000X1.400000X-0.500000X1.400000X0*%
%ADD34RoundRect,0.250000X-0.325000X-1.100000X0.325000X-1.100000X0.325000X1.100000X-0.325000X1.100000X0*%
%ADD35RoundRect,0.250000X0.350000X-0.850000X0.350000X0.850000X-0.350000X0.850000X-0.350000X-0.850000X0*%
%ADD36RoundRect,0.250000X1.125000X-1.275000X1.125000X1.275000X-1.125000X1.275000X-1.125000X-1.275000X0*%
%ADD37RoundRect,0.225000X-0.225000X-0.250000X0.225000X-0.250000X0.225000X0.250000X-0.225000X0.250000X0*%
%ADD38RoundRect,0.200000X-0.200000X-0.300000X0.200000X-0.300000X0.200000X0.300000X-0.200000X0.300000X0*%
%ADD39RoundRect,0.250000X-0.250000X-0.475000X0.250000X-0.475000X0.250000X0.475000X-0.250000X0.475000X0*%
%ADD40RoundRect,0.249999X-0.395001X-0.395001X0.395001X-0.395001X0.395001X0.395001X-0.395001X0.395001X0*%
%ADD41FreePoly1,0.000000*%
%ADD42RoundRect,0.075000X-0.437500X-0.075000X0.437500X-0.075000X0.437500X0.075000X-0.437500X0.075000X0*%
%ADD43FreePoly2,0.000000*%
%ADD44FreePoly3,0.000000*%
%ADD45RoundRect,0.075000X-0.075000X-0.437500X0.075000X-0.437500X0.075000X0.437500X-0.075000X0.437500X0*%
%ADD46FreePoly4,0.000000*%
%ADD47FreePoly5,0.000000*%
%ADD48FreePoly6,0.000000*%
%ADD49FreePoly7,0.000000*%
%ADD50FreePoly8,0.000000*%
%ADD51RoundRect,0.150000X-0.587500X-0.150000X0.587500X-0.150000X0.587500X0.150000X-0.587500X0.150000X0*%
%ADD52RoundRect,0.082000X0.593000X-0.328000X0.593000X0.328000X-0.593000X0.328000X-0.593000X-0.328000X0*%
%ADD53FreePoly9,90.000000*%
%ADD54RoundRect,0.070000X-0.330000X0.280000X-0.330000X-0.280000X0.330000X-0.280000X0.330000X0.280000X0*%
G04 APERTURE END LIST*
D10*
%TO.C,VSSOP*%
X63117500Y-89817500D03*
X62617500Y-89817500D03*
X62117500Y-89817500D03*
X61617500Y-89817500D03*
X61617500Y-92917500D03*
X62117500Y-92917500D03*
X62617500Y-92917500D03*
X63117500Y-92917500D03*
%TD*%
D11*
%TO.C,0402|1005*%
X28280000Y-88350000D03*
X29240000Y-88350000D03*
%TD*%
D12*
%TO.C,2010|5025*%
X28720000Y-102350000D03*
X33345000Y-102350000D03*
%TD*%
D11*
%TO.C,REF\u002A\u002A*%
X30452500Y-88350000D03*
X31412500Y-88350000D03*
%TD*%
D13*
%TO.C,SOD-123*%
X148850000Y-98000000D03*
X152150000Y-98000000D03*
%TD*%
D14*
%TO.C,SOD-128*%
X148300000Y-101500000D03*
X152700000Y-101500000D03*
%TD*%
D15*
%TO.C,TSSOP*%
X55725000Y-92612500D03*
X56375000Y-92612500D03*
X57025000Y-92612500D03*
X57675000Y-92612500D03*
X58325000Y-92612500D03*
X58975000Y-92612500D03*
X59625000Y-92612500D03*
X60275000Y-92612500D03*
X60275000Y-86887500D03*
X59625000Y-86887500D03*
X58975000Y-86887500D03*
X58325000Y-86887500D03*
X57675000Y-86887500D03*
X57025000Y-86887500D03*
X56375000Y-86887500D03*
X55725000Y-86887500D03*
%TD*%
D16*
%TO.C,SOD-523*%
X149800000Y-89750000D03*
X151200000Y-89750000D03*
%TD*%
D17*
%TO.C,REF\u002A\u002A*%
X264750000Y-91500000D03*
X251300000Y-88960000D03*
%TD*%
D18*
%TO.C,SOT-89*%
X165850000Y-90000000D03*
D19*
X165937500Y-91500000D03*
D18*
X165850000Y-93000000D03*
%TD*%
D20*
%TO.C,D2PAK*%
X182135000Y-100075000D03*
D21*
X181900000Y-93350000D03*
X187450000Y-93350000D03*
X181900000Y-88500000D03*
X187450000Y-88500000D03*
D20*
X187215000Y-100075000D03*
%TD*%
D22*
%TO.C,SOD-323*%
X149450000Y-92250000D03*
X151550000Y-92250000D03*
%TD*%
D23*
%TO.C,0201|0603*%
X28215000Y-86350000D03*
X28905000Y-86350000D03*
%TD*%
D24*
%TO.C,SSOP*%
X49225000Y-92412500D03*
X49875000Y-92412500D03*
X50525000Y-92412500D03*
X51175000Y-92412500D03*
X51825000Y-92412500D03*
X52475000Y-92412500D03*
X53125000Y-92412500D03*
X53775000Y-92412500D03*
X53775000Y-85587500D03*
X53125000Y-85587500D03*
X52475000Y-85587500D03*
X51825000Y-85587500D03*
X51175000Y-85587500D03*
X50525000Y-85587500D03*
X49875000Y-85587500D03*
X49225000Y-85587500D03*
%TD*%
D25*
%TO.C,QFP*%
X49325000Y-96750000D03*
X49325000Y-97250000D03*
X49325000Y-97750000D03*
X49325000Y-98250000D03*
X49325000Y-98750000D03*
X49325000Y-99250000D03*
X49325000Y-99750000D03*
X49325000Y-100250000D03*
D26*
X50750000Y-101675000D03*
X51250000Y-101675000D03*
X51750000Y-101675000D03*
X52250000Y-101675000D03*
X52750000Y-101675000D03*
X53250000Y-101675000D03*
X53750000Y-101675000D03*
X54250000Y-101675000D03*
D25*
X55675000Y-100250000D03*
X55675000Y-99750000D03*
X55675000Y-99250000D03*
X55675000Y-98750000D03*
X55675000Y-98250000D03*
X55675000Y-97750000D03*
X55675000Y-97250000D03*
X55675000Y-96750000D03*
D26*
X54250000Y-95325000D03*
X53750000Y-95325000D03*
X53250000Y-95325000D03*
X52750000Y-95325000D03*
X52250000Y-95325000D03*
X51750000Y-95325000D03*
X51250000Y-95325000D03*
X50750000Y-95325000D03*
%TD*%
D27*
%TO.C,1206|3216*%
X28675000Y-95750000D03*
X31625000Y-95750000D03*
%TD*%
D28*
%TO.C,REF\u002A\u002A*%
X245970000Y-97775000D03*
X234480000Y-99975000D03*
%TD*%
D29*
%TO.C,REF\u002A\u002A*%
X225170000Y-93700000D03*
X225170000Y-94800000D03*
X227000000Y-94800000D03*
X227000000Y-93700000D03*
%TD*%
D30*
%TO.C,SOD-923*%
X150080000Y-85250000D03*
X150920000Y-85250000D03*
%TD*%
D31*
%TO.C,SOD-822*%
X150150000Y-87500000D03*
X150850000Y-87500000D03*
%TD*%
D32*
%TO.C,SOT-223*%
X166250000Y-96300000D03*
X166250000Y-98600000D03*
X166250000Y-100900000D03*
D33*
X172550000Y-98600000D03*
%TD*%
D23*
%TO.C,REF\u002A\u002A*%
X33542500Y-86350000D03*
X34232500Y-86350000D03*
%TD*%
D34*
%TO.C,1210|3225*%
X28675000Y-98850000D03*
X31625000Y-98850000D03*
%TD*%
D11*
%TO.C,REF\u002A\u002A*%
X32652500Y-88350000D03*
X33612500Y-88350000D03*
%TD*%
D35*
%TO.C,DPAK*%
X192245000Y-95740000D03*
D36*
X193000000Y-91115000D03*
X196050000Y-91115000D03*
X193000000Y-87765000D03*
X196050000Y-87765000D03*
D35*
X196805000Y-95740000D03*
%TD*%
D37*
%TO.C,0603|1608*%
X28550000Y-90750000D03*
X30100000Y-90750000D03*
%TD*%
D38*
%TO.C,SOD-110*%
X149550000Y-95000000D03*
X151450000Y-95000000D03*
%TD*%
D23*
%TO.C,REF\u002A\u002A*%
X29987500Y-86350000D03*
X30677500Y-86350000D03*
%TD*%
%TO.C,REF\u002A\u002A*%
X31807500Y-86350000D03*
X32497500Y-86350000D03*
%TD*%
D39*
%TO.C,0805|2012*%
X28600000Y-93250000D03*
X30500000Y-93250000D03*
%TD*%
D37*
%TO.C,REF\u002A\u002A*%
X31932500Y-90750000D03*
X33482500Y-90750000D03*
%TD*%
D40*
%TO.C,QFN*%
X59825000Y-97575000D03*
X59825000Y-99175000D03*
X61425000Y-97575000D03*
X61425000Y-99175000D03*
D41*
X58262500Y-96750000D03*
D42*
X58262500Y-97400000D03*
X58262500Y-98050000D03*
X58262500Y-98700000D03*
X58262500Y-99350000D03*
D43*
X58262500Y-100000000D03*
D44*
X59000000Y-100737500D03*
D45*
X59650000Y-100737500D03*
X60300000Y-100737500D03*
X60950000Y-100737500D03*
X61600000Y-100737500D03*
D46*
X62250000Y-100737500D03*
D47*
X62987500Y-100000000D03*
D42*
X62987500Y-99350000D03*
X62987500Y-98700000D03*
X62987500Y-98050000D03*
X62987500Y-97400000D03*
D48*
X62987500Y-96750000D03*
D49*
X62250000Y-96012500D03*
D45*
X61600000Y-96012500D03*
X60950000Y-96012500D03*
X60300000Y-96012500D03*
X59650000Y-96012500D03*
D50*
X59000000Y-96012500D03*
%TD*%
D51*
%TO.C,SOT-23*%
X165925000Y-85750000D03*
X165925000Y-87650000D03*
X167800000Y-86700000D03*
%TD*%
D52*
%TO.C,REF\u002A\u002A*%
X226225000Y-85750000D03*
X226225000Y-87250000D03*
X220775000Y-85750000D03*
D53*
X220775000Y-87250000D03*
%TD*%
D54*
%TO.C,REF\u002A\u002A*%
X223650000Y-90500000D03*
X223650000Y-91600000D03*
X226750000Y-91600000D03*
X226750000Y-90500000D03*
%TD*%
M02*
