%TF.GenerationSoftware,KiCad,Pcbnew,8.0.0-rc2*%
%TF.CreationDate,2025-04-02T21:44:59+07:00*%
%TF.ProjectId,ruler,72756c65-722e-46b6-9963-61645f706362,rev?*%
%TF.SameCoordinates,Original*%
%TF.FileFunction,Soldermask,Top*%
%TF.FilePolarity,Negative*%
%FSLAX46Y46*%
G04 Gerber Fmt 4.6, Leading zero omitted, Abs format (unit mm)*
G04 Created by KiCad (PCBNEW 8.0.0-rc2) date 2025-04-02 21:44:59*
%MOMM*%
%LPD*%
G01*
G04 APERTURE LIST*
G04 Aperture macros list*
%AMRoundRect*
0 Rectangle with rounded corners*
0 $1 Rounding radius*
0 $2 $3 $4 $5 $6 $7 $8 $9 X,Y pos of 4 corners*
0 Add a 4 corners polygon primitive as box body*
4,1,4,$2,$3,$4,$5,$6,$7,$8,$9,$2,$3,0*
0 Add four circle primitives for the rounded corners*
1,1,$1+$1,$2,$3*
1,1,$1+$1,$4,$5*
1,1,$1+$1,$6,$7*
1,1,$1+$1,$8,$9*
0 Add four rect primitives between the rounded corners*
20,1,$1+$1,$2,$3,$4,$5,0*
20,1,$1+$1,$4,$5,$6,$7,0*
20,1,$1+$1,$6,$7,$8,$9,0*
20,1,$1+$1,$8,$9,$2,$3,0*%
%AMFreePoly0*
4,1,9,3.862500,-0.866500,0.737500,-0.866500,0.737500,-0.450000,-0.737500,-0.450000,-0.737500,0.450000,0.737500,0.450000,0.737500,0.866500,3.862500,0.866500,3.862500,-0.866500,3.862500,-0.866500,$1*%
%AMFreePoly1*
4,1,6,1.000000,0.000000,0.500000,-0.750000,-0.500000,-0.750000,-0.500000,0.750000,0.500000,0.750000,1.000000,0.000000,1.000000,0.000000,$1*%
%AMFreePoly2*
4,1,6,0.500000,-0.750000,-0.650000,-0.750000,-0.150000,0.000000,-0.650000,0.750000,0.500000,0.750000,0.500000,-0.750000,0.500000,-0.750000,$1*%
%AMFreePoly3*
4,1,19,0.379643,0.132453,0.384467,0.128033,0.490533,0.021967,0.512215,-0.024529,0.512500,-0.031066,0.512500,-0.075000,0.494953,-0.123209,0.450524,-0.148861,0.437500,-0.150000,-0.437500,-0.150000,-0.485709,-0.132453,-0.511361,-0.088024,-0.512500,-0.075000,-0.512500,0.075000,-0.494953,0.123209,-0.450524,0.148861,-0.437500,0.150000,0.331434,0.150000,0.379643,0.132453,0.379643,0.132453,
$1*%
%AMFreePoly4*
4,1,19,0.485709,0.132453,0.511361,0.088024,0.512500,0.075000,0.512500,0.031066,0.494953,-0.017143,0.490533,-0.021967,0.384467,-0.128033,0.337971,-0.149715,0.331434,-0.150000,-0.437500,-0.150000,-0.485709,-0.132453,-0.511361,-0.088024,-0.512500,-0.075000,-0.512500,0.075000,-0.494953,0.123209,-0.450524,0.148861,-0.437500,0.150000,0.437500,0.150000,0.485709,0.132453,0.485709,0.132453,
$1*%
%AMFreePoly5*
4,1,19,0.123209,0.494953,0.148861,0.450524,0.150000,0.437500,0.150000,-0.437500,0.132453,-0.485709,0.088024,-0.511361,0.075000,-0.512500,-0.075000,-0.512500,-0.123209,-0.494953,-0.148861,-0.450524,-0.150000,-0.437500,-0.150000,0.331434,-0.132453,0.379643,-0.128033,0.384467,-0.021967,0.490533,0.024529,0.512215,0.031066,0.512500,0.075000,0.512500,0.123209,0.494953,0.123209,0.494953,
$1*%
%AMFreePoly6*
4,1,19,0.017143,0.494953,0.021967,0.490533,0.128033,0.384467,0.149715,0.337971,0.150000,0.331434,0.150000,-0.437500,0.132453,-0.485709,0.088024,-0.511361,0.075000,-0.512500,-0.075000,-0.512500,-0.123209,-0.494953,-0.148861,-0.450524,-0.150000,-0.437500,-0.150000,0.437500,-0.132453,0.485709,-0.088024,0.511361,-0.075000,0.512500,-0.031066,0.512500,0.017143,0.494953,0.017143,0.494953,
$1*%
%AMFreePoly7*
4,1,19,0.485709,0.132453,0.511361,0.088024,0.512500,0.075000,0.512500,-0.075000,0.494953,-0.123209,0.450524,-0.148861,0.437500,-0.150000,-0.331434,-0.150000,-0.379643,-0.132453,-0.384467,-0.128033,-0.490533,-0.021967,-0.512215,0.024529,-0.512500,0.031066,-0.512500,0.075000,-0.494953,0.123209,-0.450524,0.148861,-0.437500,0.150000,0.437500,0.150000,0.485709,0.132453,0.485709,0.132453,
$1*%
%AMFreePoly8*
4,1,19,0.485709,0.132453,0.511361,0.088024,0.512500,0.075000,0.512500,-0.075000,0.494953,-0.123209,0.450524,-0.148861,0.437500,-0.150000,-0.437500,-0.150000,-0.485709,-0.132453,-0.511361,-0.088024,-0.512500,-0.075000,-0.512500,-0.031066,-0.494953,0.017143,-0.490533,0.021967,-0.384467,0.128033,-0.337971,0.149715,-0.331434,0.150000,0.437500,0.150000,0.485709,0.132453,0.485709,0.132453,
$1*%
%AMFreePoly9*
4,1,19,0.123209,0.494953,0.148861,0.450524,0.150000,0.437500,0.150000,-0.331434,0.132453,-0.379643,0.128033,-0.384467,0.021967,-0.490533,-0.024529,-0.512215,-0.031066,-0.512500,-0.075000,-0.512500,-0.123209,-0.494953,-0.148861,-0.450524,-0.150000,-0.437500,-0.150000,0.437500,-0.132453,0.485709,-0.088024,0.511361,-0.075000,0.512500,0.075000,0.512500,0.123209,0.494953,0.123209,0.494953,
$1*%
%AMFreePoly10*
4,1,19,0.123209,0.494953,0.148861,0.450524,0.150000,0.437500,0.150000,-0.437500,0.132453,-0.485709,0.088024,-0.511361,0.075000,-0.512500,0.031066,-0.512500,-0.017143,-0.494953,-0.021967,-0.490533,-0.128033,-0.384467,-0.149715,-0.337971,-0.150000,-0.331434,-0.150000,0.437500,-0.132453,0.485709,-0.088024,0.511361,-0.075000,0.512500,0.075000,0.512500,0.123209,0.494953,0.123209,0.494953,
$1*%
%AMFreePoly11*
4,1,18,-0.410000,0.265000,0.000000,0.675000,0.328000,0.675000,0.359380,0.668758,0.385983,0.650983,0.403758,0.624380,0.410000,0.593000,0.410000,-0.593000,0.403758,-0.624380,0.385983,-0.650983,0.359380,-0.668758,0.328000,-0.675000,-0.328000,-0.675000,-0.359380,-0.668758,-0.385983,-0.650983,-0.403758,-0.624380,-0.410000,-0.593000,-0.410000,0.265000,-0.410000,0.265000,$1*%
G04 Aperture macros list end*
%ADD10RoundRect,0.200000X0.000000X1.050000X0.000000X1.050000X0.000000X-1.050000X0.000000X-1.050000X0*%
%ADD11RoundRect,0.200000X0.000000X1.800000X0.000000X1.800000X0.000000X-1.800000X0.000000X-1.800000X0*%
%ADD12R,0.200000X1.000000*%
%ADD13RoundRect,0.200000X-5.000000X0.000000X-5.000000X0.000000X5.000000X0.000000X5.000000X0.000000X0*%
%ADD14RoundRect,0.200000X0.000000X-1.050000X0.000000X-1.050000X0.000000X1.050000X0.000000X1.050000X0*%
%ADD15RoundRect,0.200000X0.000000X-1.800000X0.000000X-1.800000X0.000000X1.800000X0.000000X1.800000X0*%
%ADD16RoundRect,0.200000X5.000000X0.000000X5.000000X0.000000X-5.000000X0.000000X-5.000000X0.000000X0*%
%ADD17R,0.300000X0.800000*%
%ADD18RoundRect,0.140000X-0.140000X-0.170000X0.140000X-0.170000X0.140000X0.170000X-0.140000X0.170000X0*%
%ADD19R,2.000000X2.000000*%
%ADD20R,1.500000X1.500000*%
%ADD21RoundRect,0.250000X-0.362500X-1.075000X0.362500X-1.075000X0.362500X1.075000X-0.362500X1.075000X0*%
%ADD22C,1.500000*%
%ADD23C,12.800000*%
%ADD24C,1.000000*%
%ADD25RoundRect,0.225000X-0.225000X-0.375000X0.225000X-0.375000X0.225000X0.375000X-0.225000X0.375000X0*%
%ADD26RoundRect,0.250000X-0.450000X-0.800000X0.450000X-0.800000X0.450000X0.800000X-0.450000X0.800000X0*%
%ADD27R,1.000000X1.500000*%
%ADD28RoundRect,0.100000X0.100000X-0.637500X0.100000X0.637500X-0.100000X0.637500X-0.100000X-0.637500X0*%
%ADD29RoundRect,0.150000X0.150000X0.200000X-0.150000X0.200000X-0.150000X-0.200000X0.150000X-0.200000X0*%
%ADD30C,1.750000*%
%ADD31C,3.987800*%
%ADD32C,3.300000*%
%ADD33RoundRect,0.250000X-1.025000X-1.000000X1.025000X-1.000000X1.025000X1.000000X-1.025000X1.000000X0*%
%ADD34RoundRect,0.225000X-0.425000X-0.225000X0.425000X-0.225000X0.425000X0.225000X-0.425000X0.225000X0*%
%ADD35FreePoly0,0.000000*%
%ADD36RoundRect,0.250000X0.300000X-2.050000X0.300000X2.050000X-0.300000X2.050000X-0.300000X-2.050000X0*%
%ADD37RoundRect,0.250002X5.149998X-4.449998X5.149998X4.449998X-5.149998X4.449998X-5.149998X-4.449998X0*%
%ADD38C,5.400000*%
%ADD39RoundRect,0.112500X-0.187500X-0.112500X0.187500X-0.112500X0.187500X0.112500X-0.187500X0.112500X0*%
%ADD40RoundRect,0.100000X-0.130000X-0.100000X0.130000X-0.100000X0.130000X0.100000X-0.130000X0.100000X0*%
%ADD41RoundRect,0.125000X0.125000X-0.762500X0.125000X0.762500X-0.125000X0.762500X-0.125000X-0.762500X0*%
%ADD42RoundRect,0.075000X-0.675000X-0.075000X0.675000X-0.075000X0.675000X0.075000X-0.675000X0.075000X0*%
%ADD43RoundRect,0.075000X-0.075000X-0.675000X0.075000X-0.675000X0.075000X0.675000X-0.075000X0.675000X0*%
%ADD44R,3.000000X3.000000*%
%ADD45RoundRect,0.250000X-0.325000X-0.650000X0.325000X-0.650000X0.325000X0.650000X-0.325000X0.650000X0*%
%ADD46C,5.000000*%
%ADD47RoundRect,0.260000X-1.065000X-1.040000X1.065000X-1.040000X1.065000X1.040000X-1.065000X1.040000X0*%
%ADD48C,2.400000*%
%ADD49C,3.000000*%
%ADD50FreePoly1,0.000000*%
%ADD51FreePoly2,0.000000*%
%ADD52C,8.600000*%
%ADD53RoundRect,0.105000X-0.245000X-0.245000X0.245000X-0.245000X0.245000X0.245000X-0.245000X0.245000X0*%
%ADD54RoundRect,0.062500X0.117500X0.062500X-0.117500X0.062500X-0.117500X-0.062500X0.117500X-0.062500X0*%
%ADD55RoundRect,0.050000X-0.150000X-0.300000X0.150000X-0.300000X0.150000X0.300000X-0.150000X0.300000X0*%
%ADD56RoundRect,0.375000X-0.625000X-0.375000X0.625000X-0.375000X0.625000X0.375000X-0.625000X0.375000X0*%
%ADD57RoundRect,0.500000X-0.500000X-1.400000X0.500000X-1.400000X0.500000X1.400000X-0.500000X1.400000X0*%
%ADD58RoundRect,0.250000X-0.325000X-1.100000X0.325000X-1.100000X0.325000X1.100000X-0.325000X1.100000X0*%
%ADD59C,10.600000*%
%ADD60RoundRect,0.250000X0.350000X-0.850000X0.350000X0.850000X-0.350000X0.850000X-0.350000X-0.850000X0*%
%ADD61RoundRect,0.249997X2.650003X-2.950003X2.650003X2.950003X-2.650003X2.950003X-2.650003X-2.950003X0*%
%ADD62RoundRect,0.225000X-0.225000X-0.250000X0.225000X-0.250000X0.225000X0.250000X-0.225000X0.250000X0*%
%ADD63RoundRect,0.200000X-0.200000X-0.300000X0.200000X-0.300000X0.200000X0.300000X-0.200000X0.300000X0*%
%ADD64FreePoly1,180.000000*%
%ADD65C,6.400000*%
%ADD66R,1.000000X1.000000*%
%ADD67C,4.400000*%
%ADD68RoundRect,0.250000X-0.250000X-0.475000X0.250000X-0.475000X0.250000X0.475000X-0.250000X0.475000X0*%
%ADD69R,2.500000X2.500000*%
%ADD70FreePoly3,0.000000*%
%ADD71RoundRect,0.075000X-0.437500X-0.075000X0.437500X-0.075000X0.437500X0.075000X-0.437500X0.075000X0*%
%ADD72FreePoly4,0.000000*%
%ADD73FreePoly5,0.000000*%
%ADD74RoundRect,0.075000X-0.075000X-0.437500X0.075000X-0.437500X0.075000X0.437500X-0.075000X0.437500X0*%
%ADD75FreePoly6,0.000000*%
%ADD76FreePoly7,0.000000*%
%ADD77FreePoly8,0.000000*%
%ADD78FreePoly9,0.000000*%
%ADD79FreePoly10,0.000000*%
%ADD80R,3.200000X3.200000*%
%ADD81R,4.000000X4.000000*%
%ADD82RoundRect,0.150000X-0.587500X-0.150000X0.587500X-0.150000X0.587500X0.150000X-0.587500X0.150000X0*%
%ADD83RoundRect,0.082000X0.593000X-0.328000X0.593000X0.328000X-0.593000X0.328000X-0.593000X-0.328000X0*%
%ADD84FreePoly11,90.000000*%
%ADD85C,2.100000*%
%ADD86RoundRect,0.070000X-0.330000X0.280000X-0.330000X-0.280000X0.330000X-0.280000X0.330000X0.280000X0*%
%ADD87C,2.000000*%
G04 APERTURE END LIST*
D10*
%TO.C,REF\u002A\u002A25*%
X48000000Y-107750000D03*
D11*
X53000000Y-107200000D03*
D12*
X52000000Y-108500000D03*
X51000000Y-108500000D03*
X50000000Y-108500000D03*
X49000000Y-108500000D03*
D13*
X48000000Y-109000000D03*
D12*
X47000000Y-108500000D03*
X46000000Y-108500000D03*
X45000000Y-108500000D03*
X44000000Y-108500000D03*
%TD*%
D14*
%TO.C,REF\u002A\u002A18*%
X208000000Y-80250000D03*
D15*
X203000000Y-80800000D03*
D12*
X204000000Y-79500000D03*
X205000000Y-79500000D03*
X206000000Y-79500000D03*
X207000000Y-79500000D03*
D16*
X208000000Y-79000000D03*
D12*
X209000000Y-79500000D03*
X210000000Y-79500000D03*
X211000000Y-79500000D03*
X212000000Y-79500000D03*
%TD*%
D17*
%TO.C,VSSOP*%
X63117500Y-89817500D03*
X62617500Y-89817500D03*
X62117500Y-89817500D03*
X61617500Y-89817500D03*
X61617500Y-92917500D03*
X62117500Y-92917500D03*
X62617500Y-92917500D03*
X63117500Y-92917500D03*
%TD*%
D10*
%TO.C,REF\u002A\u002A6*%
X238000000Y-107750000D03*
D11*
X243000000Y-107200000D03*
D12*
X242000000Y-108500000D03*
X241000000Y-108500000D03*
X240000000Y-108500000D03*
X239000000Y-108500000D03*
D13*
X238000000Y-109000000D03*
D12*
X237000000Y-108500000D03*
X236000000Y-108500000D03*
X235000000Y-108500000D03*
X234000000Y-108500000D03*
%TD*%
D14*
%TO.C,REF\u002A\u002A23*%
X258000000Y-80250000D03*
D15*
X253000000Y-80800000D03*
D12*
X254000000Y-79500000D03*
X255000000Y-79500000D03*
X256000000Y-79500000D03*
X257000000Y-79500000D03*
D16*
X258000000Y-79000000D03*
D12*
X259000000Y-79500000D03*
X260000000Y-79500000D03*
X261000000Y-79500000D03*
X262000000Y-79500000D03*
%TD*%
D14*
%TO.C,REF\u002A\u002A21*%
X238000000Y-80250000D03*
D15*
X233000000Y-80800000D03*
D12*
X234000000Y-79500000D03*
X235000000Y-79500000D03*
X236000000Y-79500000D03*
X237000000Y-79500000D03*
D16*
X238000000Y-79000000D03*
D12*
X239000000Y-79500000D03*
X240000000Y-79500000D03*
X241000000Y-79500000D03*
X242000000Y-79500000D03*
%TD*%
D10*
%TO.C,REF\u002A\u002A14*%
X158000000Y-107750000D03*
D11*
X163000000Y-107200000D03*
D12*
X162000000Y-108500000D03*
X161000000Y-108500000D03*
X160000000Y-108500000D03*
X159000000Y-108500000D03*
D13*
X158000000Y-109000000D03*
D12*
X157000000Y-108500000D03*
X156000000Y-108500000D03*
X155000000Y-108500000D03*
X154000000Y-108500000D03*
%TD*%
D18*
%TO.C,0402|1005*%
X28280000Y-88350000D03*
X29240000Y-88350000D03*
%TD*%
D19*
%TO.C,2mm*%
X67100000Y-90000000D03*
%TD*%
D10*
%TO.C,REF\u002A\u002A7*%
X228000000Y-107750000D03*
D11*
X233000000Y-107200000D03*
D12*
X232000000Y-108500000D03*
X231000000Y-108500000D03*
X230000000Y-108500000D03*
X229000000Y-108500000D03*
D13*
X228000000Y-109000000D03*
D12*
X227000000Y-108500000D03*
X226000000Y-108500000D03*
X225000000Y-108500000D03*
X224000000Y-108500000D03*
%TD*%
D20*
%TO.C,1.5mm*%
X67100000Y-87250000D03*
%TD*%
D14*
%TO.C,REF\u002A\u002A13*%
X158000000Y-80250000D03*
D15*
X153000000Y-80800000D03*
D12*
X154000000Y-79500000D03*
X155000000Y-79500000D03*
X156000000Y-79500000D03*
X157000000Y-79500000D03*
D16*
X158000000Y-79000000D03*
D12*
X159000000Y-79500000D03*
X160000000Y-79500000D03*
X161000000Y-79500000D03*
X162000000Y-79500000D03*
%TD*%
D14*
%TO.C,REF\u002A\u002A14*%
X168000000Y-80250000D03*
D15*
X163000000Y-80800000D03*
D12*
X164000000Y-79500000D03*
X165000000Y-79500000D03*
X166000000Y-79500000D03*
X167000000Y-79500000D03*
D16*
X168000000Y-79000000D03*
D12*
X169000000Y-79500000D03*
X170000000Y-79500000D03*
X171000000Y-79500000D03*
X172000000Y-79500000D03*
%TD*%
D14*
%TO.C,REF\u002A\u002A4*%
X68000000Y-80250000D03*
D15*
X63000000Y-80800000D03*
D12*
X64000000Y-79500000D03*
X65000000Y-79500000D03*
X66000000Y-79500000D03*
X67000000Y-79500000D03*
D16*
X68000000Y-79000000D03*
D12*
X69000000Y-79500000D03*
X70000000Y-79500000D03*
X71000000Y-79500000D03*
X72000000Y-79500000D03*
%TD*%
D14*
%TO.C,REF\u002A\u002A2*%
X48000000Y-80250000D03*
D15*
X43000000Y-80800000D03*
D12*
X44000000Y-79500000D03*
X45000000Y-79500000D03*
X46000000Y-79500000D03*
X47000000Y-79500000D03*
D16*
X48000000Y-79000000D03*
D12*
X49000000Y-79500000D03*
X50000000Y-79500000D03*
X51000000Y-79500000D03*
X52000000Y-79500000D03*
%TD*%
D21*
%TO.C,2010|5025*%
X28720000Y-102350000D03*
X33345000Y-102350000D03*
%TD*%
D14*
%TO.C,REF\u002A\u002A1*%
X38000000Y-80250000D03*
D15*
X33000000Y-80800000D03*
D12*
X34000000Y-79500000D03*
X35000000Y-79500000D03*
X36000000Y-79500000D03*
X37000000Y-79500000D03*
D16*
X38000000Y-79000000D03*
D12*
X39000000Y-79500000D03*
X40000000Y-79500000D03*
X41000000Y-79500000D03*
X42000000Y-79500000D03*
%TD*%
D22*
%TO.C,REF\u002A\u002A*%
X203000000Y-101250000D03*
%TD*%
D23*
%TO.C,M6*%
X94400000Y-94700000D03*
%TD*%
D10*
%TO.C,REF\u002A\u002A10*%
X198000000Y-107750000D03*
D11*
X203000000Y-107200000D03*
D12*
X202000000Y-108500000D03*
X201000000Y-108500000D03*
X200000000Y-108500000D03*
X199000000Y-108500000D03*
D13*
X198000000Y-109000000D03*
D12*
X197000000Y-108500000D03*
X196000000Y-108500000D03*
X195000000Y-108500000D03*
X194000000Y-108500000D03*
%TD*%
D24*
%TO.C,REF\u002A\u002A*%
X206500000Y-101500000D03*
%TD*%
D18*
%TO.C,REF\u002A\u002A*%
X30452500Y-88350000D03*
X31412500Y-88350000D03*
%TD*%
D10*
%TO.C,REF\u002A\u002A22*%
X78000000Y-107750000D03*
D11*
X83000000Y-107200000D03*
D12*
X82000000Y-108500000D03*
X81000000Y-108500000D03*
X80000000Y-108500000D03*
X79000000Y-108500000D03*
D13*
X78000000Y-109000000D03*
D12*
X77000000Y-108500000D03*
X76000000Y-108500000D03*
X75000000Y-108500000D03*
X74000000Y-108500000D03*
%TD*%
D25*
%TO.C,SOD-123*%
X148850000Y-98000000D03*
X152150000Y-98000000D03*
%TD*%
D14*
%TO.C,REF\u002A\u002A7*%
X98000000Y-80250000D03*
D15*
X93000000Y-80800000D03*
D12*
X94000000Y-79500000D03*
X95000000Y-79500000D03*
X96000000Y-79500000D03*
X97000000Y-79500000D03*
D16*
X98000000Y-79000000D03*
D12*
X99000000Y-79500000D03*
X100000000Y-79500000D03*
X101000000Y-79500000D03*
X102000000Y-79500000D03*
%TD*%
D26*
%TO.C,SOD-128*%
X148300000Y-101500000D03*
X152700000Y-101500000D03*
%TD*%
D10*
%TO.C,REF\u002A\u002A9*%
X208000000Y-107750000D03*
D11*
X213000000Y-107200000D03*
D12*
X212000000Y-108500000D03*
X211000000Y-108500000D03*
X210000000Y-108500000D03*
X209000000Y-108500000D03*
D13*
X208000000Y-109000000D03*
D12*
X207000000Y-108500000D03*
X206000000Y-108500000D03*
X205000000Y-108500000D03*
X204000000Y-108500000D03*
%TD*%
D27*
%TO.C,REF\u002A\u002A*%
X209650000Y-90850000D03*
X208350000Y-90850000D03*
X207050000Y-90850000D03*
%TD*%
D28*
%TO.C,TSSOP*%
X55725000Y-92612500D03*
X56375000Y-92612500D03*
X57025000Y-92612500D03*
X57675000Y-92612500D03*
X58325000Y-92612500D03*
X58975000Y-92612500D03*
X59625000Y-92612500D03*
X60275000Y-92612500D03*
X60275000Y-86887500D03*
X59625000Y-86887500D03*
X58975000Y-86887500D03*
X58325000Y-86887500D03*
X57675000Y-86887500D03*
X57025000Y-86887500D03*
X56375000Y-86887500D03*
X55725000Y-86887500D03*
%TD*%
D14*
%TO.C,REF\u002A\u002A9*%
X118000000Y-80250000D03*
D15*
X113000000Y-80800000D03*
D12*
X114000000Y-79500000D03*
X115000000Y-79500000D03*
X116000000Y-79500000D03*
X117000000Y-79500000D03*
D16*
X118000000Y-79000000D03*
D12*
X119000000Y-79500000D03*
X120000000Y-79500000D03*
X121000000Y-79500000D03*
X122000000Y-79500000D03*
%TD*%
D29*
%TO.C,SOD-523*%
X149800000Y-89750000D03*
X151200000Y-89750000D03*
%TD*%
D30*
%TO.C,REF\u002A\u002A*%
X252310000Y-94040000D03*
D31*
X257390000Y-94040000D03*
D30*
X262470000Y-94040000D03*
D32*
X261200000Y-91500000D03*
D33*
X264750000Y-91500000D03*
X251300000Y-88960000D03*
D32*
X254850000Y-88960000D03*
%TD*%
D10*
%TO.C,REF\u002A\u002A8*%
X218000000Y-107750000D03*
D11*
X223000000Y-107200000D03*
D12*
X222000000Y-108500000D03*
X221000000Y-108500000D03*
X220000000Y-108500000D03*
X219000000Y-108500000D03*
D13*
X218000000Y-109000000D03*
D12*
X217000000Y-108500000D03*
X216000000Y-108500000D03*
X215000000Y-108500000D03*
X214000000Y-108500000D03*
%TD*%
D14*
%TO.C,REF\u002A\u002A11*%
X138000000Y-80250000D03*
D15*
X133000000Y-80800000D03*
D12*
X134000000Y-79500000D03*
X135000000Y-79500000D03*
X136000000Y-79500000D03*
X137000000Y-79500000D03*
D16*
X138000000Y-79000000D03*
D12*
X139000000Y-79500000D03*
X140000000Y-79500000D03*
X141000000Y-79500000D03*
X142000000Y-79500000D03*
%TD*%
D34*
%TO.C,SOT-89*%
X165850000Y-90000000D03*
D35*
X165937500Y-91500000D03*
D34*
X165850000Y-93000000D03*
%TD*%
D36*
%TO.C,D2PAK*%
X182135000Y-100075000D03*
D37*
X184675000Y-90925000D03*
D36*
X187215000Y-100075000D03*
%TD*%
D14*
%TO.C,REF\u002A\u002A27*%
X308000000Y-80250000D03*
D15*
X303000000Y-80800000D03*
D12*
X304000000Y-79500000D03*
X305000000Y-79500000D03*
X306000000Y-79500000D03*
X307000000Y-79500000D03*
D16*
X308000000Y-79000000D03*
D12*
X309000000Y-79500000D03*
X310000000Y-79500000D03*
X311000000Y-79500000D03*
X312000000Y-79500000D03*
%TD*%
D38*
%TO.C,M2.5*%
X135450000Y-93050000D03*
%TD*%
D39*
%TO.C,SOD-323*%
X149450000Y-92250000D03*
X151550000Y-92250000D03*
%TD*%
D10*
%TO.C,REF\u002A\u002A13*%
X168000000Y-107750000D03*
D11*
X173000000Y-107200000D03*
D12*
X172000000Y-108500000D03*
X171000000Y-108500000D03*
X170000000Y-108500000D03*
X169000000Y-108500000D03*
D13*
X168000000Y-109000000D03*
D12*
X167000000Y-108500000D03*
X166000000Y-108500000D03*
X165000000Y-108500000D03*
X164000000Y-108500000D03*
%TD*%
D27*
%TO.C,REF\u002A\u002A*%
X203650000Y-86900000D03*
X204950000Y-86900000D03*
%TD*%
D14*
%TO.C,REF\u002A\u002A19*%
X218000000Y-80250000D03*
D15*
X213000000Y-80800000D03*
D12*
X214000000Y-79500000D03*
X215000000Y-79500000D03*
X216000000Y-79500000D03*
X217000000Y-79500000D03*
D16*
X218000000Y-79000000D03*
D12*
X219000000Y-79500000D03*
X220000000Y-79500000D03*
X221000000Y-79500000D03*
X222000000Y-79500000D03*
%TD*%
D40*
%TO.C,0201|0603*%
X28240000Y-86350000D03*
X28880000Y-86350000D03*
%TD*%
D41*
%TO.C,SSOP*%
X49225000Y-92412500D03*
X49875000Y-92412500D03*
X50525000Y-92412500D03*
X51175000Y-92412500D03*
X51825000Y-92412500D03*
X52475000Y-92412500D03*
X53125000Y-92412500D03*
X53775000Y-92412500D03*
X53775000Y-85587500D03*
X53125000Y-85587500D03*
X52475000Y-85587500D03*
X51825000Y-85587500D03*
X51175000Y-85587500D03*
X50525000Y-85587500D03*
X49875000Y-85587500D03*
X49225000Y-85587500D03*
%TD*%
D42*
%TO.C,QFP*%
X49325000Y-96750000D03*
X49325000Y-97250000D03*
X49325000Y-97750000D03*
X49325000Y-98250000D03*
X49325000Y-98750000D03*
X49325000Y-99250000D03*
X49325000Y-99750000D03*
X49325000Y-100250000D03*
D43*
X50750000Y-101675000D03*
X51250000Y-101675000D03*
X51750000Y-101675000D03*
X52250000Y-101675000D03*
X52750000Y-101675000D03*
X53250000Y-101675000D03*
X53750000Y-101675000D03*
X54250000Y-101675000D03*
D42*
X55675000Y-100250000D03*
X55675000Y-99750000D03*
X55675000Y-99250000D03*
X55675000Y-98750000D03*
X55675000Y-98250000D03*
X55675000Y-97750000D03*
X55675000Y-97250000D03*
X55675000Y-96750000D03*
D43*
X54250000Y-95325000D03*
X53750000Y-95325000D03*
X53250000Y-95325000D03*
X52750000Y-95325000D03*
X52250000Y-95325000D03*
X51750000Y-95325000D03*
X51250000Y-95325000D03*
X50750000Y-95325000D03*
%TD*%
D10*
%TO.C,REF\u002A\u002A16*%
X138000000Y-107750000D03*
D11*
X143000000Y-107200000D03*
D12*
X142000000Y-108500000D03*
X141000000Y-108500000D03*
X140000000Y-108500000D03*
X139000000Y-108500000D03*
D13*
X138000000Y-109000000D03*
D12*
X137000000Y-108500000D03*
X136000000Y-108500000D03*
X135000000Y-108500000D03*
X134000000Y-108500000D03*
%TD*%
D44*
%TO.C,3mm*%
X67100000Y-97000000D03*
%TD*%
D45*
%TO.C,1206|3216*%
X28675000Y-95750000D03*
X31625000Y-95750000D03*
%TD*%
D10*
%TO.C,REF\u002A\u002A15*%
X148000000Y-107750000D03*
D11*
X153000000Y-107200000D03*
D12*
X152000000Y-108500000D03*
X151000000Y-108500000D03*
X150000000Y-108500000D03*
X149000000Y-108500000D03*
D13*
X148000000Y-109000000D03*
D12*
X147000000Y-108500000D03*
X146000000Y-108500000D03*
X145000000Y-108500000D03*
X144000000Y-108500000D03*
%TD*%
D27*
%TO.C,REF\u002A\u002A*%
X203650000Y-90850000D03*
X204950000Y-90850000D03*
%TD*%
D46*
%TO.C,REF\u002A\u002A*%
X237725000Y-94025000D03*
D32*
X242725000Y-97775000D03*
D47*
X245970000Y-97775000D03*
X234480000Y-99975000D03*
D32*
X237725000Y-99975000D03*
D48*
X232725000Y-88875000D03*
%TD*%
D49*
%TO.C,REF\u002A\u002A*%
X195000000Y-100250000D03*
%TD*%
D50*
%TO.C,REF\u002A\u002A*%
X211775000Y-94500000D03*
D51*
X213225000Y-94500000D03*
%TD*%
D10*
%TO.C,REF\u002A\u002A19*%
X108000000Y-107750000D03*
D11*
X113000000Y-107200000D03*
D12*
X112000000Y-108500000D03*
X111000000Y-108500000D03*
X110000000Y-108500000D03*
X109000000Y-108500000D03*
D13*
X108000000Y-109000000D03*
D12*
X107000000Y-108500000D03*
X106000000Y-108500000D03*
X105000000Y-108500000D03*
X104000000Y-108500000D03*
%TD*%
D14*
%TO.C,REF\u002A\u002A20*%
X228000000Y-80250000D03*
D15*
X223000000Y-80800000D03*
D12*
X224000000Y-79500000D03*
X225000000Y-79500000D03*
X226000000Y-79500000D03*
X227000000Y-79500000D03*
D16*
X228000000Y-79000000D03*
D12*
X229000000Y-79500000D03*
X230000000Y-79500000D03*
X231000000Y-79500000D03*
X232000000Y-79500000D03*
%TD*%
D52*
%TO.C,M4*%
X119450000Y-93600000D03*
%TD*%
D14*
%TO.C,REF\u002A\u002A15*%
X178000000Y-80250000D03*
D15*
X173000000Y-80800000D03*
D12*
X174000000Y-79500000D03*
X175000000Y-79500000D03*
X176000000Y-79500000D03*
X177000000Y-79500000D03*
D16*
X178000000Y-79000000D03*
D12*
X179000000Y-79500000D03*
X180000000Y-79500000D03*
X181000000Y-79500000D03*
X182000000Y-79500000D03*
%TD*%
D53*
%TO.C,REF\u002A\u002A*%
X225170000Y-93700000D03*
X225170000Y-94800000D03*
X227000000Y-94800000D03*
X227000000Y-93700000D03*
%TD*%
D54*
%TO.C,SOD-923*%
X150080000Y-85250000D03*
X150920000Y-85250000D03*
%TD*%
D10*
%TO.C,REF\u002A\u002A17*%
X128000000Y-107750000D03*
D11*
X133000000Y-107200000D03*
D12*
X132000000Y-108500000D03*
X131000000Y-108500000D03*
X130000000Y-108500000D03*
X129000000Y-108500000D03*
D13*
X128000000Y-109000000D03*
D12*
X127000000Y-108500000D03*
X126000000Y-108500000D03*
X125000000Y-108500000D03*
X124000000Y-108500000D03*
%TD*%
D14*
%TO.C,REF\u002A\u002A17*%
X198000000Y-80250000D03*
D15*
X193000000Y-80800000D03*
D12*
X194000000Y-79500000D03*
X195000000Y-79500000D03*
X196000000Y-79500000D03*
X197000000Y-79500000D03*
D16*
X198000000Y-79000000D03*
D12*
X199000000Y-79500000D03*
X200000000Y-79500000D03*
X201000000Y-79500000D03*
X202000000Y-79500000D03*
%TD*%
D14*
%TO.C,REF\u002A\u002A5*%
X78000000Y-80250000D03*
D15*
X73000000Y-80800000D03*
D12*
X74000000Y-79500000D03*
X75000000Y-79500000D03*
X76000000Y-79500000D03*
X77000000Y-79500000D03*
D16*
X78000000Y-79000000D03*
D12*
X79000000Y-79500000D03*
X80000000Y-79500000D03*
X81000000Y-79500000D03*
X82000000Y-79500000D03*
%TD*%
D14*
%TO.C,REF\u002A\u002A*%
X18000000Y-80250000D03*
D15*
X13000000Y-80800000D03*
D12*
X14000000Y-79500000D03*
X15000000Y-79500000D03*
X16000000Y-79500000D03*
X17000000Y-79500000D03*
D16*
X18000000Y-79000000D03*
D12*
X19000000Y-79500000D03*
X20000000Y-79500000D03*
X21000000Y-79500000D03*
X22000000Y-79500000D03*
%TD*%
D14*
%TO.C,REF\u002A\u002A12*%
X148000000Y-80250000D03*
D15*
X143000000Y-80800000D03*
D12*
X144000000Y-79500000D03*
X145000000Y-79500000D03*
X146000000Y-79500000D03*
X147000000Y-79500000D03*
D16*
X148000000Y-79000000D03*
D12*
X149000000Y-79500000D03*
X150000000Y-79500000D03*
X151000000Y-79500000D03*
X152000000Y-79500000D03*
%TD*%
D14*
%TO.C,REF\u002A\u002A27*%
X298000000Y-80250000D03*
D15*
X293000000Y-80800000D03*
D12*
X294000000Y-79500000D03*
X295000000Y-79500000D03*
X296000000Y-79500000D03*
X297000000Y-79500000D03*
D16*
X298000000Y-79000000D03*
D12*
X299000000Y-79500000D03*
X300000000Y-79500000D03*
X301000000Y-79500000D03*
X302000000Y-79500000D03*
%TD*%
D14*
%TO.C,REF\u002A\u002A25*%
X278000000Y-80250000D03*
D15*
X273000000Y-80800000D03*
D12*
X274000000Y-79500000D03*
X275000000Y-79500000D03*
X276000000Y-79500000D03*
X277000000Y-79500000D03*
D16*
X278000000Y-79000000D03*
D12*
X279000000Y-79500000D03*
X280000000Y-79500000D03*
X281000000Y-79500000D03*
X282000000Y-79500000D03*
%TD*%
D10*
%TO.C,REF\u002A\u002A1*%
X288000000Y-107750000D03*
D11*
X293000000Y-107200000D03*
D12*
X292000000Y-108500000D03*
X291000000Y-108500000D03*
X290000000Y-108500000D03*
X289000000Y-108500000D03*
D13*
X288000000Y-109000000D03*
D12*
X287000000Y-108500000D03*
X286000000Y-108500000D03*
X285000000Y-108500000D03*
X284000000Y-108500000D03*
%TD*%
D10*
%TO.C,REF\u002A\u002A12*%
X178000000Y-107750000D03*
D11*
X183000000Y-107200000D03*
D12*
X182000000Y-108500000D03*
X181000000Y-108500000D03*
X180000000Y-108500000D03*
X179000000Y-108500000D03*
D13*
X178000000Y-109000000D03*
D12*
X177000000Y-108500000D03*
X176000000Y-108500000D03*
X175000000Y-108500000D03*
X174000000Y-108500000D03*
%TD*%
D14*
%TO.C,REF\u002A\u002A3*%
X58000000Y-80250000D03*
D15*
X53000000Y-80800000D03*
D12*
X54000000Y-79500000D03*
X55000000Y-79500000D03*
X56000000Y-79500000D03*
X57000000Y-79500000D03*
D16*
X58000000Y-79000000D03*
D12*
X59000000Y-79500000D03*
X60000000Y-79500000D03*
X61000000Y-79500000D03*
X62000000Y-79500000D03*
%TD*%
D14*
%TO.C,REF\u002A\u002A6*%
X88000000Y-80250000D03*
D15*
X83000000Y-80800000D03*
D12*
X84000000Y-79500000D03*
X85000000Y-79500000D03*
X86000000Y-79500000D03*
X87000000Y-79500000D03*
D16*
X88000000Y-79000000D03*
D12*
X89000000Y-79500000D03*
X90000000Y-79500000D03*
X91000000Y-79500000D03*
X92000000Y-79500000D03*
%TD*%
D55*
%TO.C,SOD-822*%
X150150000Y-87500000D03*
X150850000Y-87500000D03*
%TD*%
D56*
%TO.C,SOT-223*%
X166250000Y-96300000D03*
X166250000Y-98600000D03*
X166250000Y-100900000D03*
D57*
X172550000Y-98600000D03*
%TD*%
D40*
%TO.C,REF\u002A\u002A*%
X33567500Y-86350000D03*
X34207500Y-86350000D03*
%TD*%
D58*
%TO.C,1210|3225*%
X28675000Y-98850000D03*
X31625000Y-98850000D03*
%TD*%
D14*
%TO.C,REF\u002A\u002A22*%
X248000000Y-80250000D03*
D15*
X243000000Y-80800000D03*
D12*
X244000000Y-79500000D03*
X245000000Y-79500000D03*
X246000000Y-79500000D03*
X247000000Y-79500000D03*
D16*
X248000000Y-79000000D03*
D12*
X249000000Y-79500000D03*
X250000000Y-79500000D03*
X251000000Y-79500000D03*
X252000000Y-79500000D03*
%TD*%
D59*
%TO.C,M5*%
X108450000Y-93900000D03*
%TD*%
D10*
%TO.C,REF\u002A\u002A2*%
X278000000Y-107750000D03*
D11*
X283000000Y-107200000D03*
D12*
X282000000Y-108500000D03*
X281000000Y-108500000D03*
X280000000Y-108500000D03*
X279000000Y-108500000D03*
D13*
X278000000Y-109000000D03*
D12*
X277000000Y-108500000D03*
X276000000Y-108500000D03*
X275000000Y-108500000D03*
X274000000Y-108500000D03*
%TD*%
D27*
%TO.C,REF\u002A\u002A*%
X209650000Y-94500000D03*
X208350000Y-94500000D03*
X207050000Y-94500000D03*
%TD*%
D14*
%TO.C,REF\u002A\u002A26*%
X288000000Y-80250000D03*
D15*
X283000000Y-80800000D03*
D12*
X284000000Y-79500000D03*
X285000000Y-79500000D03*
X286000000Y-79500000D03*
X287000000Y-79500000D03*
D16*
X288000000Y-79000000D03*
D12*
X289000000Y-79500000D03*
X290000000Y-79500000D03*
X291000000Y-79500000D03*
X292000000Y-79500000D03*
%TD*%
D18*
%TO.C,REF\u002A\u002A*%
X32652500Y-88350000D03*
X33612500Y-88350000D03*
%TD*%
D10*
%TO.C,REF\u002A\u002A5*%
X248000000Y-107750000D03*
D11*
X253000000Y-107200000D03*
D12*
X252000000Y-108500000D03*
X251000000Y-108500000D03*
X250000000Y-108500000D03*
X249000000Y-108500000D03*
D13*
X248000000Y-109000000D03*
D12*
X247000000Y-108500000D03*
X246000000Y-108500000D03*
X245000000Y-108500000D03*
X244000000Y-108500000D03*
%TD*%
D10*
%TO.C,REF\u002A\u002A23*%
X68000000Y-107750000D03*
D11*
X73000000Y-107200000D03*
D12*
X72000000Y-108500000D03*
X71000000Y-108500000D03*
X70000000Y-108500000D03*
X69000000Y-108500000D03*
D13*
X68000000Y-109000000D03*
D12*
X67000000Y-108500000D03*
X66000000Y-108500000D03*
X65000000Y-108500000D03*
X64000000Y-108500000D03*
%TD*%
D14*
%TO.C,REF\u002A\u002A24*%
X268000000Y-80250000D03*
D15*
X263000000Y-80800000D03*
D12*
X264000000Y-79500000D03*
X265000000Y-79500000D03*
X266000000Y-79500000D03*
X267000000Y-79500000D03*
D16*
X268000000Y-79000000D03*
D12*
X269000000Y-79500000D03*
X270000000Y-79500000D03*
X271000000Y-79500000D03*
X272000000Y-79500000D03*
%TD*%
D14*
%TO.C,REF\u002A\u002A16*%
X188000000Y-80250000D03*
D15*
X183000000Y-80800000D03*
D12*
X184000000Y-79500000D03*
X185000000Y-79500000D03*
X186000000Y-79500000D03*
X187000000Y-79500000D03*
D16*
X188000000Y-79000000D03*
D12*
X189000000Y-79500000D03*
X190000000Y-79500000D03*
X191000000Y-79500000D03*
X192000000Y-79500000D03*
%TD*%
D60*
%TO.C,DPAK*%
X192245000Y-95740000D03*
D61*
X194525000Y-89440000D03*
D60*
X196805000Y-95740000D03*
%TD*%
D14*
%TO.C,REF\u002A\u002A*%
X28000000Y-80250000D03*
D15*
X23000000Y-80800000D03*
D12*
X24000000Y-79500000D03*
X25000000Y-79500000D03*
X26000000Y-79500000D03*
X27000000Y-79500000D03*
D16*
X28000000Y-79000000D03*
D12*
X29000000Y-79500000D03*
X30000000Y-79500000D03*
X31000000Y-79500000D03*
X32000000Y-79500000D03*
%TD*%
D62*
%TO.C,0603|1608*%
X28550000Y-90750000D03*
X30100000Y-90750000D03*
%TD*%
D63*
%TO.C,SOD-110*%
X149550000Y-95000000D03*
X151450000Y-95000000D03*
%TD*%
D40*
%TO.C,REF\u002A\u002A*%
X30012500Y-86350000D03*
X30652500Y-86350000D03*
%TD*%
D10*
%TO.C,REF\u002A\u002A3*%
X268000000Y-107750000D03*
D11*
X273000000Y-107200000D03*
D12*
X272000000Y-108500000D03*
X271000000Y-108500000D03*
X270000000Y-108500000D03*
X269000000Y-108500000D03*
D13*
X268000000Y-109000000D03*
D12*
X267000000Y-108500000D03*
X266000000Y-108500000D03*
X265000000Y-108500000D03*
X264000000Y-108500000D03*
%TD*%
D10*
%TO.C,REF\u002A\u002A*%
X298000000Y-107750000D03*
D11*
X303000000Y-107200000D03*
D12*
X302000000Y-108500000D03*
X301000000Y-108500000D03*
X300000000Y-108500000D03*
X299000000Y-108500000D03*
D13*
X298000000Y-109000000D03*
D12*
X297000000Y-108500000D03*
X296000000Y-108500000D03*
X295000000Y-108500000D03*
X294000000Y-108500000D03*
%TD*%
D10*
%TO.C,REF\u002A\u002A27*%
X18000000Y-107750000D03*
D11*
X23000000Y-107200000D03*
D12*
X22000000Y-108500000D03*
X21000000Y-108500000D03*
X20000000Y-108500000D03*
X19000000Y-108500000D03*
D13*
X18000000Y-109000000D03*
D12*
X17000000Y-108500000D03*
X16000000Y-108500000D03*
X15000000Y-108500000D03*
X14000000Y-108500000D03*
%TD*%
D20*
%TO.C,REF\u002A\u002A*%
X206700000Y-98000000D03*
X204300000Y-98000000D03*
D64*
X207500000Y-98000000D03*
D50*
X203500000Y-98000000D03*
%TD*%
D10*
%TO.C,REF\u002A\u002A4*%
X258000000Y-107750000D03*
D11*
X263000000Y-107200000D03*
D12*
X262000000Y-108500000D03*
X261000000Y-108500000D03*
X260000000Y-108500000D03*
X259000000Y-108500000D03*
D13*
X258000000Y-109000000D03*
D12*
X257000000Y-108500000D03*
X256000000Y-108500000D03*
X255000000Y-108500000D03*
X254000000Y-108500000D03*
%TD*%
D27*
%TO.C,REF\u002A\u002A*%
X203600000Y-94500000D03*
X204900000Y-94500000D03*
%TD*%
D65*
%TO.C,M3*%
X128450000Y-93150000D03*
%TD*%
D66*
%TO.C,1mm*%
X67100000Y-85000000D03*
%TD*%
D10*
%TO.C,REF\u002A\u002A20*%
X98000000Y-107750000D03*
D11*
X103000000Y-107200000D03*
D12*
X102000000Y-108500000D03*
X101000000Y-108500000D03*
X100000000Y-108500000D03*
X99000000Y-108500000D03*
D13*
X98000000Y-109000000D03*
D12*
X97000000Y-108500000D03*
X96000000Y-108500000D03*
X95000000Y-108500000D03*
X94000000Y-108500000D03*
%TD*%
D67*
%TO.C,M2*%
X141850000Y-93150000D03*
%TD*%
D27*
%TO.C,REF\u002A\u002A*%
X209650000Y-86900000D03*
X208350000Y-86900000D03*
X207050000Y-86900000D03*
%TD*%
D40*
%TO.C,REF\u002A\u002A*%
X31832500Y-86350000D03*
X32472500Y-86350000D03*
%TD*%
D68*
%TO.C,0805|2012*%
X28600000Y-93250000D03*
X30500000Y-93250000D03*
%TD*%
D10*
%TO.C,REF\u002A\u002A*%
X308000000Y-107750000D03*
D11*
X313000000Y-107200000D03*
D12*
X312000000Y-108500000D03*
X311000000Y-108500000D03*
X310000000Y-108500000D03*
X309000000Y-108500000D03*
D13*
X308000000Y-109000000D03*
D12*
X307000000Y-108500000D03*
X306000000Y-108500000D03*
X305000000Y-108500000D03*
X304000000Y-108500000D03*
%TD*%
D10*
%TO.C,REF\u002A\u002A26*%
X38000000Y-107750000D03*
D11*
X43000000Y-107200000D03*
D12*
X42000000Y-108500000D03*
X41000000Y-108500000D03*
X40000000Y-108500000D03*
X39000000Y-108500000D03*
D13*
X38000000Y-109000000D03*
D12*
X37000000Y-108500000D03*
X36000000Y-108500000D03*
X35000000Y-108500000D03*
X34000000Y-108500000D03*
%TD*%
D10*
%TO.C,REF\u002A\u002A27*%
X28000000Y-107750000D03*
D11*
X33000000Y-107200000D03*
D12*
X32000000Y-108500000D03*
X31000000Y-108500000D03*
X30000000Y-108500000D03*
X29000000Y-108500000D03*
D13*
X28000000Y-109000000D03*
D12*
X27000000Y-108500000D03*
X26000000Y-108500000D03*
X25000000Y-108500000D03*
X24000000Y-108500000D03*
%TD*%
D62*
%TO.C,REF\u002A\u002A*%
X31932500Y-90750000D03*
X33482500Y-90750000D03*
%TD*%
D69*
%TO.C,2.5mm*%
X67100000Y-93250000D03*
%TD*%
D14*
%TO.C,REF\u002A\u002A10*%
X128000000Y-80250000D03*
D15*
X123000000Y-80800000D03*
D12*
X124000000Y-79500000D03*
X125000000Y-79500000D03*
X126000000Y-79500000D03*
X127000000Y-79500000D03*
D16*
X128000000Y-79000000D03*
D12*
X129000000Y-79500000D03*
X130000000Y-79500000D03*
X131000000Y-79500000D03*
X132000000Y-79500000D03*
%TD*%
D70*
%TO.C,QFN*%
X58262500Y-96750000D03*
D71*
X58262500Y-97400000D03*
X58262500Y-98050000D03*
X58262500Y-98700000D03*
X58262500Y-99350000D03*
D72*
X58262500Y-100000000D03*
D73*
X59000000Y-100737500D03*
D74*
X59650000Y-100737500D03*
X60300000Y-100737500D03*
X60950000Y-100737500D03*
X61600000Y-100737500D03*
D75*
X62250000Y-100737500D03*
D76*
X62987500Y-100000000D03*
D71*
X62987500Y-99350000D03*
X62987500Y-98700000D03*
X62987500Y-98050000D03*
X62987500Y-97400000D03*
D77*
X62987500Y-96750000D03*
D78*
X62250000Y-96012500D03*
D74*
X61600000Y-96012500D03*
X60950000Y-96012500D03*
X60300000Y-96012500D03*
X59650000Y-96012500D03*
D79*
X59000000Y-96012500D03*
D80*
X60625000Y-98375000D03*
%TD*%
D81*
%TO.C,4mm*%
X67100000Y-101500000D03*
%TD*%
D10*
%TO.C,REF\u002A\u002A18*%
X118000000Y-107750000D03*
D11*
X123000000Y-107200000D03*
D12*
X122000000Y-108500000D03*
X121000000Y-108500000D03*
X120000000Y-108500000D03*
X119000000Y-108500000D03*
D13*
X118000000Y-109000000D03*
D12*
X117000000Y-108500000D03*
X116000000Y-108500000D03*
X115000000Y-108500000D03*
X114000000Y-108500000D03*
%TD*%
D10*
%TO.C,REF\u002A\u002A11*%
X188000000Y-107750000D03*
D11*
X193000000Y-107200000D03*
D12*
X192000000Y-108500000D03*
X191000000Y-108500000D03*
X190000000Y-108500000D03*
X189000000Y-108500000D03*
D13*
X188000000Y-109000000D03*
D12*
X187000000Y-108500000D03*
X186000000Y-108500000D03*
X185000000Y-108500000D03*
X184000000Y-108500000D03*
%TD*%
D14*
%TO.C,REF\u002A\u002A8*%
X108000000Y-80250000D03*
D15*
X103000000Y-80800000D03*
D12*
X104000000Y-79500000D03*
X105000000Y-79500000D03*
X106000000Y-79500000D03*
X107000000Y-79500000D03*
D16*
X108000000Y-79000000D03*
D12*
X109000000Y-79500000D03*
X110000000Y-79500000D03*
X111000000Y-79500000D03*
X112000000Y-79500000D03*
%TD*%
D82*
%TO.C,SOT-23*%
X165925000Y-85750000D03*
X165925000Y-87650000D03*
X167800000Y-86700000D03*
%TD*%
D10*
%TO.C,REF\u002A\u002A24*%
X58000000Y-107750000D03*
D11*
X63000000Y-107200000D03*
D12*
X62000000Y-108500000D03*
X61000000Y-108500000D03*
X60000000Y-108500000D03*
X59000000Y-108500000D03*
D13*
X58000000Y-109000000D03*
D12*
X57000000Y-108500000D03*
X56000000Y-108500000D03*
X55000000Y-108500000D03*
X54000000Y-108500000D03*
%TD*%
D83*
%TO.C,REF\u002A\u002A*%
X226225000Y-85750000D03*
X226225000Y-87250000D03*
X220775000Y-85750000D03*
D84*
X220775000Y-87250000D03*
%TD*%
D10*
%TO.C,REF\u002A\u002A21*%
X88000000Y-107750000D03*
D11*
X93000000Y-107200000D03*
D12*
X92000000Y-108500000D03*
X91000000Y-108500000D03*
X90000000Y-108500000D03*
X89000000Y-108500000D03*
D13*
X88000000Y-109000000D03*
D12*
X87000000Y-108500000D03*
X86000000Y-108500000D03*
X85000000Y-108500000D03*
X84000000Y-108500000D03*
%TD*%
D85*
%TO.C,REF\u002A\u002A*%
X225200000Y-91050000D03*
D86*
X223650000Y-90500000D03*
X223650000Y-91600000D03*
X226750000Y-91600000D03*
X226750000Y-90500000D03*
%TD*%
D87*
%TO.C,REF\u002A\u002A*%
X199500000Y-101000000D03*
%TD*%
G36*
X25101000Y-100949586D02*
G01*
X25101000Y-101850414D01*
X25100414Y-101851000D01*
X17099586Y-101851000D01*
X17099000Y-101850414D01*
X17099000Y-100949586D01*
X17099586Y-100949000D01*
X25100414Y-100949000D01*
X25101000Y-100949586D01*
G37*
G36*
X25101000Y-90799586D02*
G01*
X25101000Y-91000414D01*
X25100414Y-91001000D01*
X17099586Y-91001000D01*
X17099000Y-91000414D01*
X17099000Y-90799586D01*
X17099586Y-90799000D01*
X25100414Y-90799000D01*
X25101000Y-90799586D01*
G37*
G36*
X25101000Y-99499586D02*
G01*
X25101000Y-100300414D01*
X25100414Y-100301000D01*
X17099586Y-100301000D01*
X17099000Y-100300414D01*
X17099000Y-99499586D01*
X17099586Y-99499000D01*
X25100414Y-99499000D01*
X25101000Y-99499586D01*
G37*
G36*
X25101000Y-93699586D02*
G01*
X25101000Y-94100414D01*
X25100414Y-94101000D01*
X17099586Y-94101000D01*
X17099000Y-94100414D01*
X17099000Y-93699586D01*
X17099586Y-93699000D01*
X25100414Y-93699000D01*
X25101000Y-93699586D01*
G37*
G36*
X25101000Y-102499586D02*
G01*
X25101000Y-103500414D01*
X25100414Y-103501000D01*
X17099586Y-103501000D01*
X17099000Y-103500414D01*
X17099000Y-102499586D01*
X17099586Y-102499000D01*
X25100414Y-102499000D01*
X25101000Y-102499586D01*
G37*
G36*
X25101000Y-98049586D02*
G01*
X25101000Y-98750414D01*
X25100414Y-98751000D01*
X17099586Y-98751000D01*
X17099000Y-98750414D01*
X17099000Y-98049586D01*
X17099586Y-98049000D01*
X25100414Y-98049000D01*
X25101000Y-98049586D01*
G37*
G36*
X25101000Y-95149586D02*
G01*
X25101000Y-95650414D01*
X25100414Y-95651000D01*
X17099586Y-95651000D01*
X17099000Y-95650414D01*
X17099000Y-95149586D01*
X17099586Y-95149000D01*
X25100414Y-95149000D01*
X25101000Y-95149586D01*
G37*
G36*
X25101000Y-92249586D02*
G01*
X25101000Y-92550414D01*
X25100414Y-92551000D01*
X17099586Y-92551000D01*
X17099000Y-92550414D01*
X17099000Y-92249586D01*
X17099586Y-92249000D01*
X25100414Y-92249000D01*
X25101000Y-92249586D01*
G37*
G36*
X25101000Y-96599586D02*
G01*
X25101000Y-97200414D01*
X25100414Y-97201000D01*
X17099586Y-97201000D01*
X17099000Y-97200414D01*
X17099000Y-96599586D01*
X17099586Y-96599000D01*
X25100414Y-96599000D01*
X25101000Y-96599586D01*
G37*
G36*
X25101000Y-89249586D02*
G01*
X25101000Y-89350414D01*
X25100414Y-89351000D01*
X17099586Y-89351000D01*
X17099000Y-89350414D01*
X17099000Y-89249586D01*
X17099586Y-89249000D01*
X25100414Y-89249000D01*
X25101000Y-89249586D01*
G37*
M02*
